<svg width="1064" height="510" viewBox="0 0 1064 510" fill="none" xmlns="http://www.w3.org/2000/svg">
<path d="M1.10085 19V4.45455H7.10938C8.19839 4.45455 9.13826 4.65104 9.92898 5.04403C10.7244 5.43229 11.3376 5.991 11.7685 6.72017C12.1993 7.4446 12.4148 8.30398 12.4148 9.2983C12.4148 10.3068 12.1946 11.1638 11.7543 11.8693C11.3139 12.5701 10.6889 13.1051 9.87926 13.4744C9.0696 13.839 8.1108 14.0213 7.00284 14.0213H3.20312V11.2514H6.34943C6.87974 11.2514 7.32244 11.1828 7.67756 11.0455C8.03741 10.9034 8.30966 10.6903 8.49432 10.4062C8.67898 10.1174 8.77131 9.74811 8.77131 9.2983C8.77131 8.84848 8.67898 8.4768 8.49432 8.18324C8.30966 7.88494 8.03741 7.66241 7.67756 7.51562C7.31771 7.36411 6.875 7.28835 6.34943 7.28835H4.61648V19H1.10085ZM9.28977 12.3523L12.9119 19H9.0767L5.52557 12.3523H9.28977ZM18.9276 19.206C17.7865 19.206 16.8017 18.9811 15.9731 18.5312C15.1492 18.0767 14.5147 17.4304 14.0697 16.5923C13.6293 15.7495 13.4092 14.7481 13.4092 13.5881C13.4092 12.4612 13.6317 11.4763 14.0768 10.6335C14.5219 9.78598 15.1492 9.12784 15.9589 8.65909C16.7685 8.18561 17.7226 7.94886 18.8211 7.94886C19.5976 7.94886 20.3078 8.0696 20.9518 8.31108C21.5957 8.55256 22.1521 8.91004 22.6208 9.38352C23.0896 9.85701 23.4541 10.4418 23.7146 11.1378C23.975 11.8291 24.1052 12.6222 24.1052 13.517V14.3835H14.6237V12.3665H20.8737C20.8689 11.9972 20.7813 11.6681 20.6109 11.3793C20.4404 11.0904 20.206 10.8655 19.9077 10.7045C19.6142 10.5388 19.2756 10.456 18.8921 10.456C18.5039 10.456 18.1558 10.5436 17.8481 10.7188C17.5403 10.8892 17.2965 11.1236 17.1165 11.4219C16.9366 11.7154 16.8419 12.0492 16.8325 12.4233V14.4759C16.8325 14.9209 16.9201 15.3116 17.0952 15.6477C17.2704 15.9792 17.519 16.2372 17.841 16.4219C18.1629 16.6065 18.5465 16.6989 18.9915 16.6989C19.2993 16.6989 19.5787 16.6562 19.8296 16.571C20.0806 16.4858 20.296 16.3603 20.4759 16.1946C20.6558 16.0289 20.7908 15.8253 20.8808 15.5838L24.0697 15.6761C23.9371 16.3911 23.6459 17.0137 23.1961 17.544C22.751 18.0696 22.1663 18.4792 21.4418 18.7727C20.7174 19.0616 19.8793 19.206 18.9276 19.206ZM30.6642 23.3182C29.6273 23.3182 28.7395 23.1738 28.0009 22.8849C27.2622 22.5961 26.6822 22.2008 26.2608 21.6989C25.8394 21.197 25.5861 20.6288 25.5009 19.9943L28.7892 19.8097C28.8508 20.0322 28.9644 20.2263 29.1301 20.392C29.3006 20.5578 29.5207 20.6856 29.7906 20.7756C30.0652 20.8655 30.3872 20.9105 30.7565 20.9105C31.3389 20.9105 31.8195 20.7685 32.1983 20.4844C32.5818 20.205 32.7736 19.715 32.7736 19.0142V17.0966H32.6528C32.5155 17.4328 32.3072 17.7334 32.0278 17.9986C31.7485 18.2637 31.4005 18.4721 30.9838 18.6236C30.5719 18.7751 30.0984 18.8509 29.5634 18.8509C28.7679 18.8509 28.0387 18.6662 27.3759 18.2969C26.7177 17.9228 26.1898 17.3452 25.792 16.5639C25.3991 15.7779 25.2026 14.767 25.2026 13.5312C25.2026 12.2576 25.4062 11.2088 25.8134 10.3849C26.2205 9.55634 26.7532 8.94318 27.4114 8.54545C28.0742 8.14773 28.7868 7.94886 29.5491 7.94886C30.1221 7.94886 30.6121 8.0483 31.0193 8.24716C31.4312 8.44129 31.7698 8.69223 32.0349 9C32.3001 9.30777 32.5013 9.62737 32.6386 9.95881H32.7381V8.09091H36.1969V19.0426C36.1969 19.9659 35.9649 20.7448 35.5009 21.3793C35.0368 22.0137 34.3882 22.4943 33.5548 22.821C32.7215 23.1525 31.758 23.3182 30.6642 23.3182ZM30.7707 16.3224C31.1921 16.3224 31.552 16.2112 31.8503 15.9886C32.1486 15.7661 32.3782 15.4465 32.5392 15.0298C32.7002 14.6132 32.7807 14.1136 32.7807 13.5312C32.7807 12.9394 32.7002 12.4304 32.5392 12.0043C32.383 11.5734 32.1533 11.242 31.8503 11.0099C31.552 10.7779 31.1921 10.6619 30.7707 10.6619C30.3399 10.6619 29.9753 10.7803 29.677 11.017C29.3787 11.2538 29.1514 11.5876 28.9952 12.0185C28.8437 12.4446 28.7679 12.9489 28.7679 13.5312C28.7679 14.1136 28.846 14.6132 29.0023 15.0298C29.1585 15.4465 29.3834 15.7661 29.677 15.9886C29.9753 16.2112 30.3399 16.3224 30.7707 16.3224ZM38.111 19V8.09091H41.584V19H38.111ZM39.8511 6.8196C39.3634 6.8196 38.9443 6.65862 38.594 6.33665C38.2436 6.00994 38.0684 5.61695 38.0684 5.15767C38.0684 4.70312 38.2436 4.31487 38.594 3.9929C38.9443 3.66619 39.3634 3.50284 39.8511 3.50284C40.3435 3.50284 40.7625 3.66619 41.1082 3.9929C41.4585 4.31487 41.6337 4.70312 41.6337 5.15767C41.6337 5.61695 41.4585 6.00994 41.1082 6.33665C40.7625 6.65862 40.3435 6.8196 39.8511 6.8196ZM53.0187 11.4219L49.8298 11.5071C49.7967 11.2798 49.7067 11.0786 49.5599 10.9034C49.4132 10.7235 49.2214 10.5838 48.9847 10.4844C48.7527 10.3802 48.4828 10.3281 48.175 10.3281C47.7725 10.3281 47.4293 10.4086 47.1452 10.5696C46.8658 10.7306 46.7285 10.9484 46.7332 11.223C46.7285 11.4361 46.8137 11.6207 46.9889 11.777C47.1688 11.9332 47.4884 12.0587 47.9477 12.1534L50.05 12.5511C51.139 12.7595 51.9487 13.1051 52.479 13.5881C53.014 14.071 53.2839 14.7102 53.2886 15.5057C53.2839 16.2538 53.0614 16.9048 52.621 17.4588C52.1854 18.0128 51.5888 18.4437 50.8312 18.7514C50.0737 19.0545 49.2072 19.206 48.2318 19.206C46.6741 19.206 45.4454 18.8864 44.5457 18.2472C43.6509 17.6032 43.1395 16.7415 43.0116 15.6619L46.442 15.5767C46.5178 15.9744 46.7143 16.2775 47.0315 16.4858C47.3488 16.6941 47.7536 16.7983 48.246 16.7983C48.6911 16.7983 49.0533 16.7154 49.3327 16.5497C49.612 16.384 49.7541 16.1638 49.7588 15.8892C49.7541 15.643 49.6452 15.4465 49.4321 15.2997C49.219 15.1482 48.8852 15.0298 48.4307 14.9446L46.5273 14.5824C45.4335 14.3835 44.6191 14.0166 44.0841 13.4815C43.5491 12.9418 43.2839 12.2552 43.2886 11.4219C43.2839 10.6927 43.478 10.0701 43.871 9.55398C44.264 9.03314 44.8227 8.63542 45.5472 8.3608C46.2716 8.08617 47.1262 7.94886 48.1111 7.94886C49.5884 7.94886 50.7531 8.259 51.6054 8.87926C52.4577 9.49479 52.9288 10.3423 53.0187 11.4219ZM60.8562 8.09091V10.6477H53.9741V8.09091H60.8562ZM55.4158 5.47727H58.8888V15.5696C58.8888 15.7827 58.922 15.9555 58.9883 16.0881C59.0593 16.2159 59.1611 16.3082 59.2937 16.3651C59.4263 16.4171 59.5849 16.4432 59.7695 16.4432C59.9021 16.4432 60.0418 16.4313 60.1886 16.4077C60.3401 16.3793 60.4537 16.3556 60.5295 16.3366L61.055 18.8438C60.8893 18.8911 60.6549 18.9503 60.3519 19.0213C60.0536 19.0923 59.6961 19.1373 59.2795 19.1562C58.4651 19.1941 57.7667 19.0994 57.1843 18.8722C56.6067 18.6402 56.1639 18.2803 55.8562 17.7926C55.5531 17.3049 55.4064 16.6918 55.4158 15.9531V5.47727ZM67.3104 19.206C66.1693 19.206 65.1845 18.9811 64.3559 18.5312C63.532 18.0767 62.8976 17.4304 62.4525 16.5923C62.0121 15.7495 61.792 14.7481 61.792 13.5881C61.792 12.4612 62.0145 11.4763 62.4596 10.6335C62.9047 9.78598 63.532 9.12784 64.3417 8.65909C65.1514 8.18561 66.1054 7.94886 67.2039 7.94886C67.9804 7.94886 68.6906 8.0696 69.3346 8.31108C69.9785 8.55256 70.5349 8.91004 71.0036 9.38352C71.4724 9.85701 71.837 10.4418 72.0974 11.1378C72.3578 11.8291 72.488 12.6222 72.488 13.517V14.3835H63.0065V12.3665H69.2565C69.2517 11.9972 69.1641 11.6681 68.9937 11.3793C68.8232 11.0904 68.5889 10.8655 68.2906 10.7045C67.997 10.5388 67.6585 10.456 67.2749 10.456C66.8867 10.456 66.5387 10.5436 66.2309 10.7188C65.9231 10.8892 65.6793 11.1236 65.4994 11.4219C65.3194 11.7154 65.2247 12.0492 65.2153 12.4233V14.4759C65.2153 14.9209 65.3029 15.3116 65.4781 15.6477C65.6532 15.9792 65.9018 16.2372 66.2238 16.4219C66.5458 16.6065 66.9293 16.6989 67.3744 16.6989C67.6821 16.6989 67.9615 16.6562 68.2124 16.571C68.4634 16.4858 68.6788 16.3603 68.8587 16.1946C69.0387 16.0289 69.1736 15.8253 69.2636 15.5838L72.4525 15.6761C72.3199 16.3911 72.0287 17.0137 71.5789 17.544C71.1338 18.0696 70.5491 18.4792 69.8246 18.7727C69.1002 19.0616 68.2621 19.206 67.3104 19.206ZM73.9618 19V8.09091H77.3354V10.0795H77.449C77.6479 9.35985 77.9722 8.82481 78.422 8.47443C78.8718 8.11932 79.395 7.94176 79.9916 7.94176C80.1526 7.94176 80.3183 7.9536 80.4888 7.97727C80.6592 7.99621 80.8179 8.02699 80.9646 8.0696V11.0881C80.7989 11.0312 80.5811 10.9863 80.3112 10.9531C80.0461 10.92 79.8093 10.9034 79.601 10.9034C79.1891 10.9034 78.8174 10.9957 78.4859 11.1804C78.1592 11.3603 77.9012 11.6136 77.7118 11.9403C77.5271 12.2623 77.4348 12.6411 77.4348 13.0767V19H73.9618ZM86.6128 19.206C85.4717 19.206 84.4868 18.9811 83.6582 18.5312C82.8344 18.0767 82.1999 17.4304 81.7548 16.5923C81.3145 15.7495 81.0943 14.7481 81.0943 13.5881C81.0943 12.4612 81.3169 11.4763 81.7619 10.6335C82.207 9.78598 82.8344 9.12784 83.644 8.65909C84.4537 8.18561 85.4078 7.94886 86.5062 7.94886C87.2828 7.94886 87.993 8.0696 88.6369 8.31108C89.2809 8.55256 89.8372 8.91004 90.306 9.38352C90.7747 9.85701 91.1393 10.4418 91.3997 11.1378C91.6601 11.8291 91.7903 12.6222 91.7903 13.517V14.3835H82.3088V12.3665H88.5588C88.5541 11.9972 88.4665 11.6681 88.296 11.3793C88.1256 11.0904 87.8912 10.8655 87.5929 10.7045C87.2993 10.5388 86.9608 10.456 86.5773 10.456C86.189 10.456 85.841 10.5436 85.5332 10.7188C85.2255 10.8892 84.9816 11.1236 84.8017 11.4219C84.6218 11.7154 84.5271 12.0492 84.5176 12.4233V14.4759C84.5176 14.9209 84.6052 15.3116 84.7804 15.6477C84.9556 15.9792 85.2042 16.2372 85.5261 16.4219C85.8481 16.6065 86.2316 16.6989 86.6767 16.6989C86.9845 16.6989 87.2638 16.6562 87.5148 16.571C87.7657 16.4858 87.9812 16.3603 88.1611 16.1946C88.341 16.0289 88.4759 15.8253 88.5659 15.5838L91.7548 15.6761C91.6223 16.3911 91.3311 17.0137 90.8812 17.544C90.4362 18.0696 89.8514 18.4792 89.127 18.7727C88.4026 19.0616 87.5645 19.206 86.6128 19.206ZM97.2485 19.1562C96.4436 19.1562 95.7121 18.9479 95.0539 18.5312C94.3958 18.1146 93.8702 17.4896 93.4772 16.6562C93.0842 15.8229 92.8877 14.7884 92.8877 13.5526C92.8877 12.2694 93.0913 11.2135 93.4985 10.3849C93.9057 9.55634 94.4384 8.94318 95.0965 8.54545C95.7594 8.14773 96.472 7.94886 97.2343 7.94886C97.8072 7.94886 98.2973 8.0483 98.7045 8.24716C99.1117 8.44129 99.4478 8.69223 99.713 9C99.9782 9.30777 100.179 9.62737 100.317 9.95881H100.388V4.45455H103.861V19H100.423V17.2315H100.317C100.17 17.5677 99.9616 17.8826 99.6917 18.1761C99.4218 18.4697 99.0833 18.7064 98.6761 18.8864C98.2736 19.0663 97.7978 19.1562 97.2485 19.1562ZM98.4559 16.4503C98.8773 16.4503 99.2371 16.3319 99.5354 16.0952C99.8337 15.8537 100.063 15.5152 100.224 15.0795C100.385 14.6439 100.466 14.1326 100.466 13.5455C100.466 12.9489 100.385 12.4351 100.224 12.0043C100.068 11.5734 99.8385 11.242 99.5354 11.0099C99.2371 10.7779 98.8773 10.6619 98.4559 10.6619C98.025 10.6619 97.6604 10.7803 97.3621 11.017C97.0639 11.2538 96.8366 11.5876 96.6803 12.0185C96.5288 12.4493 96.4531 12.9583 96.4531 13.5455C96.4531 14.1326 96.5312 14.6439 96.6874 15.0795C96.8437 15.5152 97.0686 15.8537 97.3621 16.0952C97.6604 16.3319 98.025 16.4503 98.4559 16.4503ZM118.554 4.45455H122.062V13.8366C122.062 14.9209 121.804 15.8655 121.288 16.6705C120.772 17.4706 120.052 18.0909 119.129 18.5312C118.206 18.9669 117.133 19.1847 115.912 19.1847C114.676 19.1847 113.596 18.9669 112.673 18.5312C111.75 18.0909 111.032 17.4706 110.521 16.6705C110.01 15.8655 109.754 14.9209 109.754 13.8366V4.45455H113.27V13.5312C113.27 14.0331 113.379 14.4806 113.596 14.8736C113.819 15.2666 114.129 15.5743 114.527 15.7969C114.924 16.0194 115.386 16.1307 115.912 16.1307C116.437 16.1307 116.896 16.0194 117.289 15.7969C117.687 15.5743 117.997 15.2666 118.22 14.8736C118.442 14.4806 118.554 14.0331 118.554 13.5312V4.45455ZM133.49 11.4219L130.301 11.5071C130.268 11.2798 130.178 11.0786 130.031 10.9034C129.884 10.7235 129.692 10.5838 129.456 10.4844C129.224 10.3802 128.954 10.3281 128.646 10.3281C128.244 10.3281 127.9 10.4086 127.616 10.5696C127.337 10.7306 127.2 10.9484 127.204 11.223C127.2 11.4361 127.285 11.6207 127.46 11.777C127.64 11.9332 127.96 12.0587 128.419 12.1534L130.521 12.5511C131.61 12.7595 132.42 13.1051 132.95 13.5881C133.485 14.071 133.755 14.7102 133.76 15.5057C133.755 16.2538 133.532 16.9048 133.092 17.4588C132.657 18.0128 132.06 18.4437 131.302 18.7514C130.545 19.0545 129.678 19.206 128.703 19.206C127.145 19.206 125.916 18.8864 125.017 18.2472C124.122 17.6032 123.611 16.7415 123.483 15.6619L126.913 15.5767C126.989 15.9744 127.185 16.2775 127.503 16.4858C127.82 16.6941 128.225 16.7983 128.717 16.7983C129.162 16.7983 129.524 16.7154 129.804 16.5497C130.083 16.384 130.225 16.1638 130.23 15.8892C130.225 15.643 130.116 15.4465 129.903 15.2997C129.69 15.1482 129.356 15.0298 128.902 14.9446L126.998 14.5824C125.905 14.3835 125.09 14.0166 124.555 13.4815C124.02 12.9418 123.755 12.2552 123.76 11.4219C123.755 10.6927 123.949 10.0701 124.342 9.55398C124.735 9.03314 125.294 8.63542 126.018 8.3608C126.743 8.08617 127.597 7.94886 128.582 7.94886C130.059 7.94886 131.224 8.259 132.076 8.87926C132.929 9.49479 133.4 10.3423 133.49 11.4219ZM140.269 19.206C139.128 19.206 138.143 18.9811 137.314 18.5312C136.491 18.0767 135.856 17.4304 135.411 16.5923C134.971 15.7495 134.751 14.7481 134.751 13.5881C134.751 12.4612 134.973 11.4763 135.418 10.6335C135.863 9.78598 136.491 9.12784 137.3 8.65909C138.11 8.18561 139.064 7.94886 140.163 7.94886C140.939 7.94886 141.649 8.0696 142.293 8.31108C142.937 8.55256 143.493 8.91004 143.962 9.38352C144.431 9.85701 144.796 10.4418 145.056 11.1378C145.316 11.8291 145.447 12.6222 145.447 13.517V14.3835H135.965V12.3665H142.215C142.21 11.9972 142.123 11.6681 141.952 11.3793C141.782 11.0904 141.547 10.8655 141.249 10.7045C140.956 10.5388 140.617 10.456 140.234 10.456C139.845 10.456 139.497 10.5436 139.189 10.7188C138.882 10.8892 138.638 11.1236 138.458 11.4219C138.278 11.7154 138.183 12.0492 138.174 12.4233V14.4759C138.174 14.9209 138.261 15.3116 138.437 15.6477C138.612 15.9792 138.86 16.2372 139.182 16.4219C139.504 16.6065 139.888 16.6989 140.333 16.6989C140.641 16.6989 140.92 16.6562 141.171 16.571C141.422 16.4858 141.637 16.3603 141.817 16.1946C141.997 16.0289 142.132 15.8253 142.222 15.5838L145.411 15.6761C145.279 16.3911 144.987 17.0137 144.538 17.544C144.092 18.0696 143.508 18.4792 142.783 18.7727C142.059 19.0616 141.221 19.206 140.269 19.206ZM146.92 19V8.09091H150.294V10.0795H150.408C150.606 9.35985 150.931 8.82481 151.381 8.47443C151.83 8.11932 152.354 7.94176 152.95 7.94176C153.111 7.94176 153.277 7.9536 153.447 7.97727C153.618 7.99621 153.776 8.02699 153.923 8.0696V11.0881C153.758 11.0312 153.54 10.9863 153.27 10.9531C153.005 10.92 152.768 10.9034 152.56 10.9034C152.148 10.9034 151.776 10.9957 151.445 11.1804C151.118 11.3603 150.86 11.6136 150.67 11.9403C150.486 12.2623 150.393 12.6411 150.393 13.0767V19H146.92ZM164.562 11.4219L161.374 11.5071C161.34 11.2798 161.25 11.0786 161.104 10.9034C160.957 10.7235 160.765 10.5838 160.528 10.4844C160.296 10.3802 160.027 10.3281 159.719 10.3281C159.316 10.3281 158.973 10.4086 158.689 10.5696C158.41 10.7306 158.272 10.9484 158.277 11.223C158.272 11.4361 158.357 11.6207 158.533 11.777C158.713 11.9332 159.032 12.0587 159.491 12.1534L161.594 12.5511C162.683 12.7595 163.492 13.1051 164.023 13.5881C164.558 14.071 164.828 14.7102 164.832 15.5057C164.828 16.2538 164.605 16.9048 164.165 17.4588C163.729 18.0128 163.133 18.4437 162.375 18.7514C161.617 19.0545 160.751 19.206 159.776 19.206C158.218 19.206 156.989 18.8864 156.089 18.2472C155.195 17.6032 154.683 16.7415 154.555 15.6619L157.986 15.5767C158.062 15.9744 158.258 16.2775 158.575 16.4858C158.893 16.6941 159.297 16.7983 159.79 16.7983C160.235 16.7983 160.597 16.7154 160.876 16.5497C161.156 16.384 161.298 16.1638 161.303 15.8892C161.298 15.643 161.189 15.4465 160.976 15.2997C160.763 15.1482 160.429 15.0298 159.974 14.9446L158.071 14.5824C156.977 14.3835 156.163 14.0166 155.628 13.4815C155.093 12.9418 154.828 12.2552 154.832 11.4219C154.828 10.6927 155.022 10.0701 155.415 9.55398C155.808 9.03314 156.366 8.63542 157.091 8.3608C157.815 8.08617 158.67 7.94886 159.655 7.94886C161.132 7.94886 162.297 8.259 163.149 8.87926C164.001 9.49479 164.473 10.3423 164.562 11.4219Z" fill="#454545"/>
<path d="M1009.38 490.455H1013.3L1016.38 496.541H1016.51L1019.58 490.455H1023.51L1018.19 500.142V505H1014.7V500.142L1009.38 490.455ZM1027.26 505.206C1026.12 505.206 1025.14 504.981 1024.31 504.531C1023.49 504.077 1022.85 503.43 1022.41 502.592C1021.97 501.75 1021.75 500.748 1021.75 499.588C1021.75 498.461 1021.97 497.476 1022.41 496.634C1022.86 495.786 1023.49 495.128 1024.29 494.659C1025.1 494.186 1026.06 493.949 1027.16 493.949C1027.93 493.949 1028.64 494.07 1029.29 494.311C1029.93 494.553 1030.49 494.91 1030.96 495.384C1031.43 495.857 1031.79 496.442 1032.05 497.138C1032.31 497.829 1032.44 498.622 1032.44 499.517V500.384H1022.96V498.366H1029.21C1029.2 497.997 1029.12 497.668 1028.95 497.379C1028.78 497.09 1028.54 496.866 1028.24 496.705C1027.95 496.539 1027.61 496.456 1027.23 496.456C1026.84 496.456 1026.49 496.544 1026.18 496.719C1025.88 496.889 1025.63 497.124 1025.45 497.422C1025.27 497.715 1025.18 498.049 1025.17 498.423V500.476C1025.17 500.921 1025.26 501.312 1025.43 501.648C1025.61 501.979 1025.85 502.237 1026.18 502.422C1026.5 502.607 1026.88 502.699 1027.33 502.699C1027.64 502.699 1027.91 502.656 1028.17 502.571C1028.42 502.486 1028.63 502.36 1028.81 502.195C1028.99 502.029 1029.13 501.825 1029.22 501.584L1032.41 501.676C1032.27 502.391 1031.98 503.014 1031.53 503.544C1031.09 504.07 1030.5 504.479 1029.78 504.773C1029.05 505.062 1028.22 505.206 1027.26 505.206ZM1036.99 505.185C1036.29 505.185 1035.68 505.069 1035.14 504.837C1034.6 504.6 1034.18 504.245 1033.87 503.771C1033.56 503.293 1033.4 502.694 1033.4 501.974C1033.4 501.368 1033.51 500.857 1033.72 500.44C1033.94 500.024 1034.23 499.685 1034.6 499.425C1034.98 499.164 1035.41 498.968 1035.9 498.835C1036.38 498.698 1036.9 498.606 1037.46 498.558C1038.08 498.501 1038.58 498.442 1038.96 498.381C1039.34 498.314 1039.61 498.222 1039.78 498.104C1039.96 497.981 1040.04 497.808 1040.04 497.585V497.55C1040.04 497.185 1039.92 496.903 1039.67 496.705C1039.42 496.506 1039.08 496.406 1038.65 496.406C1038.19 496.406 1037.82 496.506 1037.54 496.705C1037.26 496.903 1037.09 497.178 1037.01 497.528L1033.81 497.415C1033.9 496.752 1034.15 496.16 1034.54 495.639C1034.94 495.114 1035.48 494.702 1036.17 494.403C1036.87 494.1 1037.71 493.949 1038.68 493.949C1039.38 493.949 1040.02 494.032 1040.61 494.197C1041.19 494.358 1041.7 494.595 1042.14 494.908C1042.57 495.215 1042.91 495.594 1043.15 496.044C1043.39 496.494 1043.51 497.008 1043.51 497.585V505H1040.24V503.48H1040.16C1039.96 503.849 1039.72 504.162 1039.41 504.418C1039.11 504.673 1038.76 504.865 1038.35 504.993C1037.95 505.121 1037.5 505.185 1036.99 505.185ZM1038.06 502.912C1038.44 502.912 1038.77 502.836 1039.07 502.685C1039.37 502.533 1039.62 502.325 1039.8 502.06C1039.98 501.79 1040.07 501.477 1040.07 501.122V500.085C1039.97 500.137 1039.85 500.185 1039.7 500.227C1039.57 500.27 1039.41 500.31 1039.25 500.348C1039.08 500.386 1038.91 500.419 1038.74 500.447C1038.56 500.476 1038.39 500.502 1038.23 500.526C1037.91 500.578 1037.63 500.658 1037.4 500.767C1037.17 500.876 1036.99 501.018 1036.87 501.193C1036.75 501.364 1036.69 501.567 1036.69 501.804C1036.69 502.164 1036.82 502.438 1037.08 502.628C1037.34 502.817 1037.66 502.912 1038.06 502.912ZM1045.33 505V494.091H1048.71V496.08H1048.82C1049.02 495.36 1049.34 494.825 1049.79 494.474C1050.24 494.119 1050.77 493.942 1051.36 493.942C1051.52 493.942 1051.69 493.954 1051.86 493.977C1052.03 493.996 1052.19 494.027 1052.34 494.07V497.088C1052.17 497.031 1051.95 496.986 1051.68 496.953C1051.42 496.92 1051.18 496.903 1050.97 496.903C1050.56 496.903 1050.19 496.996 1049.86 497.18C1049.53 497.36 1049.27 497.614 1049.08 497.94C1048.9 498.262 1048.81 498.641 1048.81 499.077V505H1045.33ZM1062.98 497.422L1059.79 497.507C1059.75 497.28 1059.66 497.079 1059.52 496.903C1059.37 496.723 1059.18 496.584 1058.94 496.484C1058.71 496.38 1058.44 496.328 1058.13 496.328C1057.73 496.328 1057.39 496.409 1057.1 496.57C1056.82 496.731 1056.69 496.948 1056.69 497.223C1056.69 497.436 1056.77 497.621 1056.95 497.777C1057.13 497.933 1057.45 498.059 1057.9 498.153L1060.01 498.551C1061.1 498.759 1061.91 499.105 1062.44 499.588C1062.97 500.071 1063.24 500.71 1063.25 501.506C1063.24 502.254 1063.02 502.905 1062.58 503.459C1062.14 504.013 1061.55 504.444 1060.79 504.751C1060.03 505.054 1059.16 505.206 1058.19 505.206C1056.63 505.206 1055.4 504.886 1054.5 504.247C1053.61 503.603 1053.1 502.741 1052.97 501.662L1056.4 501.577C1056.47 501.974 1056.67 502.277 1056.99 502.486C1057.31 502.694 1057.71 502.798 1058.2 502.798C1058.65 502.798 1059.01 502.715 1059.29 502.55C1059.57 502.384 1059.71 502.164 1059.72 501.889C1059.71 501.643 1059.6 501.446 1059.39 501.3C1059.18 501.148 1058.84 501.03 1058.39 500.945L1056.48 500.582C1055.39 500.384 1054.58 500.017 1054.04 499.482C1053.51 498.942 1053.24 498.255 1053.25 497.422C1053.24 496.693 1053.44 496.07 1053.83 495.554C1054.22 495.033 1054.78 494.635 1055.5 494.361C1056.23 494.086 1057.08 493.949 1058.07 493.949C1059.55 493.949 1060.71 494.259 1061.56 494.879C1062.41 495.495 1062.89 496.342 1062.98 497.422Z" fill="#454545"/>
<line x1="55.5" y1="447" x2="55.5" y2="46" stroke="#F1F1F1"/>
<path d="M42.7455 477V475.807L46.4369 471.982C46.831 471.567 47.156 471.203 47.4116 470.89C47.6709 470.574 47.8644 470.274 47.9923 469.99C48.1201 469.706 48.184 469.404 48.184 469.085C48.184 468.722 48.0988 468.41 47.9283 468.147C47.7579 467.881 47.5253 467.676 47.2305 467.534C46.9358 467.389 46.6038 467.316 46.2344 467.316C45.8438 467.316 45.5029 467.396 45.2117 467.556C44.9205 467.716 44.6968 467.941 44.5406 468.232C44.3843 468.523 44.3062 468.864 44.3062 469.255H42.7348C42.7348 468.591 42.8875 468.01 43.1929 467.513C43.4983 467.016 43.9173 466.631 44.45 466.357C44.9827 466.08 45.5881 465.942 46.2664 465.942C46.9518 465.942 47.5555 466.078 48.0775 466.352C48.6031 466.622 49.0132 466.991 49.308 467.46C49.6027 467.925 49.7501 468.451 49.7501 469.037C49.7501 469.441 49.6737 469.837 49.521 470.224C49.3719 470.612 49.1109 471.043 48.738 471.519C48.3651 471.991 47.8467 472.565 47.1826 473.239L45.0146 475.509V475.588H49.9259V477H42.7455ZM55.4426 477.181C54.601 477.178 53.8819 476.956 53.2853 476.515C52.6887 476.075 52.2324 475.434 51.9163 474.592C51.6003 473.751 51.4423 472.737 51.4423 471.551C51.4423 470.368 51.6003 469.358 51.9163 468.52C52.2359 467.682 52.694 467.043 53.2906 466.602C53.8908 466.162 54.6081 465.942 55.4426 465.942C56.2771 465.942 56.9927 466.164 57.5893 466.608C58.1859 467.048 58.6422 467.687 58.9582 468.525C59.2778 469.36 59.4376 470.368 59.4376 471.551C59.4376 472.74 59.2796 473.756 58.9636 474.598C58.6475 475.436 58.1912 476.077 57.5946 476.521C56.998 476.961 56.2807 477.181 55.4426 477.181ZM55.4426 475.759C56.1813 475.759 56.7583 475.398 57.1738 474.678C57.5928 473.957 57.8023 472.914 57.8023 471.551C57.8023 470.645 57.7065 469.88 57.5147 469.255C57.3265 468.626 57.0548 468.151 56.6997 467.827C56.3482 467.501 55.9291 467.337 55.4426 467.337C54.7075 467.337 54.1305 467.7 53.7114 468.424C53.2924 469.148 53.0811 470.191 53.0776 471.551C53.0776 472.46 53.1717 473.229 53.3599 473.857C53.5516 474.482 53.8233 474.956 54.1749 475.279C54.5264 475.599 54.949 475.759 55.4426 475.759ZM65.1661 466.091V477H63.5149V467.742H63.4509L60.8409 469.447V467.87L63.5628 466.091H65.1661ZM71.6257 477.149C71.1392 477.142 70.6598 477.053 70.1875 476.883C69.7188 476.712 69.2926 476.428 68.9091 476.031C68.5256 475.633 68.2184 475.098 67.9876 474.427C67.7603 473.756 67.6467 472.918 67.6467 471.913C67.6467 470.961 67.7408 470.116 67.929 469.377C68.1208 468.639 68.396 468.016 68.7546 467.508C69.1133 466.996 69.5465 466.608 70.0544 466.341C70.5622 466.075 71.1321 465.942 71.7642 465.942C72.4141 465.942 72.9911 466.07 73.4954 466.325C73.9997 466.581 74.408 466.934 74.7205 467.385C75.0366 467.836 75.2372 468.349 75.3225 468.925H73.6978C73.5877 468.47 73.3693 468.099 73.0426 467.811C72.7159 467.524 72.2898 467.38 71.7642 467.38C70.9652 467.38 70.342 467.728 69.8946 468.424C69.4507 469.12 69.2269 470.088 69.2234 471.327H69.3033C69.4915 471.018 69.7223 470.755 69.9958 470.539C70.2727 470.319 70.5817 470.15 70.9226 470.033C71.2671 469.912 71.6293 469.852 72.0093 469.852C72.6414 469.852 73.2131 470.006 73.7245 470.315C74.2394 470.62 74.6495 471.043 74.9549 471.583C75.2603 472.123 75.413 472.74 75.413 473.436C75.413 474.132 75.255 474.763 74.9389 475.327C74.6264 475.892 74.1861 476.339 73.6179 476.67C73.0497 476.996 72.3857 477.156 71.6257 477.149ZM71.6204 475.764C72.0394 475.764 72.4141 475.661 72.7443 475.455C73.0746 475.249 73.3356 474.972 73.5274 474.624C73.7191 474.276 73.815 473.887 73.815 473.458C73.815 473.039 73.7209 472.657 73.5327 472.312C73.348 471.968 73.0924 471.695 72.7656 471.492C72.4425 471.29 72.0732 471.189 71.6577 471.189C71.3416 471.189 71.0487 471.249 70.7788 471.37C70.5124 471.49 70.2781 471.657 70.0757 471.87C69.8732 472.083 69.7134 472.328 69.5963 472.605C69.4826 472.879 69.4258 473.168 69.4258 473.474C69.4258 473.882 69.5199 474.26 69.7081 474.608C69.8999 474.956 70.1609 475.237 70.4911 475.45C70.8249 475.659 71.2014 475.764 71.6204 475.764Z" fill="#7D7D7D"/>
<line x1="193.5" y1="447" x2="193.5" y2="46" stroke="#F1F1F1"/>
<path d="M181.17 477V475.807L184.862 471.982C185.256 471.567 185.581 471.203 185.836 470.89C186.096 470.574 186.289 470.274 186.417 469.99C186.545 469.706 186.609 469.404 186.609 469.085C186.609 468.722 186.524 468.41 186.353 468.147C186.183 467.881 185.95 467.676 185.655 467.534C185.361 467.389 185.029 467.316 184.659 467.316C184.269 467.316 183.928 467.396 183.637 467.556C183.345 467.716 183.122 467.941 182.965 468.232C182.809 468.523 182.731 468.864 182.731 469.255H181.16C181.16 468.591 181.312 468.01 181.618 467.513C181.923 467.016 182.342 466.631 182.875 466.357C183.407 466.08 184.013 465.942 184.691 465.942C185.377 465.942 185.98 466.078 186.502 466.352C187.028 466.622 187.438 466.991 187.733 467.46C188.028 467.925 188.175 468.451 188.175 469.037C188.175 469.441 188.099 469.837 187.946 470.224C187.797 470.612 187.536 471.043 187.163 471.519C186.79 471.991 186.271 472.565 185.607 473.239L183.439 475.509V475.588H188.351V477H181.17ZM193.867 477.181C193.026 477.178 192.307 476.956 191.71 476.515C191.114 476.075 190.657 475.434 190.341 474.592C190.025 473.751 189.867 472.737 189.867 471.551C189.867 470.368 190.025 469.358 190.341 468.52C190.661 467.682 191.119 467.043 191.715 466.602C192.316 466.162 193.033 465.942 193.867 465.942C194.702 465.942 195.417 466.164 196.014 466.608C196.611 467.048 197.067 467.687 197.383 468.525C197.703 469.36 197.862 470.368 197.862 471.551C197.862 472.74 197.704 473.756 197.388 474.598C197.072 475.436 196.616 476.077 196.019 476.521C195.423 476.961 194.705 477.181 193.867 477.181ZM193.867 475.759C194.606 475.759 195.183 475.398 195.599 474.678C196.018 473.957 196.227 472.914 196.227 471.551C196.227 470.645 196.131 469.88 195.94 469.255C195.751 468.626 195.48 468.151 195.125 467.827C194.773 467.501 194.354 467.337 193.867 467.337C193.132 467.337 192.555 467.7 192.136 468.424C191.717 469.148 191.506 470.191 191.502 471.551C191.502 472.46 191.596 473.229 191.785 473.857C191.976 474.482 192.248 474.956 192.6 475.279C192.951 475.599 193.374 475.759 193.867 475.759ZM203.591 466.091V477H201.94V467.742H201.876L199.266 469.447V467.87L201.988 466.091H203.591ZM206.609 477L211.372 467.582V467.502H205.864V466.091H213.076V467.55L208.33 477H206.609Z" fill="#7D7D7D"/>
<line x1="331.5" y1="447" x2="331.5" y2="46" stroke="#F1F1F1"/>
<path d="M318.775 477V475.807L322.466 471.982C322.86 471.567 323.185 471.203 323.441 470.89C323.7 470.574 323.894 470.274 324.022 469.99C324.149 469.706 324.213 469.404 324.213 469.085C324.213 468.722 324.128 468.41 323.958 468.147C323.787 467.881 323.555 467.676 323.26 467.534C322.965 467.389 322.633 467.316 322.264 467.316C321.873 467.316 321.532 467.396 321.241 467.556C320.95 467.716 320.726 467.941 320.57 468.232C320.414 468.523 320.335 468.864 320.335 469.255H318.764C318.764 468.591 318.917 468.01 319.222 467.513C319.528 467.016 319.947 466.631 320.479 466.357C321.012 466.08 321.617 465.942 322.296 465.942C322.981 465.942 323.585 466.078 324.107 466.352C324.632 466.622 325.043 466.991 325.337 467.46C325.632 467.925 325.779 468.451 325.779 469.037C325.779 469.441 325.703 469.837 325.55 470.224C325.401 470.612 325.14 471.043 324.767 471.519C324.394 471.991 323.876 472.565 323.212 473.239L321.044 475.509V475.588H325.955V477H318.775ZM331.472 477.181C330.63 477.178 329.911 476.956 329.315 476.515C328.718 476.075 328.262 475.434 327.946 474.592C327.63 473.751 327.472 472.737 327.472 471.551C327.472 470.368 327.63 469.358 327.946 468.52C328.265 467.682 328.723 467.043 329.32 466.602C329.92 466.162 330.637 465.942 331.472 465.942C332.306 465.942 333.022 466.164 333.619 466.608C334.215 467.048 334.671 467.687 334.988 468.525C335.307 469.36 335.467 470.368 335.467 471.551C335.467 472.74 335.309 473.756 334.993 474.598C334.677 475.436 334.22 476.077 333.624 476.521C333.027 476.961 332.31 477.181 331.472 477.181ZM331.472 475.759C332.211 475.759 332.788 475.398 333.203 474.678C333.622 473.957 333.832 472.914 333.832 471.551C333.832 470.645 333.736 469.88 333.544 469.255C333.356 468.626 333.084 468.151 332.729 467.827C332.377 467.501 331.958 467.337 331.472 467.337C330.737 467.337 330.16 467.7 329.741 468.424C329.322 469.148 329.11 470.191 329.107 471.551C329.107 472.46 329.201 473.229 329.389 473.857C329.581 474.482 329.853 474.956 330.204 475.279C330.556 475.599 330.978 475.759 331.472 475.759ZM341.195 466.091V477H339.544V467.742H339.48L336.87 469.447V467.87L339.592 466.091H341.195ZM347.533 477.149C346.769 477.149 346.094 477.018 345.508 476.755C344.926 476.492 344.47 476.13 344.139 475.668C343.809 475.207 343.646 474.681 343.649 474.092C343.646 473.63 343.74 473.206 343.932 472.819C344.127 472.428 344.392 472.103 344.725 471.844C345.059 471.581 345.432 471.414 345.844 471.343V471.279C345.301 471.148 344.866 470.857 344.539 470.406C344.212 469.955 344.051 469.436 344.054 468.85C344.051 468.293 344.198 467.795 344.496 467.359C344.798 466.918 345.212 466.572 345.737 466.32C346.263 466.068 346.861 465.942 347.533 465.942C348.197 465.942 348.79 466.07 349.312 466.325C349.837 466.577 350.251 466.924 350.553 467.364C350.855 467.801 351.007 468.296 351.011 468.85C351.007 469.436 350.84 469.955 350.51 470.406C350.18 470.857 349.75 471.148 349.221 471.279V471.343C349.629 471.414 349.997 471.581 350.324 471.844C350.654 472.103 350.917 472.428 351.112 472.819C351.311 473.206 351.412 473.63 351.416 474.092C351.412 474.681 351.245 475.207 350.915 475.668C350.585 476.13 350.127 476.492 349.541 476.755C348.958 477.018 348.289 477.149 347.533 477.149ZM347.533 475.801C347.984 475.801 348.374 475.727 348.704 475.578C349.035 475.425 349.29 475.214 349.471 474.944C349.653 474.67 349.745 474.351 349.748 473.985C349.745 473.605 349.645 473.27 349.45 472.978C349.258 472.687 348.997 472.458 348.667 472.291C348.337 472.124 347.959 472.041 347.533 472.041C347.103 472.041 346.721 472.124 346.387 472.291C346.053 472.458 345.791 472.687 345.599 472.978C345.407 473.27 345.313 473.605 345.317 473.985C345.313 474.351 345.4 474.67 345.578 474.944C345.759 475.214 346.016 475.425 346.35 475.578C346.684 475.727 347.078 475.801 347.533 475.801ZM347.533 470.725C347.895 470.725 348.216 470.652 348.497 470.507C348.777 470.361 348.997 470.159 349.157 469.9C349.321 469.64 349.404 469.337 349.408 468.989C349.404 468.648 349.322 468.349 349.162 468.094C349.006 467.838 348.788 467.641 348.507 467.502C348.227 467.36 347.902 467.289 347.533 467.289C347.156 467.289 346.826 467.36 346.542 467.502C346.261 467.641 346.043 467.838 345.887 468.094C345.73 468.349 345.654 468.648 345.658 468.989C345.654 469.337 345.732 469.64 345.892 469.9C346.052 470.159 346.272 470.361 346.552 470.507C346.836 470.652 347.163 470.725 347.533 470.725Z" fill="#7D7D7D"/>
<line x1="469.5" y1="447" x2="469.5" y2="46" stroke="#F1F1F1"/>
<path d="M456.745 477V475.807L460.437 471.982C460.831 471.567 461.156 471.203 461.412 470.89C461.671 470.574 461.864 470.274 461.992 469.99C462.12 469.706 462.184 469.404 462.184 469.085C462.184 468.722 462.099 468.41 461.928 468.147C461.758 467.881 461.525 467.676 461.231 467.534C460.936 467.389 460.604 467.316 460.234 467.316C459.844 467.316 459.503 467.396 459.212 467.556C458.921 467.716 458.697 467.941 458.541 468.232C458.384 468.523 458.306 468.864 458.306 469.255H456.735C456.735 468.591 456.888 468.01 457.193 467.513C457.498 467.016 457.917 466.631 458.45 466.357C458.983 466.08 459.588 465.942 460.266 465.942C460.952 465.942 461.555 466.078 462.077 466.352C462.603 466.622 463.013 466.991 463.308 467.46C463.603 467.925 463.75 468.451 463.75 469.037C463.75 469.441 463.674 469.837 463.521 470.224C463.372 470.612 463.111 471.043 462.738 471.519C462.365 471.991 461.847 472.565 461.183 473.239L459.015 475.509V475.588H463.926V477H456.745ZM469.443 477.181C468.601 477.178 467.882 476.956 467.285 476.515C466.689 476.075 466.232 475.434 465.916 474.592C465.6 473.751 465.442 472.737 465.442 471.551C465.442 470.368 465.6 469.358 465.916 468.52C466.236 467.682 466.694 467.043 467.291 466.602C467.891 466.162 468.608 465.942 469.443 465.942C470.277 465.942 470.993 466.164 471.589 466.608C472.186 467.048 472.642 467.687 472.958 468.525C473.278 469.36 473.438 470.368 473.438 471.551C473.438 472.74 473.28 473.756 472.964 474.598C472.648 475.436 472.191 476.077 471.595 476.521C470.998 476.961 470.281 477.181 469.443 477.181ZM469.443 475.759C470.181 475.759 470.758 475.398 471.174 474.678C471.593 473.957 471.802 472.914 471.802 471.551C471.802 470.645 471.706 469.88 471.515 469.255C471.326 468.626 471.055 468.151 470.7 467.827C470.348 467.501 469.929 467.337 469.443 467.337C468.708 467.337 468.13 467.7 467.711 468.424C467.292 469.148 467.081 470.191 467.078 471.551C467.078 472.46 467.172 473.229 467.36 473.857C467.552 474.482 467.823 474.956 468.175 475.279C468.526 475.599 468.949 475.759 469.443 475.759ZM479.166 466.091V477H477.515V467.742H477.451L474.841 469.447V467.87L477.563 466.091H479.166ZM485.445 465.942C485.931 465.945 486.411 466.034 486.883 466.208C487.355 466.382 487.781 466.666 488.161 467.06C488.545 467.455 488.85 467.987 489.077 468.658C489.308 469.326 489.425 470.157 489.429 471.151C489.429 472.107 489.333 472.957 489.141 473.703C488.95 474.445 488.674 475.072 488.316 475.583C487.961 476.094 487.529 476.483 487.021 476.75C486.514 477.016 485.942 477.149 485.306 477.149C484.656 477.149 484.079 477.021 483.575 476.766C483.071 476.51 482.661 476.157 482.344 475.706C482.028 475.251 481.831 474.729 481.753 474.14H483.378C483.484 474.608 483.701 474.988 484.028 475.279C484.358 475.567 484.784 475.711 485.306 475.711C486.105 475.711 486.728 475.363 487.176 474.667C487.623 473.967 487.849 472.991 487.852 471.737H487.767C487.582 472.043 487.352 472.305 487.075 472.526C486.801 472.746 486.494 472.916 486.153 473.037C485.812 473.158 485.448 473.218 485.061 473.218C484.433 473.218 483.861 473.064 483.346 472.755C482.831 472.446 482.421 472.021 482.115 471.482C481.81 470.942 481.657 470.326 481.657 469.633C481.657 468.944 481.814 468.319 482.126 467.758C482.442 467.197 482.882 466.753 483.447 466.426C484.015 466.096 484.681 465.935 485.445 465.942ZM485.45 467.327C485.034 467.327 484.66 467.43 484.326 467.636C483.996 467.838 483.735 468.113 483.543 468.461C483.351 468.806 483.255 469.189 483.255 469.612C483.255 470.034 483.348 470.418 483.532 470.762C483.721 471.103 483.976 471.375 484.299 471.577C484.626 471.776 484.999 471.876 485.418 471.876C485.73 471.876 486.022 471.815 486.292 471.695C486.561 471.574 486.798 471.407 487 471.194C487.202 470.977 487.36 470.732 487.474 470.459C487.588 470.185 487.645 469.898 487.645 469.596C487.645 469.195 487.549 468.822 487.357 468.477C487.169 468.133 486.909 467.856 486.579 467.646C486.249 467.433 485.873 467.327 485.45 467.327Z" fill="#7D7D7D"/>
<line x1="608.5" y1="447" x2="608.5" y2="46" stroke="#F1F1F1"/>
<path d="M594.618 477V475.807L598.309 471.982C598.703 471.567 599.028 471.203 599.284 470.89C599.543 470.574 599.736 470.274 599.864 469.99C599.992 469.706 600.056 469.404 600.056 469.085C600.056 468.722 599.971 468.41 599.8 468.147C599.63 467.881 599.397 467.676 599.103 467.534C598.808 467.389 598.476 467.316 598.107 467.316C597.716 467.316 597.375 467.396 597.084 467.556C596.793 467.716 596.569 467.941 596.413 468.232C596.256 468.523 596.178 468.864 596.178 469.255H594.607C594.607 468.591 594.76 468.01 595.065 467.513C595.37 467.016 595.789 466.631 596.322 466.357C596.855 466.08 597.46 465.942 598.138 465.942C598.824 465.942 599.428 466.078 599.95 466.352C600.475 466.622 600.885 466.991 601.18 467.46C601.475 467.925 601.622 468.451 601.622 469.037C601.622 469.441 601.546 469.837 601.393 470.224C601.244 470.612 600.983 471.043 600.61 471.519C600.237 471.991 599.719 472.565 599.055 473.239L596.887 475.509V475.588H601.798V477H594.618ZM607.315 477.181C606.473 477.178 605.754 476.956 605.157 476.515C604.561 476.075 604.104 475.434 603.788 474.592C603.472 473.751 603.314 472.737 603.314 471.551C603.314 470.368 603.472 469.358 603.788 468.52C604.108 467.682 604.566 467.043 605.163 466.602C605.763 466.162 606.48 465.942 607.315 465.942C608.149 465.942 608.865 466.164 609.461 466.608C610.058 467.048 610.514 467.687 610.83 468.525C611.15 469.36 611.31 470.368 611.31 471.551C611.31 472.74 611.152 473.756 610.836 474.598C610.52 475.436 610.063 476.077 609.467 476.521C608.87 476.961 608.153 477.181 607.315 477.181ZM607.315 475.759C608.053 475.759 608.63 475.398 609.046 474.678C609.465 473.957 609.674 472.914 609.674 471.551C609.674 470.645 609.579 469.88 609.387 469.255C609.199 468.626 608.927 468.151 608.572 467.827C608.22 467.501 607.801 467.337 607.315 467.337C606.58 467.337 606.003 467.7 605.584 468.424C605.164 469.148 604.953 470.191 604.95 471.551C604.95 472.46 605.044 473.229 605.232 473.857C605.424 474.482 605.695 474.956 606.047 475.279C606.398 475.599 606.821 475.759 607.315 475.759ZM612.899 477V475.807L616.591 471.982C616.985 471.567 617.31 471.203 617.566 470.89C617.825 470.574 618.018 470.274 618.146 469.99C618.274 469.706 618.338 469.404 618.338 469.085C618.338 468.722 618.253 468.41 618.082 468.147C617.912 467.881 617.679 467.676 617.384 467.534C617.09 467.389 616.758 467.316 616.388 467.316C615.998 467.316 615.657 467.396 615.366 467.556C615.074 467.716 614.851 467.941 614.694 468.232C614.538 468.523 614.46 468.864 614.46 469.255H612.889C612.889 468.591 613.041 468.01 613.347 467.513C613.652 467.016 614.071 466.631 614.604 466.357C615.137 466.08 615.742 465.942 616.42 465.942C617.106 465.942 617.709 466.078 618.231 466.352C618.757 466.622 619.167 466.991 619.462 467.46C619.757 467.925 619.904 468.451 619.904 469.037C619.904 469.441 619.828 469.837 619.675 470.224C619.526 470.612 619.265 471.043 618.892 471.519C618.519 471.991 618.001 472.565 617.337 473.239L615.169 475.509V475.588H620.08V477H612.899ZM625.597 477.181C624.755 477.178 624.036 476.956 623.439 476.515C622.843 476.075 622.386 475.434 622.07 474.592C621.754 473.751 621.596 472.737 621.596 471.551C621.596 470.368 621.754 469.358 622.07 468.52C622.39 467.682 622.848 467.043 623.445 466.602C624.045 466.162 624.762 465.942 625.597 465.942C626.431 465.942 627.147 466.164 627.743 466.608C628.34 467.048 628.796 467.687 629.112 468.525C629.432 469.36 629.592 470.368 629.592 471.551C629.592 472.74 629.434 473.756 629.117 474.598C628.801 475.436 628.345 476.077 627.749 476.521C627.152 476.961 626.435 477.181 625.597 477.181ZM625.597 475.759C626.335 475.759 626.912 475.398 627.328 474.678C627.747 473.957 627.956 472.914 627.956 471.551C627.956 470.645 627.86 469.88 627.669 469.255C627.48 468.626 627.209 468.151 626.854 467.827C626.502 467.501 626.083 467.337 625.597 467.337C624.861 467.337 624.284 467.7 623.865 468.424C623.446 469.148 623.235 470.191 623.231 471.551C623.231 472.46 623.326 473.229 623.514 473.857C623.706 474.482 623.977 474.956 624.329 475.279C624.68 475.599 625.103 475.759 625.597 475.759Z" fill="#7D7D7D"/>
<line x1="747.5" y1="447" x2="747.5" y2="46" stroke="#F1F1F1"/>
<path d="M734.414 477V475.807L738.105 471.982C738.499 471.567 738.824 471.203 739.08 470.89C739.339 470.574 739.533 470.274 739.661 469.99C739.789 469.706 739.852 469.404 739.852 469.085C739.852 468.722 739.767 468.41 739.597 468.147C739.426 467.881 739.194 467.676 738.899 467.534C738.604 467.389 738.272 467.316 737.903 467.316C737.512 467.316 737.171 467.396 736.88 467.556C736.589 467.716 736.365 467.941 736.209 468.232C736.053 468.523 735.975 468.864 735.975 469.255H734.403C734.403 468.591 734.556 468.01 734.861 467.513C735.167 467.016 735.586 466.631 736.118 466.357C736.651 466.08 737.257 465.942 737.935 465.942C738.62 465.942 739.224 466.078 739.746 466.352C740.272 466.622 740.682 466.991 740.976 467.46C741.271 467.925 741.419 468.451 741.419 469.037C741.419 469.441 741.342 469.837 741.189 470.224C741.04 470.612 740.779 471.043 740.406 471.519C740.034 471.991 739.515 472.565 738.851 473.239L736.683 475.509V475.588H741.594V477H734.414ZM747.111 477.181C746.269 477.178 745.55 476.956 744.954 476.515C744.357 476.075 743.901 475.434 743.585 474.592C743.269 473.751 743.111 472.737 743.111 471.551C743.111 470.368 743.269 469.358 743.585 468.52C743.904 467.682 744.362 467.043 744.959 466.602C745.559 466.162 746.277 465.942 747.111 465.942C747.946 465.942 748.661 466.164 749.258 466.608C749.854 467.048 750.311 467.687 750.627 468.525C750.946 469.36 751.106 470.368 751.106 471.551C751.106 472.74 750.948 473.756 750.632 474.598C750.316 475.436 749.86 476.077 749.263 476.521C748.666 476.961 747.949 477.181 747.111 477.181ZM747.111 475.759C747.85 475.759 748.427 475.398 748.842 474.678C749.261 473.957 749.471 472.914 749.471 471.551C749.471 470.645 749.375 469.88 749.183 469.255C748.995 468.626 748.723 468.151 748.368 467.827C748.017 467.501 747.598 467.337 747.111 467.337C746.376 467.337 745.799 467.7 745.38 468.424C744.961 469.148 744.75 470.191 744.746 471.551C744.746 472.46 744.84 473.229 745.028 473.857C745.22 474.482 745.492 474.956 745.843 475.279C746.195 475.599 746.617 475.759 747.111 475.759ZM752.696 477V475.807L756.387 471.982C756.781 471.567 757.106 471.203 757.362 470.89C757.621 470.574 757.815 470.274 757.943 469.99C758.07 469.706 758.134 469.404 758.134 469.085C758.134 468.722 758.049 468.41 757.879 468.147C757.708 467.881 757.476 467.676 757.181 467.534C756.886 467.389 756.554 467.316 756.185 467.316C755.794 467.316 755.453 467.396 755.162 467.556C754.871 467.716 754.647 467.941 754.491 468.232C754.335 468.523 754.256 468.864 754.256 469.255H752.685C752.685 468.591 752.838 468.01 753.143 467.513C753.449 467.016 753.868 466.631 754.4 466.357C754.933 466.08 755.538 465.942 756.217 465.942C756.902 465.942 757.506 466.078 758.028 466.352C758.553 466.622 758.964 466.991 759.258 467.46C759.553 467.925 759.7 468.451 759.7 469.037C759.7 469.441 759.624 469.837 759.471 470.224C759.322 470.612 759.061 471.043 758.688 471.519C758.315 471.991 757.797 472.565 757.133 473.239L754.965 475.509V475.588H759.876V477H752.696ZM765.734 466.091V477H764.083V467.742H764.019L761.409 469.447V467.87L764.13 466.091H765.734Z" fill="#7D7D7D"/>
<line x1="1025.5" y1="447" x2="1025.5" y2="46" stroke="#F1F1F1"/>
<path d="M1012.62 477V475.807L1016.32 471.982C1016.71 471.567 1017.04 471.203 1017.29 470.89C1017.55 470.574 1017.74 470.274 1017.87 469.99C1018 469.706 1018.06 469.404 1018.06 469.085C1018.06 468.722 1017.98 468.41 1017.81 468.147C1017.64 467.881 1017.4 467.676 1017.11 467.534C1016.82 467.389 1016.48 467.316 1016.11 467.316C1015.72 467.316 1015.38 467.396 1015.09 467.556C1014.8 467.716 1014.58 467.941 1014.42 468.232C1014.26 468.523 1014.19 468.864 1014.19 469.255H1012.61C1012.61 468.591 1012.77 468.01 1013.07 467.513C1013.38 467.016 1013.8 466.631 1014.33 466.357C1014.86 466.08 1015.47 465.942 1016.15 465.942C1016.83 465.942 1017.43 466.078 1017.96 466.352C1018.48 466.622 1018.89 466.991 1019.19 467.46C1019.48 467.925 1019.63 468.451 1019.63 469.037C1019.63 469.441 1019.55 469.837 1019.4 470.224C1019.25 470.612 1018.99 471.043 1018.62 471.519C1018.24 471.991 1017.73 472.565 1017.06 473.239L1014.89 475.509V475.588H1019.81V477H1012.62ZM1025.32 477.181C1024.48 477.178 1023.76 476.956 1023.16 476.515C1022.57 476.075 1022.11 475.434 1021.8 474.592C1021.48 473.751 1021.32 472.737 1021.32 471.551C1021.32 470.368 1021.48 469.358 1021.8 468.52C1022.12 467.682 1022.57 467.043 1023.17 466.602C1023.77 466.162 1024.49 465.942 1025.32 465.942C1026.16 465.942 1026.87 466.164 1027.47 466.608C1028.07 467.048 1028.52 467.687 1028.84 468.525C1029.16 469.36 1029.32 470.368 1029.32 471.551C1029.32 472.74 1029.16 473.756 1028.84 474.598C1028.53 475.436 1028.07 476.077 1027.47 476.521C1026.88 476.961 1026.16 477.181 1025.32 477.181ZM1025.32 475.759C1026.06 475.759 1026.64 475.398 1027.05 474.678C1027.47 473.957 1027.68 472.914 1027.68 471.551C1027.68 470.645 1027.59 469.88 1027.39 469.255C1027.21 468.626 1026.93 468.151 1026.58 467.827C1026.23 467.501 1025.81 467.337 1025.32 467.337C1024.59 467.337 1024.01 467.7 1023.59 468.424C1023.17 469.148 1022.96 470.191 1022.96 471.551C1022.96 472.46 1023.05 473.229 1023.24 473.857C1023.43 474.482 1023.7 474.956 1024.05 475.279C1024.41 475.599 1024.83 475.759 1025.32 475.759ZM1030.91 477V475.807L1034.6 471.982C1034.99 471.567 1035.32 471.203 1035.57 470.89C1035.83 470.574 1036.03 470.274 1036.15 469.99C1036.28 469.706 1036.35 469.404 1036.35 469.085C1036.35 468.722 1036.26 468.41 1036.09 468.147C1035.92 467.881 1035.69 467.676 1035.39 467.534C1035.1 467.389 1034.76 467.316 1034.4 467.316C1034.01 467.316 1033.66 467.396 1033.37 467.556C1033.08 467.716 1032.86 467.941 1032.7 468.232C1032.55 468.523 1032.47 468.864 1032.47 469.255H1030.9C1030.9 468.591 1031.05 468.01 1031.35 467.513C1031.66 467.016 1032.08 466.631 1032.61 466.357C1033.14 466.08 1033.75 465.942 1034.43 465.942C1035.11 465.942 1035.72 466.078 1036.24 466.352C1036.76 466.622 1037.17 466.991 1037.47 467.46C1037.76 467.925 1037.91 468.451 1037.91 469.037C1037.91 469.441 1037.83 469.837 1037.68 470.224C1037.53 470.612 1037.27 471.043 1036.9 471.519C1036.53 471.991 1036.01 472.565 1035.34 473.239L1033.18 475.509V475.588H1038.09V477H1030.91ZM1043.6 477.149C1042.87 477.149 1042.22 477.023 1041.64 476.771C1041.07 476.519 1040.62 476.169 1040.29 475.722C1039.96 475.271 1039.78 474.749 1039.75 474.156H1041.43C1041.45 474.479 1041.55 474.759 1041.75 474.997C1041.95 475.232 1042.21 475.413 1042.53 475.54C1042.85 475.668 1043.2 475.732 1043.59 475.732C1044.02 475.732 1044.4 475.658 1044.73 475.509C1045.07 475.359 1045.33 475.152 1045.52 474.885C1045.7 474.615 1045.8 474.305 1045.8 473.953C1045.8 473.587 1045.7 473.266 1045.52 472.989C1045.33 472.708 1045.06 472.488 1044.7 472.328C1044.35 472.169 1043.92 472.089 1043.41 472.089H1042.49V470.746H1043.41C1043.82 470.746 1044.17 470.674 1044.48 470.528C1044.79 470.382 1045.03 470.18 1045.2 469.921C1045.38 469.658 1045.46 469.351 1045.46 468.999C1045.46 468.662 1045.39 468.369 1045.23 468.12C1045.08 467.868 1044.87 467.671 1044.59 467.529C1044.32 467.387 1044 467.316 1043.63 467.316C1043.27 467.316 1042.94 467.382 1042.63 467.513C1042.32 467.641 1042.08 467.826 1041.88 468.067C1041.69 468.305 1041.59 468.591 1041.57 468.925H1039.98C1040 468.335 1040.17 467.817 1040.5 467.369C1040.84 466.922 1041.28 466.572 1041.82 466.32C1042.37 466.068 1042.98 465.942 1043.65 465.942C1044.35 465.942 1044.95 466.078 1045.46 466.352C1045.97 466.622 1046.36 466.982 1046.64 467.433C1046.92 467.884 1047.06 468.378 1047.06 468.914C1047.06 469.525 1046.89 470.043 1046.54 470.469C1046.2 470.896 1045.75 471.181 1045.18 471.327V471.412C1045.9 471.522 1046.47 471.81 1046.86 472.275C1047.27 472.74 1047.46 473.317 1047.46 474.006C1047.46 474.607 1047.3 475.145 1046.96 475.62C1046.63 476.096 1046.17 476.471 1045.59 476.744C1045.01 477.014 1044.35 477.149 1043.6 477.149Z" fill="#7D7D7D"/>
<line x1="886.5" y1="447" x2="886.5" y2="46" stroke="#F1F1F1"/>
<path d="M872.859 477V475.807L876.551 471.982C876.945 471.567 877.27 471.203 877.525 470.89C877.785 470.574 877.978 470.274 878.106 469.99C878.234 469.706 878.298 469.404 878.298 469.085C878.298 468.722 878.213 468.41 878.042 468.147C877.872 467.881 877.639 467.676 877.344 467.534C877.05 467.389 876.718 467.316 876.348 467.316C875.958 467.316 875.617 467.396 875.325 467.556C875.034 467.716 874.811 467.941 874.654 468.232C874.498 468.523 874.42 468.864 874.42 469.255H872.849C872.849 468.591 873.001 468.01 873.307 467.513C873.612 467.016 874.031 466.631 874.564 466.357C875.096 466.08 875.702 465.942 876.38 465.942C877.066 465.942 877.669 466.078 878.191 466.352C878.717 466.622 879.127 466.991 879.422 467.46C879.716 467.925 879.864 468.451 879.864 469.037C879.864 469.441 879.787 469.837 879.635 470.224C879.486 470.612 879.225 471.043 878.852 471.519C878.479 471.991 877.96 472.565 877.296 473.239L875.128 475.509V475.588H880.04V477H872.859ZM885.556 477.181C884.715 477.178 883.996 476.956 883.399 476.515C882.802 476.075 882.346 475.434 882.03 474.592C881.714 473.751 881.556 472.737 881.556 471.551C881.556 470.368 881.714 469.358 882.03 468.52C882.35 467.682 882.808 467.043 883.404 466.602C884.005 466.162 884.722 465.942 885.556 465.942C886.391 465.942 887.106 466.164 887.703 466.608C888.3 467.048 888.756 467.687 889.072 468.525C889.392 469.36 889.551 470.368 889.551 471.551C889.551 472.74 889.393 473.756 889.077 474.598C888.761 475.436 888.305 476.077 887.708 476.521C887.112 476.961 886.394 477.181 885.556 477.181ZM885.556 475.759C886.295 475.759 886.872 475.398 887.288 474.678C887.707 473.957 887.916 472.914 887.916 471.551C887.916 470.645 887.82 469.88 887.628 469.255C887.44 468.626 887.169 468.151 886.813 467.827C886.462 467.501 886.043 467.337 885.556 467.337C884.821 467.337 884.244 467.7 883.825 468.424C883.406 469.148 883.195 470.191 883.191 471.551C883.191 472.46 883.285 473.229 883.474 473.857C883.665 474.482 883.937 474.956 884.289 475.279C884.64 475.599 885.063 475.759 885.556 475.759ZM891.141 477V475.807L894.832 471.982C895.227 471.567 895.552 471.203 895.807 470.89C896.066 470.574 896.26 470.274 896.388 469.99C896.516 469.706 896.58 469.404 896.58 469.085C896.58 468.722 896.494 468.41 896.324 468.147C896.153 467.881 895.921 467.676 895.626 467.534C895.331 467.389 894.999 467.316 894.63 467.316C894.239 467.316 893.899 467.396 893.607 467.556C893.316 467.716 893.092 467.941 892.936 468.232C892.78 468.523 892.702 468.864 892.702 469.255H891.13C891.13 468.591 891.283 468.01 891.589 467.513C891.894 467.016 892.313 466.631 892.846 466.357C893.378 466.08 893.984 465.942 894.662 465.942C895.347 465.942 895.951 466.078 896.473 466.352C896.999 466.622 897.409 466.991 897.704 467.46C897.998 467.925 898.146 468.451 898.146 469.037C898.146 469.441 898.069 469.837 897.917 470.224C897.767 470.612 897.506 471.043 897.134 471.519C896.761 471.991 896.242 472.565 895.578 473.239L893.41 475.509V475.588H898.321V477H891.141ZM900.04 477V475.807L903.732 471.982C904.126 471.567 904.451 471.203 904.706 470.89C904.966 470.574 905.159 470.274 905.287 469.99C905.415 469.706 905.479 469.404 905.479 469.085C905.479 468.722 905.394 468.41 905.223 468.147C905.053 467.881 904.82 467.676 904.525 467.534C904.231 467.389 903.899 467.316 903.529 467.316C903.139 467.316 902.798 467.396 902.507 467.556C902.215 467.716 901.992 467.941 901.835 468.232C901.679 468.523 901.601 468.864 901.601 469.255H900.03C900.03 468.591 900.182 468.01 900.488 467.513C900.793 467.016 901.212 466.631 901.745 466.357C902.277 466.08 902.883 465.942 903.561 465.942C904.247 465.942 904.85 466.078 905.372 466.352C905.898 466.622 906.308 466.991 906.603 467.46C906.898 467.925 907.045 468.451 907.045 469.037C907.045 469.441 906.969 469.837 906.816 470.224C906.667 470.612 906.406 471.043 906.033 471.519C905.66 471.991 905.141 472.565 904.477 473.239L902.309 475.509V475.588H907.221V477H900.04Z" fill="#7D7D7D"/>
<path d="M5.18821 42.0909V53H3.53693V43.7422H3.47301L0.862926 45.4467V43.87L3.58487 42.0909H5.18821ZM11.6371 53.1811C10.7955 53.1776 10.0764 52.9556 9.47983 52.5153C8.88324 52.0749 8.42692 51.4339 8.11087 50.5923C7.79482 49.7507 7.63679 48.7369 7.63679 47.5508C7.63679 46.3683 7.79482 45.358 8.11087 44.5199C8.43047 43.6818 8.88857 43.0426 9.48516 42.6023C10.0853 42.1619 10.8026 41.9418 11.6371 41.9418C12.4717 41.9418 13.1872 42.1637 13.7838 42.6076C14.3804 43.0479 14.8367 43.6871 15.1528 44.5252C15.4724 45.3597 15.6322 46.3683 15.6322 47.5508C15.6322 48.7404 15.4741 49.756 15.1581 50.5977C14.842 51.4357 14.3857 52.0767 13.7891 52.5206C13.1925 52.9609 12.4752 53.1811 11.6371 53.1811ZM11.6371 51.7589C12.3758 51.7589 12.9528 51.3984 13.3683 50.6776C13.7874 49.9567 13.9969 48.9144 13.9969 47.5508C13.9969 46.6452 13.901 45.88 13.7092 45.255C13.521 44.6264 13.2494 44.1506 12.8942 43.8274C12.5427 43.5007 12.1237 43.3374 11.6371 43.3374C10.9021 43.3374 10.325 43.6996 9.90597 44.424C9.48693 45.1484 9.27564 46.1907 9.27209 47.5508C9.27209 48.4599 9.36619 49.2287 9.5544 49.8572C9.74616 50.4822 10.0178 50.9563 10.3694 51.2795C10.721 51.5991 11.1435 51.7589 11.6371 51.7589ZM21.0198 53.1811C20.1781 53.1776 19.459 52.9556 18.8624 52.5153C18.2659 52.0749 17.8095 51.4339 17.4935 50.5923C17.1774 49.7507 17.0194 48.7369 17.0194 47.5508C17.0194 46.3683 17.1774 45.358 17.4935 44.5199C17.8131 43.6818 18.2712 43.0426 18.8678 42.6023C19.4679 42.1619 20.1852 41.9418 21.0198 41.9418C21.8543 41.9418 22.5698 42.1637 23.1664 42.6076C23.763 43.0479 24.2193 43.6871 24.5354 44.5252C24.855 45.3597 25.0148 46.3683 25.0148 47.5508C25.0148 48.7404 24.8568 49.756 24.5407 50.5977C24.2247 51.4357 23.7683 52.0767 23.1718 52.5206C22.5752 52.9609 21.8578 53.1811 21.0198 53.1811ZM21.0198 51.7589C21.7584 51.7589 22.3355 51.3984 22.7509 50.6776C23.17 49.9567 23.3795 48.9144 23.3795 47.5508C23.3795 46.6452 23.2836 45.88 23.0918 45.255C22.9036 44.6264 22.632 44.1506 22.2769 43.8274C21.9253 43.5007 21.5063 43.3374 21.0198 43.3374C20.2847 43.3374 19.7076 43.6996 19.2886 44.424C18.8695 45.1484 18.6583 46.1907 18.6547 47.5508C18.6547 48.4599 18.7488 49.2287 18.937 49.8572C19.1288 50.4822 19.4004 50.9563 19.752 51.2795C20.1036 51.5991 20.5262 51.7589 21.0198 51.7589ZM28.0906 50.2248L28.0799 48.2805H28.3569L31.6169 44.8182H33.5238L29.8058 48.7599H29.5554L28.0906 50.2248ZM26.6257 53V42.0909H28.2184V53H26.6257ZM31.7926 53L28.863 49.1115L29.9603 47.9982L33.7476 53H31.7926Z" fill="#7D7D7D"/>
<path d="M55 46H1022" stroke="#F1F1F1"/>
<path d="M4.65021 153.899C3.9826 153.899 3.38246 153.771 2.84979 153.516C2.32067 153.256 1.89808 152.901 1.58203 152.45C1.26598 151.999 1.0973 151.484 1.07599 150.906H2.67401C2.71307 151.374 2.92081 151.76 3.29723 152.061C3.67365 152.363 4.12465 152.514 4.65021 152.514C5.06925 152.514 5.44034 152.418 5.76349 152.227C6.0902 152.031 6.34588 151.763 6.53054 151.422C6.71875 151.081 6.81286 150.692 6.81286 150.256C6.81286 149.812 6.71697 149.416 6.52521 149.068C6.33345 148.72 6.06889 148.446 5.73153 148.248C5.39773 148.049 5.0142 147.947 4.58097 147.944C4.25071 147.944 3.91868 148.001 3.58487 148.114C3.25107 148.228 2.98118 148.377 2.77521 148.562L1.26776 148.338L1.88033 142.841H7.8782V144.252H3.24929L2.90305 147.305H2.96697C3.18004 147.099 3.46236 146.926 3.81392 146.788C4.16903 146.65 4.54901 146.58 4.95384 146.58C5.6179 146.58 6.20916 146.738 6.72763 147.054C7.24965 147.37 7.6598 147.802 7.9581 148.349C8.25994 148.892 8.40909 149.517 8.40554 150.224C8.40909 150.93 8.24929 151.561 7.92614 152.115C7.60653 152.669 7.16264 153.105 6.59446 153.425C6.02983 153.741 5.38175 153.899 4.65021 153.899ZM13.8491 153.931C13.0074 153.928 12.2883 153.706 11.6917 153.265C11.0952 152.825 10.6388 152.184 10.3228 151.342C10.0067 150.501 9.8487 149.487 9.8487 148.301C9.8487 147.118 10.0067 146.108 10.3228 145.27C10.6424 144.432 11.1005 143.793 11.6971 143.352C12.2972 142.912 13.0145 142.692 13.8491 142.692C14.6836 142.692 15.3991 142.914 15.9957 143.358C16.5923 143.798 17.0486 144.437 17.3647 145.275C17.6843 146.11 17.8441 147.118 17.8441 148.301C17.8441 149.49 17.6861 150.506 17.37 151.348C17.054 152.186 16.5976 152.827 16.001 153.271C15.4045 153.711 14.6871 153.931 13.8491 153.931ZM13.8491 152.509C14.5877 152.509 15.1648 152.148 15.5802 151.428C15.9993 150.707 16.2088 149.664 16.2088 148.301C16.2088 147.395 16.1129 146.63 15.9211 146.005C15.7329 145.376 15.4613 144.901 15.1062 144.577C14.7546 144.251 14.3356 144.087 13.8491 144.087C13.114 144.087 12.5369 144.45 12.1179 145.174C11.6988 145.898 11.4876 146.941 11.484 148.301C11.484 149.21 11.5781 149.979 11.7663 150.607C11.9581 151.232 12.2297 151.706 12.5813 152.029C12.9329 152.349 13.3555 152.509 13.8491 152.509ZM20.9199 150.975L20.9092 149.031H21.1862L24.4462 145.568H26.3531L22.6351 149.51H22.3847L20.9199 150.975ZM19.455 153.75V142.841H21.0477V153.75H19.455ZM24.6219 153.75L21.6923 149.862L22.7896 148.748L26.5768 153.75H24.6219Z" fill="#7D7D7D"/>
<path d="M55 147H1025" stroke="#F1F1F1"/>
<path d="M1.04936 254.5V253.307L4.74077 249.482C5.13494 249.067 5.45987 248.703 5.71555 248.39C5.97479 248.074 6.16832 247.774 6.29617 247.49C6.42401 247.206 6.48793 246.904 6.48793 246.585C6.48793 246.222 6.4027 245.91 6.23224 245.647C6.06179 245.381 5.82919 245.176 5.53445 245.034C5.2397 244.889 4.90767 244.816 4.53835 244.816C4.14773 244.816 3.80682 244.896 3.51562 245.056C3.22443 245.216 3.00071 245.441 2.84446 245.732C2.68821 246.023 2.61009 246.364 2.61009 246.755H1.03871C1.03871 246.091 1.19141 245.51 1.4968 245.013C1.8022 244.516 2.22124 244.131 2.75391 243.857C3.28658 243.58 3.89205 243.442 4.57031 243.442C5.25568 243.442 5.85938 243.578 6.38139 243.852C6.90696 244.122 7.31712 244.491 7.61186 244.96C7.90661 245.425 8.05398 245.951 8.05398 246.537C8.05398 246.941 7.97763 247.337 7.82493 247.724C7.67578 248.112 7.41477 248.543 7.0419 249.019C6.66903 249.491 6.15057 250.065 5.48651 250.739L3.31854 253.009V253.088H8.22976V254.5H1.04936ZM13.7465 254.681C12.9049 254.678 12.1858 254.456 11.5892 254.015C10.9926 253.575 10.5363 252.934 10.2202 252.092C9.90419 251.251 9.74616 250.237 9.74616 249.051C9.74616 247.868 9.90419 246.858 10.2202 246.02C10.5398 245.182 10.9979 244.543 11.5945 244.102C12.1947 243.662 12.912 243.442 13.7465 243.442C14.581 243.442 15.2966 243.664 15.8932 244.108C16.4898 244.548 16.9461 245.187 17.2621 246.025C17.5817 246.86 17.7415 247.868 17.7415 249.051C17.7415 250.24 17.5835 251.256 17.2675 252.098C16.9514 252.936 16.4951 253.577 15.8985 254.021C15.3019 254.461 14.5846 254.681 13.7465 254.681ZM13.7465 253.259C14.4852 253.259 15.0622 252.898 15.4777 252.178C15.8967 251.457 16.1062 250.414 16.1062 249.051C16.1062 248.145 16.0104 247.38 15.8186 246.755C15.6304 246.126 15.3587 245.651 15.0036 245.327C14.6521 245.001 14.233 244.837 13.7465 244.837C13.0114 244.837 12.4344 245.2 12.0153 245.924C11.5963 246.648 11.385 247.691 11.3815 249.051C11.3815 249.96 11.4756 250.729 11.6638 251.357C11.8555 251.982 12.1272 252.456 12.4788 252.779C12.8303 253.099 13.2529 253.259 13.7465 253.259ZM20.8173 251.725L20.8067 249.781H21.0837L24.3436 246.318H26.2506L22.5325 250.26H22.2822L20.8173 251.725ZM19.3525 254.5V243.591H20.9452V254.5H19.3525ZM24.5194 254.5L21.5897 250.612L22.687 249.498L26.4743 254.5H24.5194Z" fill="#7D7D7D"/>
<path d="M55 248H1025" stroke="#F1F1F1"/>
<path d="M5.18821 344.341V355.25H3.53693V345.992H3.47301L0.862926 347.697V346.12L3.58487 344.341H5.18821ZM11.6371 355.431C10.7955 355.428 10.0764 355.206 9.47983 354.765C8.88324 354.325 8.42692 353.684 8.11087 352.842C7.79482 352.001 7.63679 350.987 7.63679 349.801C7.63679 348.618 7.79482 347.608 8.11087 346.77C8.43047 345.932 8.88857 345.293 9.48516 344.852C10.0853 344.412 10.8026 344.192 11.6371 344.192C12.4717 344.192 13.1872 344.414 13.7838 344.858C14.3804 345.298 14.8367 345.937 15.1528 346.775C15.4724 347.61 15.6322 348.618 15.6322 349.801C15.6322 350.99 15.4741 352.006 15.1581 352.848C14.842 353.686 14.3857 354.327 13.7891 354.771C13.1925 355.211 12.4752 355.431 11.6371 355.431ZM11.6371 354.009C12.3758 354.009 12.9528 353.648 13.3683 352.928C13.7874 352.207 13.9969 351.164 13.9969 349.801C13.9969 348.895 13.901 348.13 13.7092 347.505C13.521 346.876 13.2494 346.401 12.8942 346.077C12.5427 345.751 12.1237 345.587 11.6371 345.587C10.9021 345.587 10.325 345.95 9.90597 346.674C9.48693 347.398 9.27564 348.441 9.27209 349.801C9.27209 350.71 9.36619 351.479 9.5544 352.107C9.74616 352.732 10.0178 353.206 10.3694 353.529C10.721 353.849 11.1435 354.009 11.6371 354.009ZM18.708 352.475L18.6973 350.531H18.9743L22.2343 347.068H24.1412L20.4232 351.01H20.1728L18.708 352.475ZM17.2431 355.25V344.341H18.8358V355.25H17.2431ZM22.41 355.25L19.4803 351.362L20.5776 350.248L24.3649 355.25H22.41Z" fill="#7D7D7D"/>
<path d="M55 349H1026" stroke="#F1F1F1"/>
<path d="M4.8473 456.181C4.00568 456.178 3.28658 455.956 2.68999 455.515C2.09339 455.075 1.63707 454.434 1.32102 453.592C1.00497 452.751 0.846946 451.737 0.846946 450.551C0.846946 449.368 1.00497 448.358 1.32102 447.52C1.64063 446.682 2.09872 446.043 2.69531 445.602C3.29545 445.162 4.01278 444.942 4.8473 444.942C5.68182 444.942 6.39737 445.164 6.99396 445.608C7.59055 446.048 8.04688 446.687 8.36293 447.525C8.68253 448.36 8.84233 449.368 8.84233 450.551C8.84233 451.74 8.6843 452.756 8.36825 453.598C8.0522 454.436 7.59588 455.077 6.99929 455.521C6.4027 455.961 5.68537 456.181 4.8473 456.181ZM4.8473 454.759C5.58594 454.759 6.163 454.398 6.57848 453.678C6.99751 452.957 7.20703 451.914 7.20703 450.551C7.20703 449.645 7.11115 448.88 6.91939 448.255C6.73118 447.626 6.45952 447.151 6.1044 446.827C5.75284 446.501 5.33381 446.337 4.8473 446.337C4.11222 446.337 3.53516 446.7 3.11612 447.424C2.69709 448.148 2.4858 449.191 2.48224 450.551C2.48224 451.46 2.57635 452.229 2.76456 452.857C2.95632 453.482 3.22798 453.956 3.57955 454.279C3.93111 454.599 4.35369 454.759 4.8473 454.759Z" fill="#7D7D7D"/>
<mask id="mask0_80_156" style="mask-type:alpha" maskUnits="userSpaceOnUse" x="55" y="112" width="971" height="337">
<rect x="55" y="112" width="971" height="337" fill="#D9D9D9"/>
</mask>
<g mask="url(#mask0_80_156)">
<path d="M329.5 341.906L192.5 359L53.0264 398.4V448.771L1026.99 450V139L886 213.5L749 254.5L608 186.5L468 280L329.5 341.906Z" fill="url(#paint0_linear_80_156)" stroke="#25CD25" stroke-dasharray="2 2"/>
</g>
<defs>
<linearGradient id="paint0_linear_80_156" x1="540.007" y1="149" x2="540.007" y2="448.771" gradientUnits="userSpaceOnUse">
<stop stop-color="#7848F4"/>
<stop offset="1" stop-color="#FFE7B1"/>
</linearGradient>
</defs>
</svg>
