<svg width="25" height="27" viewBox="0 0 25 27" fill="none" xmlns="http://www.w3.org/2000/svg">
<path d="M16.7975 21.1263C19.5997 20.7954 22.3529 20.1357 25 19.161C22.7582 16.6838 21.5194 13.4639 21.5244 10.1266V9.07642V9.00141C21.5244 6.61409 20.5737 4.32454 18.8814 2.63645C17.1892 0.94836 14.894 0 12.5008 0C10.1075 0 7.81233 0.94836 6.12007 2.63645C4.42781 4.32454 3.47711 6.61409 3.47711 9.00141V10.1266C3.48165 13.4641 2.24236 16.684 0 19.161C2.60633 20.1212 5.35403 20.7888 8.20399 21.1263M16.7975 21.1263C13.943 21.4641 11.0585 21.4641 8.20399 21.1263M16.7975 21.1263C17.0142 21.8012 17.0681 22.5176 16.9548 23.2172C16.8415 23.9168 16.5641 24.5798 16.1454 25.1523C15.7266 25.7248 15.1782 26.1905 14.5449 26.5116C13.9116 26.8326 13.2112 27 12.5008 27C11.7903 27 11.0899 26.8326 10.4566 26.5116C9.82328 26.1905 9.27491 25.7248 8.85613 25.1523C8.43736 24.5798 8.16002 23.9168 8.0467 23.2172C7.93338 22.5176 7.98727 21.8012 8.20399 21.1263" stroke="black" stroke-width="2.2" stroke-linecap="round" stroke-linejoin="round"/>
</svg>
