<svg width="37" height="35" viewBox="0 0 37 35" fill="none" xmlns="http://www.w3.org/2000/svg">
<path fill-rule="evenodd" clip-rule="evenodd" d="M14.0765 5.45836C11.8845 5.32514 9.71793 5.97454 7.98363 7.28459C6.24932 8.59464 5.06663 10.4752 4.65768 12.5731C4.24872 14.671 4.64164 16.8419 5.76264 18.6781C5.92052 18.9367 5.96191 19.247 5.8771 19.5362L5.01816 22.4649L8.03048 21.6298C8.32794 21.5474 8.6472 21.5876 8.91318 21.7411C10.8018 22.831 13.0347 23.213 15.1926 22.8154C17.3504 22.4178 19.2847 21.2679 20.6322 19.5818C21.9797 17.8957 22.6476 15.7893 22.5106 13.6582C22.3736 11.5271 21.441 9.51795 19.888 8.00811C18.335 6.49826 16.2685 5.59159 14.0765 5.45836ZM6.60317 5.55719C8.77037 3.92014 11.4778 3.10865 14.2169 3.27512C16.956 3.4416 19.5384 4.57459 21.479 6.46131C23.4196 8.34803 24.585 10.8587 24.7562 13.5217C24.9274 16.1847 24.0928 18.8169 22.4089 20.9239C20.7251 23.0309 18.308 24.4678 15.6115 24.9646C13.0775 25.4315 10.4606 25.0381 8.19584 23.8587L5.14589 24.7042L5.1419 24.7053C4.80527 24.7973 4.4495 24.8005 4.11117 24.7145C3.77284 24.6285 3.46418 24.4565 3.21692 24.2161C2.96966 23.9757 2.79271 23.6756 2.70428 23.3467C2.61585 23.0178 2.61913 22.6719 2.71377 22.3446L2.7149 22.3407L3.58456 19.3755C2.37147 17.1736 1.96678 14.6294 2.44703 12.1658C2.95806 9.54423 4.43596 7.19425 6.60317 5.55719Z" fill="black"/>
<path fill-rule="evenodd" clip-rule="evenodd" d="M24.877 10.8938C24.9096 10.2906 25.439 9.82725 26.0595 9.85892C27.9922 9.95757 29.866 10.5399 31.4992 11.5495C33.1324 12.5592 34.4697 13.9618 35.3815 15.6216C36.2932 17.2813 36.7485 19.1419 36.7033 21.0231C36.6619 22.7433 36.2033 24.4273 35.3677 25.9389L36.2382 28.9071C36.3328 29.2344 36.3361 29.5803 36.2477 29.9092C36.1593 30.2381 35.9823 30.5382 35.735 30.7786C35.4878 31.019 35.1791 31.191 34.8408 31.277C34.5025 31.363 34.1467 31.3598 33.8101 31.2678L33.8061 31.2667L30.7566 30.4213C29.4389 31.1086 27.9918 31.5341 26.4997 31.6709C24.843 31.8228 23.1722 31.615 21.6081 31.0626C20.0441 30.5102 18.6257 29.6269 17.4556 28.4765C16.2855 27.3262 15.3928 25.9375 14.842 24.4108C14.6364 23.8408 14.945 23.2166 15.5313 23.0167C16.1176 22.8168 16.7596 23.1168 16.9652 23.6868C17.4057 24.9078 18.1196 26.0184 19.0554 26.9384C19.9912 27.8584 21.1256 28.5648 22.3764 29.0066C23.6273 29.4484 24.9635 29.6145 26.2884 29.493C27.6134 29.3716 28.8941 28.9655 30.0379 28.3041L30.613 29.2441L30.9215 28.1923L33.9338 29.0274L33.0749 26.0987C32.9899 25.809 33.0316 25.4979 33.1903 25.239C33.9825 23.9462 34.4177 22.4764 34.4539 20.9719C34.4901 19.4675 34.126 17.9795 33.3968 16.6521C32.6676 15.3247 31.5981 14.2029 30.2919 13.3955C28.9858 12.588 27.4872 12.1223 25.9415 12.0434C25.3211 12.0117 24.8445 11.4971 24.877 10.8938Z" fill="black"/>
</svg>
