<svg width="29" height="31" viewBox="0 0 29 31" fill="none" xmlns="http://www.w3.org/2000/svg">
<path d="M18.7975 23.1263C21.5997 22.7954 24.3529 22.1357 27 21.161C24.7582 18.6838 23.5194 15.4639 23.5244 12.1266V11.0764V11.0014C23.5244 8.61409 22.5737 6.32454 20.8814 4.63645C19.1892 2.94836 16.894 2 14.5008 2C12.1075 2 9.81233 2.94836 8.12007 4.63645C6.42781 6.32454 5.47711 8.61409 5.47711 11.0014V12.1266C5.48165 15.4641 4.24236 18.684 2 21.161C4.60633 22.1212 7.35403 22.7888 10.204 23.1263M18.7975 23.1263C15.943 23.4641 13.0585 23.4641 10.204 23.1263M18.7975 23.1263C19.0142 23.8012 19.0681 24.5176 18.9548 25.2172C18.8415 25.9168 18.5641 26.5798 18.1454 27.1523C17.7266 27.7248 17.1782 28.1905 16.5449 28.5116C15.9116 28.8326 15.2112 29 14.5008 29C13.7903 29 13.0899 28.8326 12.4566 28.5116C11.8233 28.1905 11.2749 27.7248 10.8561 27.1523C10.4374 26.5798 10.16 25.9168 10.0467 25.2172C9.93338 24.5176 9.98727 23.8012 10.204 23.1263" stroke="black" stroke-width="2.2" stroke-linecap="round" stroke-linejoin="round"/>
</svg>
