<svg width="26" height="27" viewBox="0 0 26 27" fill="none" xmlns="http://www.w3.org/2000/svg">
<path fill-rule="evenodd" clip-rule="evenodd" d="M12.6154 0.0769231C12.8616 -0.025641 13.1385 -0.025641 13.3847 0.0769231L25.3847 5.07692C25.8023 5.25094 26.0511 5.68369 25.9913 6.13216L23.9913 21.1322C23.9475 21.4607 23.7437 21.7462 23.4473 21.8944L13.4473 26.8944C13.1657 27.0352 12.8344 27.0352 12.5528 26.8944L2.55284 21.8944C2.25638 21.7462 2.05263 21.4607 2.00882 21.1322L0.00882231 6.13216C-0.0509741 5.68369 0.197796 5.25094 0.615435 5.07692L12.6154 0.0769231ZM2.09264 6.62809L3.92124 20.3426L13.0001 24.882L22.0789 20.3426L23.9075 6.62809L13.0001 2.08333L2.09264 6.62809Z" fill="black"/>
</svg>
