<svg width="36" height="35" viewBox="0 0 36 35" fill="none" xmlns="http://www.w3.org/2000/svg">
<path fill-rule="evenodd" clip-rule="evenodd" d="M14.0765 5.45836C11.8845 5.32514 9.71793 5.97454 7.98363 7.28459C6.24932 8.59464 5.06663 10.4752 4.65768 12.5731C4.24872 14.671 4.64164 16.8419 5.76264 18.6781C5.92052 18.9367 5.96191 19.247 5.8771 19.5362L5.01816 22.4649L8.03048 21.6298C8.32794 21.5474 8.6472 21.5876 8.91318 21.7411C10.8018 22.831 13.0347 23.213 15.1926 22.8154C17.3504 22.4178 19.2847 21.2679 20.6322 19.5818C21.9797 17.8957 22.6476 15.7893 22.5106 13.6582C22.3736 11.5271 21.441 9.51796 19.888 8.00811C18.335 6.49826 16.2685 5.59159 14.0765 5.45836ZM6.60317 5.5572C8.77037 3.92014 11.4778 3.10865 14.2169 3.27513C16.956 3.4416 19.5384 4.57459 21.479 6.46131C23.4196 8.34803 24.585 10.8587 24.7562 13.5217C24.9274 16.1847 24.0928 18.8169 22.4089 20.9239C20.7251 23.0309 18.308 24.4678 15.6115 24.9646C13.0775 25.4315 10.4606 25.0381 8.19584 23.8587L5.14589 24.7042L5.1419 24.7053C4.80527 24.7973 4.4495 24.8005 4.11117 24.7145C3.77284 24.6285 3.46418 24.4565 3.21692 24.2161C2.96966 23.9757 2.79271 23.6756 2.70428 23.3467C2.61585 23.0178 2.61913 22.6719 2.71377 22.3446L2.7149 22.3407L3.58456 19.3755C2.37147 17.1736 1.96678 14.6294 2.44703 12.1658C2.95806 9.54423 4.43596 7.19425 6.60317 5.5572Z" fill="black"/>
<path fill-rule="evenodd" clip-rule="evenodd" d="M24.8761 10.8938C24.9086 10.2906 25.438 9.82725 26.0585 9.85892C27.9913 9.95757 29.865 10.5399 31.4982 11.5495C33.1314 12.5592 34.4687 13.9618 35.3805 15.6216C36.2923 17.2813 36.7476 19.1419 36.7023 21.0231C36.661 22.7433 36.2023 24.4273 35.3667 25.9389L36.2372 28.9071C36.3319 29.2344 36.3351 29.5803 36.2467 29.9092C36.1583 30.2381 35.9813 30.5382 35.7341 30.7786C35.4868 31.019 35.1782 31.191 34.8398 31.277C34.5015 31.363 34.1457 31.3598 33.8091 31.2678L33.8051 31.2667L30.7556 30.4213C29.4379 31.1086 27.9908 31.5341 26.4987 31.6709C24.842 31.8228 23.1712 31.615 21.6072 31.0626C20.0431 30.5102 18.6248 29.6269 17.4546 28.4765C16.2845 27.3262 15.3918 25.9375 14.8411 24.4108C14.6354 23.8408 14.944 23.2166 15.5303 23.0167C16.1166 22.8168 16.7586 23.1168 16.9642 23.6868C17.4047 24.9078 18.1187 26.0184 19.0545 26.9384C19.9903 27.8584 21.1246 28.5648 22.3754 29.0066C23.6263 29.4484 24.9625 29.6145 26.2875 29.493C27.6124 29.3716 28.8931 28.9655 30.037 28.3041L30.612 29.2441L30.9205 28.1923L33.9328 29.0274L33.0739 26.0987C32.9889 25.809 33.0307 25.4979 33.1893 25.239C33.9815 23.9462 34.4168 22.4764 34.4529 20.9719C34.4891 19.4675 34.125 17.9795 33.3958 16.6521C32.6666 15.3247 31.5971 14.2029 30.291 13.3955C28.9848 12.588 27.4863 12.1223 25.9405 12.0434C25.3201 12.0117 24.8435 11.4971 24.8761 10.8938Z" fill="black"/>
</svg>
