<svg width="32" height="32" viewBox="0 0 32 32" fill="none" xmlns="http://www.w3.org/2000/svg">
<path d="M24 25.8077V23.8077C24 22.7468 23.5224 21.7294 22.6722 20.9793C21.8221 20.2291 20.669 19.8077 19.4667 19.8077H11.5333C10.331 19.8077 9.17795 20.2291 8.32778 20.9793C7.47762 21.7294 7 22.7468 7 23.8077V25.8077" stroke="white" stroke-width="2" stroke-linecap="round" stroke-linejoin="round"/>
<path d="M15.5 13.8077C17.9853 13.8077 20 12.0168 20 9.80768C20 7.59854 17.9853 5.80768 15.5 5.80768C13.0147 5.80768 11 7.59854 11 9.80768C11 12.0168 13.0147 13.8077 15.5 13.8077Z" stroke="white" stroke-width="2" stroke-linecap="round" stroke-linejoin="round"/>
<path d="M28 10.8077V16.8077" stroke="white" stroke-width="2" stroke-linecap="round" stroke-linejoin="round"/>
<path d="M31 13.8077H25" stroke="white" stroke-width="2" stroke-linecap="round" stroke-linejoin="round"/>
</svg>
