<svg width="32" height="32" viewBox="0 0 32 32" fill="none" xmlns="http://www.w3.org/2000/svg">
<path fill-rule="evenodd" clip-rule="evenodd" d="M5.64185 2.18531C6.04616 2.14469 6.45325 2.22818 6.80892 2.42468L6.81404 2.4275L27.922 14.25C27.9229 14.2505 27.9238 14.251 27.9247 14.2515C28.2361 14.4244 28.4957 14.6774 28.6766 14.9842C28.858 15.292 28.9537 15.6427 28.9537 16C28.9537 16.3572 28.858 16.708 28.6766 17.0157C28.4957 17.3226 28.2361 17.5756 27.9247 17.7485C27.9238 17.749 27.9229 17.7495 27.922 17.75L6.80893 29.5753C6.45325 29.7718 6.04616 29.8553 5.64185 29.8147C5.23754 29.774 4.8552 29.6112 4.54572 29.3479C4.23625 29.0846 4.01432 28.7332 3.9095 28.3406C3.80479 27.9485 3.82187 27.5338 3.95843 27.1517C3.95846 27.1516 3.9584 27.1518 3.95843 27.1517C3.95856 27.1513 3.95879 27.1507 3.95892 27.1503L7.93343 16.0017C7.93363 16.0011 7.93383 16.0006 7.93403 16C7.93383 15.9994 7.93363 15.9989 7.93343 15.9983L3.95892 4.84968C3.95883 4.84941 3.95902 4.84994 3.95892 4.84968C3.82217 4.46735 3.80474 4.05166 3.9095 3.65933C4.01432 3.26675 4.23625 2.9154 4.54572 2.65208C4.8552 2.38875 5.23754 2.22594 5.64185 2.18531ZM27.4379 15.125L26.9492 15.9975L5.8418 4.17529L5.84229 4.17668L9.81155 15.3106C9.9842 15.7539 9.9842 16.246 9.81155 16.6894L5.8418 27.8247L26.9492 16.0025L26.9537 16L27.4379 15.125Z" fill="#131315"/>
<path fill-rule="evenodd" clip-rule="evenodd" d="M8 16C8 15.4477 8.44772 15 9 15H17C17.5523 15 18 15.4477 18 16C18 16.5523 17.5523 17 17 17H9C8.44772 17 8 16.5523 8 16Z" fill="#131315"/>
</svg>
