<svg width="32" height="32" viewBox="0 0 32 32" fill="none" xmlns="http://www.w3.org/2000/svg">
<path fill-rule="evenodd" clip-rule="evenodd" d="M15.6154 3.07692C15.8616 2.97436 16.1385 2.97436 16.3847 3.07692L28.3847 8.07692C28.8023 8.25094 29.0511 8.68369 28.9913 9.13216L26.9913 24.1322C26.9475 24.4607 26.7437 24.7462 26.4473 24.8944L16.4473 29.8944C16.1657 30.0352 15.8344 30.0352 15.5528 29.8944L5.55284 24.8944C5.25638 24.7462 5.05263 24.4607 5.00882 24.1322L3.00882 9.13216C2.94903 8.68369 3.1978 8.25094 3.61543 8.07692L15.6154 3.07692ZM5.09264 9.62809L6.92124 23.3426L16.0001 27.882L25.0789 23.3426L26.9075 9.62809L16.0001 5.08333L5.09264 9.62809Z" fill="black"/>
<path d="M16.7734 10.3636L16.6598 18.7273H15.3416L15.228 10.3636H16.7734ZM16.0007 22.0909C15.7204 22.0909 15.4799 21.9905 15.2791 21.7898C15.0784 21.589 14.978 21.3485 14.978 21.0682C14.978 20.7879 15.0784 20.5473 15.2791 20.3466C15.4799 20.1458 15.7204 20.0455 16.0007 20.0455C16.281 20.0455 16.5215 20.1458 16.7223 20.3466C16.9231 20.5473 17.0234 20.7879 17.0234 21.0682C17.0234 21.2538 16.9761 21.4242 16.8814 21.5795C16.7905 21.7348 16.6674 21.8598 16.5121 21.9545C16.3606 22.0455 16.1901 22.0909 16.0007 22.0909Z" fill="black"/>
</svg>
