<svg width="32" height="32" viewBox="0 0 32 32" fill="none" xmlns="http://www.w3.org/2000/svg">
<circle cx="16" cy="16" r="15" stroke="black" stroke-width="2"/>
<path d="M15.2784 27.1818V5.36364H16.6761V27.1818H15.2784ZM18.9858 12.5653C18.9176 11.8778 18.625 11.3437 18.108 10.9631C17.5909 10.5824 16.8892 10.392 16.0028 10.392C15.4006 10.392 14.892 10.4773 14.4773 10.6477C14.0625 10.8125 13.7443 11.0426 13.5227 11.3381C13.3068 11.6335 13.1989 11.9688 13.1989 12.3438C13.1875 12.6562 13.2528 12.929 13.3949 13.1619C13.5426 13.3949 13.7443 13.5966 14 13.767C14.2557 13.9318 14.5511 14.0767 14.8864 14.2017C15.2216 14.321 15.5795 14.4233 15.9602 14.5085L17.5284 14.8835C18.2898 15.054 18.9886 15.2812 19.625 15.5653C20.2614 15.8494 20.8125 16.1989 21.2784 16.6136C21.7443 17.0284 22.1051 17.517 22.3608 18.0795C22.6222 18.642 22.7557 19.2869 22.7614 20.0142C22.7557 21.0824 22.483 22.0085 21.9432 22.7926C21.4091 23.571 20.6364 24.1761 19.625 24.608C18.6193 25.0341 17.4063 25.2472 15.9858 25.2472C14.5767 25.2472 13.3494 25.0312 12.304 24.5994C11.2642 24.1676 10.4517 23.5284 9.86648 22.6818C9.28693 21.8295 8.98295 20.7756 8.95455 19.5199H12.5256C12.5653 20.1051 12.733 20.5937 13.0284 20.9858C13.3295 21.3722 13.7301 21.6648 14.2301 21.8636C14.7358 22.0568 15.3068 22.1534 15.9432 22.1534C16.5682 22.1534 17.1108 22.0625 17.571 21.8807C18.0369 21.6989 18.3977 21.446 18.6534 21.1222C18.9091 20.7983 19.0369 20.4261 19.0369 20.0057C19.0369 19.6136 18.9205 19.2841 18.6875 19.017C18.4602 18.75 18.125 18.5227 17.6818 18.3352C17.2443 18.1477 16.7074 17.9773 16.071 17.8239L14.1705 17.3466C12.6989 16.9886 11.5369 16.429 10.6847 15.6676C9.83239 14.9062 9.40909 13.8807 9.41477 12.5909C9.40909 11.5341 9.69034 10.6108 10.2585 9.82102C10.8324 9.03125 11.6193 8.41477 12.6193 7.97159C13.6193 7.52841 14.7557 7.30682 16.0284 7.30682C17.3239 7.30682 18.4545 7.52841 19.4205 7.97159C20.392 8.41477 21.1477 9.03125 21.6875 9.82102C22.2273 10.6108 22.5057 11.5256 22.5227 12.5653H18.9858Z" fill="black"/>
</svg>
