<svg width="32" height="32" viewBox="0 0 32 32" fill="none" xmlns="http://www.w3.org/2000/svg">
<path fill-rule="evenodd" clip-rule="evenodd" d="M5 5.5C5 4.94772 5.44772 4.5 6 4.5H14C14.5523 4.5 15 4.94772 15 5.5V13.5C15 14.0523 14.5523 14.5 14 14.5H6C5.44772 14.5 5 14.0523 5 13.5V5.5ZM7 6.5V12.5H13V6.5H7Z" fill="#222222"/>
<path fill-rule="evenodd" clip-rule="evenodd" d="M17 5.5C17 4.94772 17.4477 4.5 18 4.5H26C26.5523 4.5 27 4.94772 27 5.5V13.5C27 14.0523 26.5523 14.5 26 14.5H18C17.4477 14.5 17 14.0523 17 13.5V5.5ZM19 6.5V12.5H25V6.5H19Z" fill="#222222"/>
<path fill-rule="evenodd" clip-rule="evenodd" d="M5 17.5C5 16.9477 5.44772 16.5 6 16.5H14C14.5523 16.5 15 16.9477 15 17.5V25.5C15 26.0523 14.5523 26.5 14 26.5H6C5.44772 26.5 5 26.0523 5 25.5V17.5ZM7 18.5V24.5H13V18.5H7Z" fill="#222222"/>
<path fill-rule="evenodd" clip-rule="evenodd" d="M17 17.5C17 16.9477 17.4477 16.5 18 16.5H26C26.5523 16.5 27 16.9477 27 17.5V25.5C27 26.0523 26.5523 26.5 26 26.5H18C17.4477 26.5 17 26.0523 17 25.5V17.5ZM19 18.5V24.5H25V18.5H19Z" fill="#222222"/>
</svg>
