<svg width="40" height="40" viewBox="0 0 40 40" fill="none" xmlns="http://www.w3.org/2000/svg">
<path d="M20 40C31.0457 40 40 31.0457 40 20C40 8.9543 31.0457 0 20 0C8.9543 0 0 8.9543 0 20C0 31.0457 8.9543 40 20 40Z" stroke="#7848F4" stroke-width="3.33333" stroke-linecap="round" stroke-linejoin="round"/>
<path fill-rule="evenodd" clip-rule="evenodd" d="M18.375 14.5C17.8777 14.5 17.4008 14.6975 17.0492 15.0492C16.6975 15.4008 16.5 15.8777 16.5 16.375C16.5 16.8723 16.6975 17.3492 17.0492 17.7008C17.4008 18.0525 17.8777 18.25 18.375 18.25H22.125C23.2853 18.25 24.3981 18.7109 25.2186 19.5314C26.0391 20.3519 26.5 21.4647 26.5 22.625C26.5 23.7853 26.0391 24.8981 25.2186 25.7186C24.3981 26.5391 23.2853 27 22.125 27H16.5C15.8096 27 15.25 26.4404 15.25 25.75C15.25 25.0596 15.8096 24.5 16.5 24.5H22.125C22.6223 24.5 23.0992 24.3025 23.4508 23.9508C23.8025 23.5992 24 23.1223 24 22.625C24 22.1277 23.8025 21.6508 23.4508 21.2992C23.0992 20.9475 22.6223 20.75 22.125 20.75H18.375C17.2147 20.75 16.1019 20.2891 15.2814 19.4686C14.4609 18.6481 14 17.5353 14 16.375C14 15.2147 14.4609 14.1019 15.2814 13.2814C16.1019 12.4609 17.2147 12 18.375 12H24C24.6904 12 25.25 12.5596 25.25 13.25C25.25 13.9404 24.6904 14.5 24 14.5H18.375Z" fill="#7848F4"/>
<path fill-rule="evenodd" clip-rule="evenodd" d="M20.25 9C20.9404 9 21.5 9.55964 21.5 10.25V12.75C21.5 13.4404 20.9404 14 20.25 14C19.5596 14 19 13.4404 19 12.75V10.25C19 9.55964 19.5596 9 20.25 9Z" fill="#7848F4"/>
<path fill-rule="evenodd" clip-rule="evenodd" d="M20.25 26C20.9404 26 21.5 26.4477 21.5 27V29C21.5 29.5523 20.9404 30 20.25 30C19.5596 30 19 29.5523 19 29V27C19 26.4477 19.5596 26 20.25 26Z" fill="#7848F4"/>
</svg>
