<svg width="40" height="40" viewBox="0 0 40 40" fill="none" xmlns="http://www.w3.org/2000/svg">
<path d="M26.6668 35V31.6667C26.6668 29.8986 25.9645 28.2029 24.7142 26.9526C23.464 25.7024 21.7683 25 20.0002 25H10.0002C8.23205 25 6.53636 25.7024 5.28612 26.9526C4.03588 28.2029 3.3335 29.8986 3.3335 31.6667V35" stroke="#7848F4" stroke-width="3.33333" stroke-linecap="round" stroke-linejoin="round"/>
<path d="M15.0002 18.3333C18.6821 18.3333 21.6668 15.3486 21.6668 11.6667C21.6668 7.98477 18.6821 5 15.0002 5C11.3183 5 8.3335 7.98477 8.3335 11.6667C8.3335 15.3486 11.3183 18.3333 15.0002 18.3333Z" stroke="#7848F4" stroke-width="3.33333" stroke-linecap="round" stroke-linejoin="round"/>
<path d="M36.6665 34.9999V31.6666C36.6654 30.1894 36.1738 28.7545 35.2688 27.5871C34.3638 26.4196 33.0967 25.5858 31.6665 25.2166" stroke="#7848F4" stroke-width="3.33333" stroke-linecap="round" stroke-linejoin="round"/>
<path d="M26.6665 5.21655C28.1005 5.58372 29.3716 6.41772 30.2792 7.58707C31.1869 8.75642 31.6796 10.1946 31.6796 11.6749C31.6796 13.1552 31.1869 14.5934 30.2792 15.7627C29.3716 16.9321 28.1005 17.7661 26.6665 18.1332" stroke="#7848F4" stroke-width="3.33333" stroke-linecap="round" stroke-linejoin="round"/>
</svg>
