<svg width="40" height="40" viewBox="0 0 40 40" fill="none" xmlns="http://www.w3.org/2000/svg">
<path d="M20 11.6667V35.0001" stroke="#7848F4" stroke-width="3.33333" stroke-linecap="round" stroke-linejoin="round"/>
<path d="M5.00016 30C4.55814 30 4.13421 29.8244 3.82165 29.5118C3.50909 29.1993 3.3335 28.7754 3.3335 28.3333V6.66667C3.3335 6.22464 3.50909 5.80072 3.82165 5.48816C4.13421 5.17559 4.55814 5 5.00016 5H13.3335C15.1016 5 16.7973 5.70238 18.0475 6.95262C19.2978 8.20286 20.0002 9.89856 20.0002 11.6667C20.0002 9.89856 20.7025 8.20286 21.9528 6.95262C23.203 5.70238 24.8987 5 26.6668 5H35.0002C35.4422 5 35.8661 5.17559 36.1787 5.48816C36.4912 5.80072 36.6668 6.22464 36.6668 6.66667V28.3333C36.6668 28.7754 36.4912 29.1993 36.1787 29.5118C35.8661 29.8244 35.4422 30 35.0002 30H25.0002C23.6741 30 22.4023 30.5268 21.4646 31.4645C20.5269 32.4021 20.0002 33.6739 20.0002 35C20.0002 33.6739 19.4734 32.4021 18.5357 31.4645C17.598 30.5268 16.3262 30 15.0002 30H5.00016Z" stroke="#7848F4" stroke-width="3.33333" stroke-linecap="round" stroke-linejoin="round"/>
</svg>
