<svg width="40" height="40" viewBox="0 0 40 40" fill="none" xmlns="http://www.w3.org/2000/svg">
<path d="M21.4836 2.41659L34.8169 9.08326C35.3723 9.35922 35.8396 9.78463 36.1664 10.3117C36.4933 10.8387 36.6666 11.4465 36.6669 12.0666V27.9499C36.6666 28.5701 36.4933 29.1778 36.1664 29.7049C35.8396 30.2319 35.3723 30.6573 34.8169 30.9333L21.4836 37.5999C21.0205 37.8317 20.5098 37.9523 19.9919 37.9523C19.4741 37.9523 18.9633 37.8317 18.5002 37.5999L5.16691 30.9333C4.61213 30.6537 4.1465 30.2247 3.82256 29.6946C3.49862 29.1645 3.32925 28.5545 3.33358 27.9333V12.0666C3.33391 11.4465 3.50722 10.8387 3.83404 10.3117C4.16086 9.78463 4.62822 9.35922 5.18358 9.08326L18.5169 2.41659C18.9778 2.18755 19.4855 2.06836 20.0002 2.06836C20.5149 2.06836 21.0226 2.18755 21.4836 2.41659Z" stroke="#7848F4" stroke-width="3.33" stroke-linecap="round" stroke-linejoin="round"/>
<path d="M3.8667 10.2666L20 18.3333L36.1334 10.2666" stroke="#7848F4" stroke-width="3.3" stroke-linecap="round" stroke-linejoin="round"/>
<path d="M20 37.9333V18.3333" stroke="#7848F4" stroke-width="3.33" stroke-linecap="round" stroke-linejoin="round"/>
<path d="M11.6665 5.83325L28.3332 14.1666" stroke="#7848F4" stroke-width="3.33" stroke-linecap="round" stroke-linejoin="round"/>
</svg>
