<svg width="40" height="40" viewBox="0 0 40 40" fill="none" xmlns="http://www.w3.org/2000/svg">
<path d="M24.1668 6.66663H15.8335L11.6668 11.6666H6.66683C5.78277 11.6666 4.93493 12.0178 4.30981 12.6429C3.68469 13.2681 3.3335 14.1159 3.3335 15V30C3.3335 30.884 3.68469 31.7319 4.30981 32.357C4.93493 32.9821 5.78277 33.3333 6.66683 33.3333H33.3335C34.2176 33.3333 35.0654 32.9821 35.6905 32.357C36.3156 31.7319 36.6668 30.884 36.6668 30V15C36.6668 14.1159 36.3156 13.2681 35.6905 12.6429C35.0654 12.0178 34.2176 11.6666 33.3335 11.6666H28.3335L24.1668 6.66663Z" stroke="#7848F4" stroke-width="3.33333" stroke-linecap="round" stroke-linejoin="round"/>
<path d="M20 26.6666C22.7614 26.6666 25 24.428 25 21.6666C25 18.9052 22.7614 16.6666 20 16.6666C17.2386 16.6666 15 18.9052 15 21.6666C15 24.428 17.2386 26.6666 20 26.6666Z" stroke="#7848F4" stroke-width="3.33333" stroke-linecap="round" stroke-linejoin="round"/>
</svg>
