<svg width="32" height="32" viewBox="0 0 32 32" fill="none" xmlns="http://www.w3.org/2000/svg">
<rect x="0.5" y="0.5" width="31" height="31" stroke="white"/>
<path fill-rule="evenodd" clip-rule="evenodd" d="M16 7C16.5523 7 17 7.44772 17 8V11C17 11.5523 16.5523 12 16 12C15.4477 12 15 11.5523 15 11V8C15 7.44772 15.4477 7 16 7Z" fill="#4F4F4F"/>
<path fill-rule="evenodd" clip-rule="evenodd" d="M16.6547 0.243987L16.0001 1L15.36 0.231779C15.7363 -0.0818189 16.2844 -0.0766508 16.6547 0.243987ZM15.9862 2.39087C15.9534 2.42494 15.92 2.46015 15.8859 2.49644C15.4471 2.96457 14.9577 3.57088 14.6446 4.19721C14.3244 4.83766 14.2654 5.33839 14.4052 5.71138C14.5263 6.03414 14.8918 6.51058 15.9931 6.93545C17.0304 6.51725 17.3781 6.04941 17.4959 5.723C17.6351 5.33715 17.5733 4.82501 17.2647 4.18365C16.9626 3.55589 16.4914 2.94957 16.0698 2.48243C16.0415 2.45109 16.0137 2.42056 15.9862 2.39087ZM15.36 0.231779C15.3603 0.231525 15.36 0.231779 16.0001 1C16.6547 0.243987 16.6544 0.243727 16.6547 0.243987L16.6578 0.24669L16.663 0.251241L16.6796 0.2658C16.6932 0.277901 16.7121 0.294767 16.7357 0.316151C16.7828 0.358895 16.8487 0.419842 16.9292 0.497017C17.0898 0.651031 17.3101 0.871513 17.5547 1.14257C18.0355 1.67543 18.6471 2.44411 19.0669 3.31635C19.4801 4.17499 19.7792 5.28785 19.3771 6.402C18.9649 7.54407 17.9267 8.39106 16.3274 8.94494C16.1192 9.01705 15.893 9.01837 15.6839 8.94868C14.0391 8.4004 12.9629 7.56115 12.5326 6.41362C12.1099 5.28661 12.4259 4.16234 12.8557 3.30279C13.2926 2.42912 13.9282 1.66043 14.4269 1.12856C14.6807 0.85781 14.9093 0.637649 15.0758 0.483947C15.1592 0.406926 15.2276 0.346128 15.2763 0.303528C15.3007 0.282216 15.3203 0.265421 15.3344 0.253389L15.3514 0.238932L15.3568 0.234432L15.3587 0.232873L15.36 0.231779Z" fill="#4F4F4F"/>
<path fill-rule="evenodd" clip-rule="evenodd" d="M11.75 14.75C12.3023 14.75 12.75 15.1977 12.75 15.75C12.75 16.612 13.0924 17.4386 13.7019 18.0481C14.3114 18.6576 15.138 19 16 19C16.862 19 17.6886 18.6576 18.2981 18.0481C18.9076 17.4386 19.25 16.612 19.25 15.75C19.25 15.1977 19.6977 14.75 20.25 14.75C20.8023 14.75 21.25 15.1977 21.25 15.75C21.25 17.1424 20.6969 18.4777 19.7123 19.4623C18.7277 20.4469 17.3924 21 16 21C14.6076 21 13.2723 20.4469 12.2877 19.4623C11.3031 18.4777 10.75 17.1424 10.75 15.75C10.75 15.1977 11.1977 14.75 11.75 14.75Z" fill="#4F4F4F"/>
<path fill-rule="evenodd" clip-rule="evenodd" d="M6.24581 12C5.9834 11.9989 5.72338 12.0498 5.48074 12.1497C5.2381 12.2496 5.01765 12.3966 4.8321 12.5821C4.64655 12.7676 4.49958 12.9881 4.39967 13.2307C4.29976 13.4734 4.24889 13.7334 4.24999 13.9958L4.25001 14L4.25 15.6625C4.25 17.5172 5.76672 19.0379 7.56656 19.0002C8.41687 18.9827 9.22678 18.6326 9.82188 18.025C10.417 17.4174 10.7502 16.6007 10.75 15.7502C10.7499 15.1979 11.1975 14.7501 11.7498 14.75C12.3021 14.7499 12.7499 15.1975 12.75 15.7498C12.7503 17.1236 12.212 18.4429 11.2507 19.4244C10.2894 20.4059 8.98166 20.9715 7.60809 20.9998C4.6331 21.0619 2.25 18.5827 2.25 15.6625V14.002M25.748 10H6.25195H25.748ZM29.75 14.0017V15.6625C29.75 18.5827 27.3669 21.0619 24.3919 20.9998C23.0183 20.9715 21.7106 20.4059 20.7493 19.4244C19.788 18.4429 19.2497 17.1236 19.25 15.7498C19.2501 15.1975 19.6979 14.7499 20.2502 14.75C20.8025 14.7501 21.2501 15.1979 21.25 15.7502C21.2498 16.6007 21.583 17.4174 22.1781 18.025C22.7732 18.6326 23.5828 18.9827 24.4331 19.0002C26.2329 19.0379 27.75 17.5172 27.75 15.6625V14L27.75 13.9958C27.7511 13.7334 27.7002 13.4734 27.6003 13.2307C27.5004 12.9881 27.3534 12.7676 27.1679 12.5821C26.9824 12.3966 26.7619 12.2496 26.5193 12.1497C26.2766 12.0498 26.0166 11.9989 25.7542 12L25.75 12L6.24581 12" fill="#4F4F4F"/>
<path fill-rule="evenodd" clip-rule="evenodd" d="M5 18.1626C5.55228 18.1626 6 18.6103 6 19.1626V26.0001H26V19.1626C26 18.6103 26.4477 18.1626 27 18.1626C27.5523 18.1626 28 18.6103 28 19.1626V26.0001C28 26.5305 27.7893 27.0392 27.4142 27.4143C27.0391 27.7894 26.5304 28.0001 26 28.0001H6C5.46957 28.0001 4.96086 27.7894 4.58579 27.4143C4.21071 27.0392 4 26.5305 4 26.0001V19.1626C4 18.6103 4.44772 18.1626 5 18.1626Z" fill="#4F4F4F"/>
</svg>
