<svg width="41" height="40" viewBox="0 0 41 40" fill="none" xmlns="http://www.w3.org/2000/svg">
<path d="M5.5 18L5.5 38" stroke="#7848F4" stroke-width="2.5" stroke-linecap="round" stroke-linejoin="round"/>
<path d="M35.5 22L35.5 38" stroke="#7848F4" stroke-width="2.5" stroke-linecap="round" stroke-linejoin="round"/>
<path d="M35.5 2L35.5 10" stroke="#7848F4" stroke-width="2.5" stroke-linecap="round" stroke-linejoin="round"/>
<path d="M20.5 2L20.5 22" stroke="#7848F4" stroke-width="2.5" stroke-linecap="round" stroke-linejoin="round"/>
<path d="M5.5 2L5.5 6" stroke="#7848F4" stroke-width="2.5" stroke-linecap="round" stroke-linejoin="round"/>
<path d="M20.5 34L20.5 38" stroke="#7848F4" stroke-width="2.5" stroke-linecap="round" stroke-linejoin="round"/>
<path d="M1.5 15C1.5 14.0681 1.5 13.6022 1.65224 13.2346C1.85523 12.7446 2.24458 12.3552 2.73463 12.1522C3.10218 12 3.56812 12 4.5 12H6.5C7.43188 12 7.89782 12 8.26537 12.1522C8.75542 12.3552 9.14477 12.7446 9.34776 13.2346C9.5 13.6022 9.5 14.0681 9.5 15C9.5 15.9319 9.5 16.3978 9.34776 16.7654C9.14477 17.2554 8.75542 17.6448 8.26537 17.8478C7.89782 18 7.43188 18 6.5 18H4.5C3.56812 18 3.10218 18 2.73463 17.8478C2.24458 17.6448 1.85523 17.2554 1.65224 16.7654C1.5 16.3978 1.5 15.9319 1.5 15Z" stroke="#7848F4" stroke-width="2.5" stroke-linecap="round" stroke-linejoin="round"/>
<path d="M31.5 19C31.5 18.0681 31.5 17.6022 31.6522 17.2346C31.8552 16.7446 32.2446 16.3552 32.7346 16.1522C33.1022 16 33.5681 16 34.5 16H36.5C37.4319 16 37.8978 16 38.2654 16.1522C38.7554 16.3552 39.1448 16.7446 39.3478 17.2346C39.5 17.6022 39.5 18.0681 39.5 19C39.5 19.9319 39.5 20.3978 39.3478 20.7654C39.1448 21.2554 38.7554 21.6448 38.2654 21.8478C37.8978 22 37.4319 22 36.5 22H34.5C33.5681 22 33.1022 22 32.7346 21.8478C32.2446 21.6448 31.8552 21.2554 31.6522 20.7654C31.5 20.3978 31.5 19.9319 31.5 19Z" stroke="#7848F4" stroke-width="2.5" stroke-linecap="round" stroke-linejoin="round"/>
<path d="M16.5 25C16.5 24.0681 16.5 23.6022 16.6522 23.2346C16.8552 22.7446 17.2446 22.3552 17.7346 22.1522C18.1022 22 18.5681 22 19.5 22H21.5C22.4319 22 22.8978 22 23.2654 22.1522C23.7554 22.3552 24.1448 22.7446 24.3478 23.2346C24.5 23.6022 24.5 24.0681 24.5 25C24.5 25.9319 24.5 26.3978 24.3478 26.7654C24.1448 27.2554 23.7554 27.6448 23.2654 27.8478C22.8978 28 22.4319 28 21.5 28H19.5C18.5681 28 18.1022 28 17.7346 27.8478C17.2446 27.6448 16.8552 27.2554 16.6522 26.7654C16.5 26.3978 16.5 25.9319 16.5 25Z" stroke="#7848F4" stroke-width="2.5" stroke-linecap="round" stroke-linejoin="round"/>
</svg>
