<svg width="32" height="32" viewBox="0 0 32 32" fill="none" xmlns="http://www.w3.org/2000/svg">
<rect x="0.5" y="0.5" width="31" height="31" stroke="white"/>
<path fill-rule="evenodd" clip-rule="evenodd" d="M21 4C17.134 4 14 7.13401 14 11C14 14.866 17.134 18 21 18C24.866 18 28 14.866 28 11C28 7.13401 24.866 4 21 4ZM12 11C12 6.02944 16.0294 2 21 2C25.9706 2 30 6.02944 30 11C30 15.9706 25.9706 20 21 20C16.0294 20 12 15.9706 12 11Z" fill="#4F4F4F"/>
<path fill-rule="evenodd" clip-rule="evenodd" d="M14.6308 4.6303C15.0213 4.23977 15.6545 4.23977 16.045 4.6303L27.37 15.9553C27.7605 16.3458 27.7605 16.979 27.37 17.3695C26.9795 17.76 26.3463 17.76 25.9558 17.3695L14.6308 6.04451C14.2403 5.65398 14.2403 5.02082 14.6308 4.6303Z" fill="#4F4F4F"/>
<path fill-rule="evenodd" clip-rule="evenodd" d="M13.2071 18.7929C13.5976 19.1834 13.5976 19.8166 13.2071 20.2071L11.7071 21.7071C11.3166 22.0976 10.6834 22.0976 10.2929 21.7071C9.90237 21.3166 9.90237 20.6834 10.2929 20.2929L11.7929 18.7929C12.1834 18.4024 12.8166 18.4024 13.2071 18.7929Z" fill="#4F4F4F"/>
<path fill-rule="evenodd" clip-rule="evenodd" d="M13.6912 11.4312C14.1366 11.7578 14.2329 12.3836 13.9063 12.8289L4.31885 25.9039L4.31958 25.9055L6.09553 27.6815L19.1711 18.0937C19.6165 17.7671 20.2423 17.8634 20.5688 18.3088C20.8954 18.7542 20.7991 19.38 20.3537 19.7065L7.28259 29.2912C6.89741 29.5785 6.42112 29.7166 5.94187 29.6797C5.46277 29.6429 5.01331 29.4337 4.67663 29.091L2.90892 27.3233C2.56632 26.9867 2.35716 26.5372 2.32031 26.0582C2.28344 25.5789 2.42152 25.1026 2.70881 24.7174L12.2935 11.6463C12.6201 11.2009 13.2459 11.1046 13.6912 11.4312Z" fill="#4F4F4F"/>
</svg>
