<svg width="32" height="32" viewBox="0 0 32 32" fill="none" xmlns="http://www.w3.org/2000/svg">
<rect x="0.5" y="0.5" width="31" height="31" stroke="white"/>
<path fill-rule="evenodd" clip-rule="evenodd" d="M25 3C25.5523 3 26 3.44772 26 4V10C26 10.5523 25.5523 11 25 11C24.4477 11 24 10.5523 24 10V4C24 3.44772 24.4477 3 25 3Z" fill="#4F4F4F"/>
<path fill-rule="evenodd" clip-rule="evenodd" d="M21 7C21 6.44772 21.4477 6 22 6H28C28.5523 6 29 6.44772 29 7C29 7.55228 28.5523 8 28 8H22C21.4477 8 21 7.55228 21 7Z" fill="#4F4F4F"/>
<path fill-rule="evenodd" clip-rule="evenodd" d="M22.5 19C21.1193 19 20 20.1193 20 21.5C20 22.8807 21.1193 24 22.5 24C23.8807 24 25 22.8807 25 21.5C25 20.1193 23.8807 19 22.5 19ZM18 21.5C18 19.0147 20.0147 17 22.5 17C24.9853 17 27 19.0147 27 21.5C27 23.9853 24.9853 26 22.5 26C20.0147 26 18 23.9853 18 21.5Z" fill="#4F4F4F"/>
<path fill-rule="evenodd" clip-rule="evenodd" d="M6.5 23C5.11929 23 4 24.1193 4 25.5C4 26.8807 5.11929 28 6.5 28C7.88071 28 9 26.8807 9 25.5C9 24.1193 7.88071 23 6.5 23ZM2 25.5C2 23.0147 4.01472 21 6.5 21C8.98528 21 11 23.0147 11 25.5C11 27.9853 8.98528 30 6.5 30C4.01472 30 2 27.9853 2 25.5Z" fill="#4F4F4F"/>
<path fill-rule="evenodd" clip-rule="evenodd" d="M26 13.8999C26.5523 13.8999 27 14.3476 27 14.8999V21.4999C27 22.0522 26.5523 22.4999 26 22.4999C25.4477 22.4999 25 22.0522 25 21.4999V14.8999C25 14.3476 25.4477 13.8999 26 13.8999Z" fill="#4F4F4F"/>
<path fill-rule="evenodd" clip-rule="evenodd" d="M18.0327 5.99541C18.1665 6.53126 17.8405 7.07406 17.3046 7.20778L11 8.78115V25.5C11 26.0523 10.5523 26.5 10 26.5C9.44772 26.5 9 26.0523 9 25.5V8.00004C9 7.54102 9.3125 7.14094 9.75787 7.0298L16.8204 5.2673C17.3562 5.13357 17.899 5.45956 18.0327 5.99541Z" fill="#4F4F4F"/>
<path fill-rule="evenodd" clip-rule="evenodd" d="M20.8578 11.2821C20.9919 11.8178 20.6663 12.3609 20.1306 12.495L10.2431 14.97C9.70731 15.1041 9.16427 14.7785 9.03017 14.2427C8.89606 13.707 9.22166 13.1639 9.75741 13.0298L19.6449 10.5548C20.1807 10.4207 20.7237 10.7463 20.8578 11.2821Z" fill="#4F4F4F"/>
</svg>
