<svg width="32" height="32" viewBox="0 0 32 32" fill="none" xmlns="http://www.w3.org/2000/svg">
<rect x="0.5" y="0.5" width="31" height="31" stroke="white"/>
<path fill-rule="evenodd" clip-rule="evenodd" d="M12.858 6.25601C13.1932 6.0229 13.5917 5.89795 14 5.89795C14.4082 5.89795 14.8067 6.0229 15.1419 6.25601C15.4771 6.48912 15.7329 6.81922 15.875 7.20198L15.8758 7.20417L18.2758 13.7167C18.2764 13.7184 18.2774 13.72 18.2787 13.7212C18.28 13.7225 18.2815 13.7235 18.2832 13.7241L24.798 16.125C25.1807 16.267 25.5108 16.5228 25.7439 16.858C25.977 17.1932 26.102 17.5917 26.102 18C26.102 18.4082 25.977 18.8067 25.7439 19.1419C25.5108 19.4771 25.1807 19.7329 24.798 19.875L24.7958 19.8758L18.2833 22.2758C18.2816 22.2764 18.28 22.2774 18.2787 22.2787C18.2774 22.28 18.2764 22.2815 18.2758 22.2832L15.8758 28.7958L15.875 28.798C15.7329 29.1807 15.4771 29.5108 15.1419 29.7439C14.8067 29.977 14.4082 30.102 14 30.102C13.5917 30.102 13.1932 29.977 12.858 29.7439C12.5228 29.5108 12.267 29.1807 12.125 28.798L12.1242 28.7958L9.72415 22.2833C9.72353 22.2816 9.72252 22.28 9.72124 22.2787C9.72062 22.2781 9.71993 22.2775 9.7192 22.277C9.71842 22.2765 9.7176 22.2761 9.71673 22.2758L3.20418 19.8758L3.20198 19.875C2.81922 19.7329 2.48912 19.4771 2.25601 19.1419C2.0229 18.8067 1.89795 18.4082 1.89795 18C1.89795 17.5917 2.0229 17.1932 2.25601 16.858C2.48912 16.5228 2.81922 16.267 3.20198 16.125L3.20418 16.1242L9.71667 13.7242C9.71837 13.7235 9.71996 13.7225 9.72124 13.7212C9.72252 13.72 9.72351 13.7184 9.72413 13.7167L12.1242 7.20418L12.125 7.20198C12.267 6.81922 12.5228 6.48912 12.858 6.25601ZM16.3992 21.5917C16.3991 21.5917 16.3992 21.5917 16.3992 21.5917C16.4998 21.3185 16.6586 21.0704 16.8645 20.8645C17.0704 20.6586 17.3185 20.4998 17.5917 20.3992C17.5917 20.3992 17.5917 20.3991 17.5917 20.3992L24.102 18L17.5917 15.6008C17.5917 15.6008 17.5917 15.6008 17.5917 15.6008C17.3185 15.5001 17.0704 15.3413 16.8645 15.1355C16.6586 14.9296 16.4998 14.6815 16.3992 14.4083C16.3991 14.4082 16.3992 14.4083 16.3992 14.4083L14 7.89795L11.6008 14.4082C11.6008 14.4082 11.6008 14.4082 11.6008 14.4082C11.5001 14.6814 11.3413 14.9296 11.1355 15.1355C10.9296 15.3413 10.6815 15.5001 10.4083 15.6008C10.4082 15.6008 10.4083 15.6008 10.4083 15.6008L3.89795 18L10.4082 20.3991C10.4082 20.3991 10.4082 20.3991 10.4082 20.3991C10.6814 20.4998 10.9296 20.6586 11.1355 20.8645C11.3413 21.0704 11.5001 21.3185 11.6008 21.5917C11.6008 21.5917 11.6008 21.5917 11.6008 21.5917L14 28.102L16.3992 21.5917Z" fill="#4F4F4F"/>
<path fill-rule="evenodd" clip-rule="evenodd" d="M22 1C22.5523 1 23 1.44772 23 2V8C23 8.55228 22.5523 9 22 9C21.4477 9 21 8.55228 21 8V2C21 1.44772 21.4477 1 22 1Z" fill="#4F4F4F"/>
<path fill-rule="evenodd" clip-rule="evenodd" d="M18 5C18 4.44772 18.4477 4 19 4H25C25.5523 4 26 4.44772 26 5C26 5.55228 25.5523 6 25 6H19C18.4477 6 18 5.55228 18 5Z" fill="#4F4F4F"/>
<path fill-rule="evenodd" clip-rule="evenodd" d="M28 8C28.5523 8 29 8.44772 29 9V13C29 13.5523 28.5523 14 28 14C27.4477 14 27 13.5523 27 13V9C27 8.44772 27.4477 8 28 8Z" fill="#4F4F4F"/>
<path fill-rule="evenodd" clip-rule="evenodd" d="M25 11C25 10.4477 25.4477 10 26 10H30C30.5523 10 31 10.4477 31 11C31 11.5523 30.5523 12 30 12H26C25.4477 12 25 11.5523 25 11Z" fill="#4F4F4F"/>
</svg>
