<svg width="32" height="33" viewBox="0 0 32 33" fill="none" xmlns="http://www.w3.org/2000/svg">
<path fill-rule="evenodd" clip-rule="evenodd" d="M3 10.5C3 9.39543 3.89543 8.5 5 8.5H27C28.1046 8.5 29 9.39543 29 10.5V25.5C29 26.6046 28.1046 27.5 27 27.5H5C3.89543 27.5 3 26.6046 3 25.5V10.5ZM27 10.5H5V25.5H27V10.5Z" fill="#131315"/>
<path fill-rule="evenodd" clip-rule="evenodd" d="M9.29289 2.79289C9.68342 2.40237 10.3166 2.40237 10.7071 2.79289L16 8.08579L21.2929 2.79289C21.6834 2.40237 22.3166 2.40237 22.7071 2.79289C23.0976 3.18342 23.0976 3.81658 22.7071 4.20711L16.7071 10.2071C16.3166 10.5976 15.6834 10.5976 15.2929 10.2071L9.29289 4.20711C8.90237 3.81658 8.90237 3.18342 9.29289 2.79289Z" fill="#131315"/>
</svg>
