<svg width="32" height="33" viewBox="0 0 32 33" fill="none" xmlns="http://www.w3.org/2000/svg">
<path d="M17.1866 2.43334L27.8532 7.76667C28.2975 7.98744 28.6714 8.32777 28.9329 8.7494C29.1943 9.17102 29.333 9.65723 29.3332 10.1533V22.86C29.333 23.3561 29.1943 23.8423 28.9329 24.2639C28.6714 24.6856 28.2975 25.0259 27.8532 25.2467L17.1866 30.58C16.8161 30.7654 16.4075 30.8619 15.9932 30.8619C15.579 30.8619 15.1704 30.7654 14.7999 30.58L4.13324 25.2467C3.68941 25.023 3.31691 24.6798 3.05775 24.2558C2.7986 23.8317 2.66311 23.3436 2.66657 22.8467V10.1533C2.66683 9.65723 2.80549 9.17102 3.06694 8.7494C3.3284 8.32777 3.70228 7.98744 4.14657 7.76667L14.8132 2.43334C15.182 2.25011 15.5881 2.15475 15.9999 2.15475C16.4117 2.15475 16.8178 2.25011 17.1866 2.43334V2.43334Z" stroke="black" stroke-width="2" stroke-linecap="round" stroke-linejoin="round"/>
<path d="M3.09326 8.71332L15.9999 15.1667L28.9066 8.71332" stroke="black" stroke-width="2" stroke-linecap="round" stroke-linejoin="round"/>
<path d="M16 30.8467V15.1667" stroke="black" stroke-width="2" stroke-linecap="round" stroke-linejoin="round"/>
<path d="M9.3335 5.16666L22.6668 11.8333" stroke="black" stroke-width="2" stroke-linecap="round" stroke-linejoin="round"/>
</svg>
