<svg width="32" height="33" viewBox="0 0 32 33" fill="none" xmlns="http://www.w3.org/2000/svg">
<path fill-rule="evenodd" clip-rule="evenodd" d="M5.64136 2.68531C6.04567 2.64469 6.45276 2.72818 6.80844 2.92468L6.81355 2.9275L27.9215 14.75C27.9224 14.7505 27.9233 14.751 27.9242 14.7515C28.2356 14.9244 28.4952 15.1774 28.6761 15.4842C28.8576 15.792 28.9532 16.1427 28.9532 16.5C28.9532 16.8572 28.8576 17.208 28.6761 17.5157C28.4952 17.8226 28.2356 18.0756 27.9242 18.2485C27.9233 18.249 27.9224 18.2495 27.9215 18.25L6.80844 30.0753C6.45277 30.2718 6.04567 30.3553 5.64136 30.3147C5.23705 30.274 4.85471 30.1112 4.54524 29.8479C4.23576 29.5846 4.01384 29.2332 3.90901 28.8406C3.80431 28.4485 3.82138 28.0338 3.95794 27.6517C3.95791 27.6518 3.95797 27.6516 3.95794 27.6517C3.95807 27.6513 3.9583 27.6507 3.95844 27.6503L7.93294 16.5017C7.93314 16.5011 7.93334 16.5006 7.93355 16.5C7.93334 16.4994 7.93314 16.4989 7.93294 16.4983L3.95844 5.34968C3.95834 5.34941 3.95853 5.34994 3.95844 5.34968C3.82168 4.96735 3.80425 4.55166 3.90901 4.15933C4.01384 3.76675 4.23576 3.4154 4.54524 3.15208C4.85471 2.88875 5.23705 2.72594 5.64136 2.68531ZM27.4374 15.625L26.9487 16.4975L5.84131 4.67529L5.84181 4.67668L9.81106 15.8106C9.98371 16.2539 9.98371 16.746 9.81106 17.1894L5.84131 28.3247L26.9487 16.5025L26.9532 16.5L27.4374 15.625Z" fill="#131315"/>
<path fill-rule="evenodd" clip-rule="evenodd" d="M8 16.5C8 15.9477 8.44772 15.5 9 15.5H17C17.5523 15.5 18 15.9477 18 16.5C18 17.0523 17.5523 17.5 17 17.5H9C8.44772 17.5 8 17.0523 8 16.5Z" fill="#131315"/>
</svg>
