<svg width="32" height="33" viewBox="0 0 32 33" fill="none" xmlns="http://www.w3.org/2000/svg">
<path fill-rule="evenodd" clip-rule="evenodd" d="M5 6.5C5 5.94772 5.44772 5.5 6 5.5H14C14.5523 5.5 15 5.94772 15 6.5V14.5C15 15.0523 14.5523 15.5 14 15.5H6C5.44772 15.5 5 15.0523 5 14.5V6.5ZM7 7.5V13.5H13V7.5H7Z" fill="black"/>
<path fill-rule="evenodd" clip-rule="evenodd" d="M17 6.5C17 5.94772 17.4477 5.5 18 5.5H26C26.5523 5.5 27 5.94772 27 6.5V14.5C27 15.0523 26.5523 15.5 26 15.5H18C17.4477 15.5 17 15.0523 17 14.5V6.5ZM19 7.5V13.5H25V7.5H19Z" fill="black"/>
<path fill-rule="evenodd" clip-rule="evenodd" d="M5 18.5C5 17.9477 5.44772 17.5 6 17.5H14C14.5523 17.5 15 17.9477 15 18.5V26.5C15 27.0523 14.5523 27.5 14 27.5H6C5.44772 27.5 5 27.0523 5 26.5V18.5ZM7 19.5V25.5H13V19.5H7Z" fill="black"/>
<path fill-rule="evenodd" clip-rule="evenodd" d="M17 18.5C17 17.9477 17.4477 17.5 18 17.5H26C26.5523 17.5 27 17.9477 27 18.5V26.5C27 27.0523 26.5523 27.5 26 27.5H18C17.4477 27.5 17 27.0523 17 26.5V18.5ZM19 19.5V25.5H25V19.5H19Z" fill="black"/>
</svg>
