<svg width="32" height="33" viewBox="0 0 32 33" fill="none" xmlns="http://www.w3.org/2000/svg">
<path fill-rule="evenodd" clip-rule="evenodd" d="M16 5.5C12.134 5.5 9 8.63401 9 12.5C9 16.366 12.134 19.5 16 19.5C19.866 19.5 23 16.366 23 12.5C23 8.63401 19.866 5.5 16 5.5ZM7 12.5C7 7.52944 11.0294 3.5 16 3.5C20.9706 3.5 25 7.52944 25 12.5C25 17.4706 20.9706 21.5 16 21.5C11.0294 21.5 7 17.4706 7 12.5Z" fill="#131315"/>
<path fill-rule="evenodd" clip-rule="evenodd" d="M16.0002 21.4989C13.718 21.4989 11.476 22.0997 9.49965 23.2408C7.52328 24.382 5.88215 26.0234 4.74124 27.9999C4.46514 28.4782 3.85356 28.6422 3.37525 28.3661C2.89693 28.09 2.733 27.4784 3.0091 27.0001C4.32553 24.7195 6.21914 22.8256 8.49957 21.5088C10.78 20.1921 13.3669 19.4989 16.0002 19.4989C18.6335 19.4989 21.2203 20.1921 23.5008 21.5088C25.7812 22.8256 27.6748 24.7195 28.9912 27.0001C29.2673 27.4784 29.1034 28.09 28.6251 28.3661C28.1468 28.6422 27.5352 28.4782 27.2591 27.9999C26.1182 26.0234 24.4771 24.382 22.5007 23.2408C20.5243 22.0997 18.2823 21.4989 16.0002 21.4989Z" fill="#131315"/>
</svg>
