<svg width="32" height="32" viewBox="0 0 32 32" fill="none" xmlns="http://www.w3.org/2000/svg">
<path fill-rule="evenodd" clip-rule="evenodd" d="M16 12C16.5523 12 17 12.4477 17 13V18C17 18.5523 16.5523 19 16 19C15.4477 19 15 18.5523 15 18V13C15 12.4477 15.4477 12 16 12Z" fill="black"/>
<path fill-rule="evenodd" clip-rule="evenodd" d="M14.5011 3.4028C14.9564 3.13875 15.4734 2.99969 15.9998 2.99969C16.5261 2.99969 17.0431 3.13875 17.4985 3.4028C17.953 3.66639 18.33 4.0452 18.5914 4.501C18.5918 4.50177 18.5923 4.50254 18.5927 4.50332L29.5908 23.5C29.8537 23.9553 29.9923 24.4717 29.9927 24.9974C29.9932 25.5231 29.8555 26.0397 29.5935 26.4954C29.3314 26.9512 28.9542 27.3301 28.4996 27.5941C28.045 27.8582 27.529 27.9982 27.0033 28L26.9998 28H4.99979L4.99627 28C4.47056 27.9982 3.95456 27.8582 3.49997 27.5941C3.04539 27.3301 2.66817 26.9512 2.40612 26.4954C2.14406 26.0397 2.00637 25.5231 2.00684 24.9974C2.0073 24.4717 2.14591 23.9553 2.40877 23.5L13.4069 4.50332C13.4073 4.50254 13.4078 4.50177 13.4082 4.501C13.6696 4.0452 14.0466 3.66639 14.5011 3.4028ZM14.2748 5.00001L15.1402 5.50105L4.14081 24.5C4.14074 24.5001 4.14089 24.4999 4.14081 24.5C4.05334 24.6517 4.00699 24.824 4.00684 24.9991C4.00668 25.1744 4.05258 25.3466 4.13993 25.4985C4.22728 25.6504 4.35302 25.7767 4.50455 25.8647C4.65568 25.9525 4.82718 25.9992 5.00195 26H26.9976C27.1724 25.9992 27.3439 25.9525 27.495 25.8647C27.6466 25.7767 27.7723 25.6504 27.8597 25.4985C27.947 25.3466 27.9929 25.1744 27.9927 24.9991C27.9926 24.8241 27.9465 24.6522 27.8591 24.5006C27.859 24.5004 27.8592 24.5008 27.8591 24.5006L16.8569 5.49671C16.7704 5.34571 16.6457 5.22021 16.4952 5.13294C16.3447 5.04566 16.1738 4.99969 15.9998 4.99969C15.8258 4.99969 15.6549 5.04566 15.5044 5.13294C15.3539 5.22022 15.2291 5.34571 15.1427 5.49671L14.2748 5.00001Z" fill="black"/>
<path d="M16 24C16.8284 24 17.5 23.3284 17.5 22.5C17.5 21.6716 16.8284 21 16 21C15.1716 21 14.5 21.6716 14.5 22.5C14.5 23.3284 15.1716 24 16 24Z" fill="black"/>
</svg>
