<svg id="Group_978" data-name="Group 978" xmlns="http://www.w3.org/2000/svg" width="1077.305" height="1071.549" viewBox="0 0 1077.305 1071.549">
  <path id="Path_1" data-name="Path 1" d="M508.269,1033.481l4.67.15.152,2.1c2.108,23.518,18.378,31.308,31.483,30.859,12.956-.449,28.773-8.988,30.129-31.609l.15-2.1,4.519-.451.453,2.1c5.272,23.069,22.294,28.762,35.4,26.514,12.805-2.1,27.266-12.733,25.609-35.353l-.151-2.1,4.519-1.047.752,1.947c8.286,22.172,26.062,25.617,38.716,21.723,12.5-3.9,25.459-16.179,20.639-38.65l-.453-1.947,4.218-1.649,1.055,1.8c11.147,21.122,29.224,22.02,41.276,16.479,11.9-5.394,23.048-19.475,15.365-41.2l-.752-1.947,4.369-2.248,1.053,2.1c13.859,19.325,31.786,17.977,43.085,10.786,11.147-7.041,20.336-22.471,9.64-42.995l-.9-1.8,3.916-2.7,1.506,2.1c16.27,17.376,33.9,13.632,44.138,5.093,10.094-8.388,17.174-25.016,3.767-44.042l-1.206-1.648,3.464-3.3,1.807,1.947c18.38,14.981,35.4,8.988,44.441-.75,8.888-9.737,13.708-27.115-2.26-44.192l-1.506-1.5,3.013-3.595,2.11,1.8c20.336,12.433,36.3,4.195,43.837-6.593s9.941-28.762-8.136-43.442l-1.657-1.348,2.561-4.045,2.411,1.5c21.692,9.738,36.606-.6,42.632-12.433s6.026-29.811-13.859-42.1l-1.809-1.049,1.959-4.344,2.71,1.2c22.9,6.74,36.154-5.394,40.523-17.977,4.519-12.433,1.959-30.41-19.433-39.847l-1.958-.9,1.356-4.494,2.862.9c23.5,3.595,35.1-10.187,37.811-23.071s-2.11-30.41-24.555-37l-2.26-.3.3-2.545.453-2.4,3.163.449c23.8.451,33.443-14.68,34.5-27.863s-6.026-29.812-29.226-33.406h-2.56l.15-5.094,3.314.15c23.65-2.7,31.182-19.024,30.43-32.207s-9.943-28.762-33.443-29.211l-2.561.3-.6-4.943,3.314-.3c23.048-5.691,28.321-22.92,25.91-35.953-2.561-13.032-13.708-27.264-37.057-24.567l-2.561.6-1.206-4.945,3.314-.748c22.145-8.689,25.007-26.516,20.789-38.949l-.9-3.9-2.108-3.595-2.562-3.3-2.409-2.547-2.712-2.1-3.163-1.8-3.314-1.5-3.616-1.047-3.163-.6-4.218-.3-3.615.15-3.615.451-3.917.9-2.259.9-1.809-4.644,3.163-1.2,4.973-3.146,4.218-3.6,3.314-3.744,2.71-3.9,1.506-3.3,1.055-3.445.754-4.045.151-2.7-.453-4.345-.9-4.044-1.507-4.045-.6-1.348c-5.874-11.835-20.487-22.62-42.179-14.081l-2.411,1.2-2.411-4.345,3.013-1.648c19.132-14.232,17.174-32.059,9.793-43.144l-2.562-3.445-3.464-3.447-3.464-2.4-3.767-1.949-3.314-1.2-3.464-.75-3.767-.449h-.752l-3.917.15-4.068.748-3.314.9-3.464,1.348-4.519,2.4-1.958,1.5-2.862-4.045,2.862-2.1,3.314-3.595,2.259-3,1.96-3,1.807-3.744,1.506-4.494.6-3.6.15-3.595-.451-4.045-.754-3.445-1.506-3.9-2.409-4.195-2.11-2.845-3.464-3.447-3.464-2.546-3.615-2.1-3.917-1.5-4.218-.9-3.615-.3h-.754l-3.765.151-3.917.748-3.916,1.2-3.163,1.348-3.316,1.8-4.217,3-1.809,1.648-3.464-3.595,2.562-2.4,2.862-4.045,2.259-4.044,1.657-4.045,1.055-3.9.6-3.745.15-2.247-.15-3.6-.6-3.446-1.055-3.3-1.506-3.146-2.259-3.446-2.712-3.146-3.163-2.846-3.617-2.4-3.765-1.947-3.314-1.2-3.466-.749-4.217-.45h-.754l-3.615.3-3.616.749-3.765,1.2-3.767,1.8-3.765,2.247L854.9,143.79l-2.259,2.1-1.507,1.947-3.917-3.146,2.26-2.7c12.052-20.523,3.314-36.253-7.833-43.443-11.149-7.34-29.226-9.138-43.536,9.288l-1.356,2.247-4.369-2.547,1.807-3,1.657-4.644,1.206-4.494.6-4.344.15-2.547-.3-3.895-.754-3.6-1.205-3.446-1.958-3.745-1.958-2.846-2.26-2.547L785.6,65.293l-4.218-2.547L777.467,61.1,773.4,59.9l-3.466-.6-2.862-.15-4.217.3-3.466.749-3.464,1.2-3.314,1.648-3.314,2.1-2.561,2.1-2.411,2.4-2.861,3.6-2.712,4.045L737.7,79.524l-4.82-2.1,1.356-3,1.053-4.794.453-3.745.15-2.7-.3-4.944-.754-3.745-1.506-4.195-1.657-3.146-2.108-2.846-2.862-3-2.712-2.247-3.615-2.247-3.917-1.8-3.917-1.8-4.217-.749-2.11-.15h-1.958l-2.261.15c-.451,0-.9.15-1.354.15l-3.466.749-3.464,1.2L691,35.781l-.752.449c-.453.3-.754.449-1.206.749l-.6.449c-.3.3-.752.449-1.053.749l-.3.3-.152-.15-1.354-1.648,1.354,1.947-1.506,1.2a6.931,6.931,0,0,0-1.053,1.049l-.6.6-.15.15-2.259,2.547c-.3.449-.6.749-.9,1.2l-1.958,3-1.807,3.3-1.206,2.7-.754,1.947-5.422-1.5.9-3.146.453-4.944V45.668l-.151-4.644-.754-4.195-1.206-3.745-1.506-3.445-1.958-3.146-2.259-2.846-2.562-2.4-2.862-2.1-3.767-2.1-5.873-1.8-4.218-.749-4.369-.3-5.725.449-4.369,1.049-1.958.749a5.364,5.364,0,0,0-1.356.6l-1.356.6a5.327,5.327,0,0,0-1.206.749l-1.2.749a8.263,8.263,0,0,0-1.206.9l-.6.449a8.34,8.34,0,0,1-1.2.9l-2.26,2.1-3.464,4.344a13.166,13.166,0,0,0-.9,1.5l-1.657,3-.451.9c-.3.6-.451,1.049-.754,1.648l-1.356,3.6-1.053,3.895-5.424-.749.451-3.146C601.818,14.809,586,5.67,572.293,5.221h-1.506a37.85,37.85,0,0,0-17.776,5.243l-1.206.9-.15.15-4.67,4.344-4.218,6.292-2.409,5.992-.754,2.7-.752,3.895-.453,3.146h-5.121V34.732l-1.206-5.692-1.206-3.6-1.807-3.895L526.95,18.1l-2.411-3-2.712-2.547-3.615-2.547-3.163-1.648-3.314-1.2-3.616-.9-3.464-.9-2.259-.15-3.767.15C484.77,6.719,468.8,16.456,469.1,39.826l.15,2.247-6.78.9-.451-2.7c-7.081-22.77-25.308-26.965-38.716-23.819-13.257,3.146-27.567,14.98-23.65,37.9l.3,2.1L395.439,57.8l-.754-2.547c-10.092-21.572-28.32-23.519-40.824-18.726s-24.7,18.426-17.925,40.6l.6,1.947-5.424,2.4-1.2-1.648C316.653,59.9,298.124,60.349,286.223,66.94c-11.75,6.442-22.145,21.422-12.2,42.395l.9,1.947-4.218,2.547-1.354-2.247c-15.367-18.126-33.141-15.28-43.837-7.191-10.545,7.94-18.38,24.119-6.026,43.593l1.053,1.8-3.765,3.146-1.657-1.947c-17.626-15.879-34.949-10.636-44.44-1.348-9.34,9.138-15.064,26.216-.3,43.893l1.356,1.648-3.314,3.595-1.808-1.648c-19.583-13.482-36-5.992-44.138,4.494-7.984,10.337-11.3,27.865,5.423,43.444l1.506,1.348-2.561,3.744-1.808-.9C103.644,238.468,88.429,247.9,81.65,259.44c-6.478,11.235-7.532,29.062,11,42.245l1.657,1.2L92.2,306.928l-1.958-.748c-22.446-7.791-36.3,3.595-41.427,15.878-4.971,11.984-3.615,29.662,16.42,40.3l1.808,1.049-1.506,4.345-2.109-.451c-23.2-4.644-35.4,8.539-38.715,21.272-3.314,12.435.3,29.811,21.542,37.752l1.958.748-1.055,4.494-2.109-.15c-23.651-1.5-33.895,13.183-35.552,26.215-1.657,12.734,4.369,29.512,26.362,34.6l1.958.451-.3,4.644-2.109.15c-23.651,1.648-31.786,17.526-31.786,30.56.151,12.884,8.285,28.613,30.731,30.711l2.109.15.3,4.644-2.109.449C11.6,568.637,5.576,585.564,7.384,598.448c1.808,12.733,11.9,27.264,34.5,26.516l2.109-.151.9,4.645-1.958.748c-22.144,7.79-26.061,24.567-22.3,37.751C24.1,680.241,36.156,693.424,58.3,689.68l1.958-.3,1.506,4.344-1.808.9c-20.939,10.636-22.3,28.313-17.023,40.3,5.122,11.833,18.68,23.219,40.222,16.479l1.958-.6,2.109,4.195-1.657,1.2c-19.282,13.333-18.228,31.008-11.6,42.245C80.6,809.523,95.66,818.961,116,809.523l1.808-.9,2.561,3.894-1.506,1.348c-17.475,15.73-14.462,32.658-5.875,43.444,7.984,10.037,24.253,17.528,43.234,5.394l1.808-1.049,3.164,3.445-1.356,1.648c-15.215,17.827-9.49,34.755,0,43.893,9.34,8.839,26.363,14.083,43.536-.3l1.506-1.349,3.464,3-1.053,1.8c-12.655,19.774-4.822,35.8,5.874,43.442,10.395,7.64,28.02,10.486,43.085-6.142l1.356-1.5,3.916,2.547-.9,1.947c-9.943,21.122-.6,35.8,11.6,42.245,11.3,6.142,29.075,6.742,41.879-11.683L315.3,983l4.218,1.947-.6,1.947c-6.929,22.321,4.218,35.5,17.174,40.448,12.051,4.644,29.826,2.846,39.92-17.227l.9-1.8,4.367,1.5-.3,2.1c-3.916,23.069,8.888,34.6,22.3,37.751,12.653,3,29.978-1.049,37.36-22.321l.752-1.947,4.519.9-.151,2.1c-.9,23.518,14.009,33.406,27.116,34.605,12.956,1.348,29.677-5.095,34.046-27.264Zm35.252,38.05c-13.107,0-28.321-6.89-33.593-26.065-7.382,17.977-23.651,23.37-36.607,22.022-13.255-1.348-28.32-10.187-31.031-30.412-9.793,16.929-26.514,20.075-39.167,17.079-12.956-3.146-26.664-13.782-26.815-34.156-11.9,15.429-28.923,16.329-41.125,11.685-12.5-4.793-24.7-17.228-21.995-37.451-13.859,13.782-30.881,12.433-42.329,6.142-11.751-6.291-22.145-20.372-16.723-40-15.516,11.833-32.237,8.238-42.782.6-10.846-7.939-19.283-23.069-11.3-41.946-17.024,9.737-33.142,3.9-42.482-5.093-9.641-9.289-15.968-25.317-5.574-42.995-18.228,7.341-33.292-.449-41.427-10.636-8.285-10.337-12.5-27.264.151-43.443-18.981,4.943-32.991-4.943-39.619-16.03-6.93-11.384-8.737-28.613,5.875-42.993-19.433,2.4-32.087-9.288-37.209-21.122-5.273-12.284-4.821-29.512,11.6-41.8-19.584-.3-30.58-13.333-34.045-25.916-3.615-12.884-.9-29.961,17.023-39.849-19.734-2.7-28.773-17.227-30.58-29.961-1.808-13.182,3.163-29.81,22.144-37.3C7.233,556.5.153,540.923,0,528.04c-.151-13.333,7.08-29.062,26.965-34-17.926-7.941-22.9-24.12-21.241-37,1.657-13.183,10.846-27.865,31.334-30.111-16.721-10.037-19.433-26.965-16.119-39.4,3.465-12.884,14.612-26.217,35.1-25.766-15.365-12.435-15.817-29.363-10.846-41.5,5.122-12.284,17.926-24.118,38.113-20.973-13.558-14.081-11.6-31.01-5.122-42.245,6.779-11.536,20.939-21.571,40.673-15.729-11.449-15.73-7.382-32.209.6-42.546,8.285-10.636,23.651-18.575,42.33-10.187-8.737-16.327-3.766-32.357,6.176-42.094,9.491-9.438,25.911-15.28,43.385-4.494-6.477-17.377.451-32.657,11.6-41.047,10.7-8.089,27.718-11.685,43.687,1.2-4.218-17.976,4.971-32.208,17.624-39.1,12.5-6.891,31.184-8.089,45.8,8.689-3.013-19.924,8.435-34.006,22.294-39.4,12.655-4.943,30.279-3.895,42.18,12.733.9-18.426,13.859-29.811,28.02-33.257s33.141.449,42.33,21.422C467.294,12.711,482.812,1.925,498.478.577L502.7.427l5.121.3,6.477,1.5,3.917,1.5,3.615,1.947,2.11,1.5,1.958,1.5,3.013,3,1.657,1.947,2.11,3,2.56,4.944L536.59,25l3.163-7.041,3.466-5.093,2.259-2.547c20.94-19.175,55.888-11.086,61.16,19.475l1.809-3.446c.3-.6.752-1.049,1.053-1.648l2.26-3L614.17,19l1.96-1.8a8.206,8.206,0,0,1,1.356-1.049l.6-.449c.6-.449,1.055-.749,1.506-1.049l1.506-.9c.451-.3,1.055-.6,1.507-.9l1.506-.749a10.411,10.411,0,0,1,1.506-.6c4.971-1.8,7.683-2.547,13.407-2.547l4.519.3,3.314.449,5.725,1.5,2.259.9,2.862,1.348,2.862,1.648,2.561,1.947,2.409,2.247L668.7,23.2l1.809,2.846,1.506,3.146,1.2,3.445.9,3.6.6,3.895.3,3.745,1.356-1.947c.3-.449.752-.9,1.053-1.348l1.959,1.348-1.959-1.5,1.959-2.247.6-.6v-.15l.752-.749a8.974,8.974,0,0,0,1.205-1.2l2.261-1.8,1.356-.9.752-.449c.451-.3,1.055-.6,1.506-.9l3.013-1.5,3.917-1.5,4.066-1.049.9-.15a6.211,6.211,0,0,1,1.657-.15l2.561-.15h2.259l4.068.3,4.82,1.049,4.67,1.648,3.767,1.8,3.464,2.1,3.013,2.4,2.712,2.846,2.409,3.146,1.206,1.947,1.807,3.6.9,2.4.752,2.4.3,1.648h.15l.6,5.842V62l-.15,3.446,2.108-2.247,2.862-2.547,3.013-2.1,3.013-1.8,3.163-1.348,3.163-1.049,4.068-.9,4.068-.3h.752l3.316.15,4.066.6,5.424,1.648,4.519,2.1,5.121,3.3,2.11,1.8,2.259,2.247,2.561,3.146,1.807,2.7,1.807,3.745,1.055,3.146.752,3.3.453,3.446.151,2.7-.151,3.745-.6,3.895-.3,1.049c14.16-11.835,31.033-10.486,42.782-2.7,11.3,7.34,20.338,22.171,13.407,41.346l3.314-1.8,3.466-1.5,3.464-1.2,3.464-.749,3.466-.449,2.56-.15,4.068.3,4.068.749,3.916,1.2,4.369,2.1,3.464,2.1,3.163,2.4,2.411,2.247,2.712,3,2.259,3.3,1.96,3.6,1.2,3,1.055,3.895.451,3.3.152,3.446-.152,3.446-.6,3.446-.9,3.6-1.354,3.595-1.356,2.847,3.464-1.5,3.615-1.049,4.369-.748,3.464-.3h.9l3.464.15,4.068.748,3.917,1.2,3.765,1.648,3.464,2.1,3.165,2.4,2.409,2.1,3.163,3.447,2.712,3.744,1.206,1.947,1.356,2.7.752,2.1.6,2.246h.15l.6,3h.15l.3,1.5.151,3.9-.151,2.546-.451,3.447-.3,1.947h-.15l-.9,3.146h-.15l-1.807,4.195-1.958,3.445-1.206,1.8,4.67-1.2,4.82-.6h2.562l3.464.15,4.218.75,5.725,1.947,4.217,2.248,3.165,2.246,3.615,3.3,2.712,3.146,1.507,1.949c7.532,11.085,10.092,28.312-3.767,43.292,18.228-3,31.936,6.592,38.263,19.175l1.659,3.746,1.2,3.894.754,3.9.3,4.045-.3,4.044-.754,4.045-1.053,3.146-1.356,3.146-2.26,3.9-2.108,3-1.958,2.1-3.767,3.445h1.958l3.767.15,3.615.6,4.218,1.2,3.163,1.348,3.013,1.5,3.464,2.246,3.165,2.7,2.71,3,2.411,3.3,1.958,3.595,1.657,3.746.3.748c4.218,12.734,2.411,29.961-15.063,40.747,18.378,1.8,29.074,14.831,31.785,28.613,2.56,13.183-1.659,29.961-20.338,38.351,17.927,4.345,26.815,18.575,27.718,32.508.754,13.331-5.573,29.51-25.307,35.353,17.323,6.591,24.1,21.872,23.048,35.8-1.055,13.333-9.49,28.463-29.828,31.758,16.27,8.839,21.09,24.868,18.077,38.65-2.712,13.032-13.257,26.965-33.743,27.564,14.914,10.935,17.474,27.414,12.8,40.6-4.519,12.583-16.721,25.018-37.057,22.77,13.257,12.734,13.708,29.512,7.382,41.945-6.176,11.984-19.885,22.621-39.771,17.677,11.449,14.38,9.642,31.158,1.659,42.544-7.684,10.935-22.749,19.774-41.879,12.284,9.49,15.88,5.422,32.058-4.068,42.394-9.039,9.888-25.156,16.628-43.083,6.742,7.229,16.927,1.053,32.507-9.642,41.495-10.242,8.539-27.116,13.034-43.687.9,4.972,17.677-3.163,32.359-15.063,39.847-11.3,7.191-28.622,9.439-43.386-4.793,2.56,18.276-7.532,31.758-20.338,37.6-12.2,5.543-29.525,5.543-42.331-10.486.3,19.475-12.653,30.561-25.156,34.455-12.805,3.9-30.128,1.648-40.523-16.028-2.411,19.323-16.571,28.762-29.527,30.859-13.255,2.248-29.976-2.4-37.962-21.122-4.971,18.876-20.336,26.215-33.292,26.666C544.423,1071.531,543.972,1071.531,543.52,1071.531Z" transform="translate(0 0.019)" fill="#004fa3" fill-rule="evenodd"/>
  <path id="Path_2" data-name="Path 2" d="M678.936,37.751a8.966,8.966,0,0,1,1.206-1.2Zm-214.365-.3-2.108.3-.15-.6c-7.081-22.62-25.158-29.511-41.578-25.617S391.51,29.661,395.125,52.282h-.151l-.15-.3c-9.941-21.422-28.472-26.066-43.987-20.074-15.365,5.992-25.91,21.722-19.283,43.443L329.9,76.1c-13.1-19.774-32.237-21.722-47-13.632-14.611,8.089-22.9,25.017-13.257,45.541l-.3.15-.151-.3c-15.365-18.126-34.044-17.677-47.151-7.79-12.956,9.737-18.679,27.714-6.628,46.739l-.152.15-.151-.3c-17.624-15.879-36.154-12.883-47.753-1.5s-14.914,29.812-.452,47.188l-.151.3-.151-.15c-19.583-13.483-37.51-8.089-47.6,4.945-9.942,12.733-10.7,31.457,5.724,46.589l-.151.3c-21.09-10.786-38.263-3-46.549,11.085-8.135,13.931-6.478,32.508,11.75,45.391l-.15.3c-22.3-7.79-38.263,2.1-44.44,17.229-6.176,14.831-2.109,32.957,17.625,43.294l-.151.449C39.609,357.434,25.3,369.269,21.08,385c-4.067,15.581,2.26,32.808,23.048,40.6l-.151.449c-23.35-1.5-36,12.136-38.113,28.313-1.958,15.88,6.628,32.209,28.321,37.152v.449C10.837,493.456.141,508.736.141,524.916c.151,16.479,10.846,31.459,32.991,33.557v.449c-22.9,4.644-31.484,21.122-29.225,37.152,2.26,15.878,14.914,29.361,36.907,28.461l.151.451c-21.994,7.64-28.321,25.166-23.8,40.747,4.368,15.43,18.529,27.115,40.372,23.369l.151.451C36.9,700.038,32.981,718.165,39.459,733c6.327,14.68,21.994,24.418,43.084,17.825l.3.451c-19.132,13.182-20.638,31.609-12.2,45.54,8.285,13.782,25.157,21.272,45.193,11.984l.3.449c-17.324,15.581-16.269,34.006-6.176,46.739,9.942,12.435,27.718,17.827,46.4,5.843l.3.449c-15.064,17.677-11.6,35.953.151,47.19,11.6,11.085,29.828,13.931,46.7-.3l.451.3c-12.653,19.624-6.778,37.152,6.477,46.739,12.956,9.437,31.485,9.886,46.248-6.441l.451.3c-9.791,21.122-1.657,37.751,12.655,45.391,14.16,7.64,32.538,5.693,45.041-12.433l.453.3c-6.93,22.171,3.314,37.6,18.529,43.294,15.064,5.691,32.991,1.348,42.932-18.276l.453.15c-3.917,22.92,8.284,36.851,24.1,40.6,15.668,3.744,32.991-3,40.222-23.969l.451.15c-.9,23.369,13.106,35.5,29.376,37.15,16.118,1.649,32.387-7.49,36.756-29.211h.451c2.11,23.37,17.626,33.705,34.046,33.107,16.119-.6,31.031-11.685,32.538-33.855h.453c5.121,22.92,21.993,31.009,38.112,28.312,15.967-2.7,29.224-15.729,27.718-37.9l.3-.15c8.136,22.022,26.063,28.014,41.578,23.221s26.965-19.475,22.3-41.347l.3-.15c11,20.823,29.525,24.418,44.439,17.528,14.763-6.742,24.254-22.921,16.571-44.044l.3-.15v.15c13.708,19.325,32.539,20.374,46.4,11.685,13.708-8.689,20.94-26.065,10.545-46.141l.3-.15.151.3c16.119,17.376,34.949,15.878,47.6,5.392,12.5-10.486,17.323-28.613,4.218-47.188l.15-.15.3.3c18.378,14.981,36.756,11.085,47.9-.9,11-11.984,13.406-30.709-2.26-47.487l.151-.15.451.449c20.187,12.433,37.963,6.142,47.3-7.191s9.189-32.207-8.587-46.739l.15-.15.6.3c21.692,9.738,38.413,1.2,45.945-13.482,7.532-14.53,4.82-33.257-14.763-45.241l.15-.15.6.3c22.747,6.742,38.263-3.894,43.687-19.325s.3-33.556-20.789-42.843v-.15l.752.3c23.5,3.744,37.36-8.989,40.824-25.018s-4.218-33.406-26.362-39.847h-.151v-.15l.9.15c23.8.6,35.853-13.782,37.059-30.111s-8.587-32.508-31.484-35.953h-.3v-.15h1.055c23.65-2.547,33.743-18.426,32.688-34.755-.9-16.329-12.8-31.16-36-31.459h-.3v-.15l1.055-.15c23.048-5.693,30.881-22.62,27.868-38.8-3.163-16.03-16.872-29.213-39.769-26.516h-.3v-.15l1.053-.3c22.145-8.689,27.569-26.516,22.446-42.1l-.3-.75-.3-.748-.3-.75-.3-.748-.3-.75-.3-.748-.3-.75-.3-.6-.3-.6-.451-.6-.451-.6-.451-.6-.453-.6-.452-.6-.451-.6-.453-.6-.451-.6-.451-.6-.451-.6-.453-.6-.6-.6-.6-.449-.6-.451-.6-.449-.6-.449-.6-.451-.6-.449-.6-.449-.6-.449-.6-.451-.6-.449-.6-.449-.752-.451-.754-.3-.752-.3-.754-.3-.752-.3-.754-.3-.752-.3-.754-.3-.752-.3-.754-.15-.752-.15-.754-.151-.9-.15-.9-.15-.9-.15-.9-.15-.9-.15h-6.327l-.9.15-1.055.15-1.055.15-1.053.15-1.055.15-1.055.151-1.055.3-1.053.3-.3.15-.152-.15,1.055-.449.9-.6.9-.6.9-.6.9-.6.9-.6.9-.6.752-.6.754-.6.752-.6.754-.6.752-.6.754-.6.6-.6.6-.6.6-.6.6-.6.6-.748.6-.75.451-.748.453-.75.451-.748.452-.75.453-.748.451-.75.451-.748.3-.75.3-.748.3-.75.3-.748.3-.75.3-.748.3-.75.151-.748.15-.75.151-.748.151-.75.15-.748.151-.75.151-.748.151-.75v-5.992l-.151-.748-.151-.75-.151-.748-.15-.75-.151-.748-.151-.75-.15-.748-.151-.75-.3-.748-.3-.75-.3-.748-.3-.75-.3-.748-.3-.75-.3-.748-.3-.75c-7.231-14.68-23.952-23.668-45.343-15.13l-.3.15-.151-.15,1.053-.6c18.982-14.081,19.583-32.808,10.545-46.44l-.451-.6-.451-.6-.451-.6-.453-.6-.451-.6-.451-.6-.453-.6-.451-.6-.6-.6-.6-.6-.6-.449-.6-.451-.6-.449-.6-.449-.6-.449-.6-.451-.6-.449-.6-.449-.6-.451-.6-.449-.6-.449-.6-.3-.6-.3-.6-.3-.754-.3-.752-.3-.754-.3-.753-.3-.754-.3-.752-.3-.754-.15-.752-.15-.754-.15-.752-.15-.754-.151-.752-.15-.754-.15-.752-.15h-5.725l-.9.15-.9.15-.9.15-.9.151-.9.15-.9.15-.9.15-.9.3-.9.3-.9.3-.9.3-.9.3-.9.3-.9.449-.9.451-.9.449-.9.449-.9.451-.9.449-.453.3-.15-.15,1.055-.75.753-.748.754-.75.753-.748.754-.75.6-.748.6-.75.6-.748.6-.75.6-.748.6-.75.453-.748.451-.75.451-.748.451-.75.453-.748.451-.75.3-.748.3-.75.3-.748.3-.75.3-.748.3-.748.15-.75.15-.748.152-.75.15-.748.151-.75.15-.748.151-.75.15-.748v-5.992l-.15-.75-.151-.748-.15-.75-.151-.748-.15-.75-.152-.748-.15-.75-.15-.748-.3-.75-.3-.748-.3-.75-.3-.748-.3-.75-.3-.748-.3-.6-.3-.6-.3-.6-.451-.6-.451-.6-.451-.6-.453-.6-.451-.6-.451-.6-.453-.6-.451-.6-.451-.6-.453-.6-.451-.6-.6-.6-.6-.6-.6-.449-.6-.449-.6-.451-.6-.449-.6-.449-.451-.75-.6-.449-.6-.449-.6-.451-.6-.449-.6-.449-.6-.3-.6-.3-.752-.3-.754-.3-.752-.3-.754-.3-.752-.3-.754-.3-.752-.3-.754-.15-.752-.15-.754-.15-.752-.15-.754-.151-.752-.15-.754-.15-.752-.15h-6.026l-.754.15-.752.15-.9.15-.752.151-.9.15-.9.15-.9.15-.9.3-.9.3-.9.3-.9.3-.9.3-.9.3-.9.449-.9.451-.9.449-.9.449-.9.451-.9.449-.9.6-.9.6-.9.6-.9.6-.9.6-.3.3-.152-.15.9-.9.6-.9.6-.9.6-.9.6-.9.6-.9.6-.9.453-.9.451-.9.451-.9.453-.9.451-.9.451-.9.3-.9.3-.9.3-.9.3-.9.3-.9.3-.9.152-.9.151-.9.15-.9.151-.749.151-.749.15-.749v-5.992l-.15-.749-.151-.749-.151-.749-.15-.749-.151-.749-.152-.749-.15-.749-.15-.749-.3-.749-.3-.749-.3-.749-.3-.749-.3-.749-.3-.749-.3-.6-.3-.6-.3-.6-.451-.6-.451-.6-.451-.6-.453-.6-.451-.6-.451-.6-.453-.6-.451-.6-.451-.6-.453-.6-.451-.6-.6-.6-.6-.6-.6-.449-.6-.449-.6-.449-.6-.449-.6-.449-.6-.449-.6-.449-.6-.449-.6-.449-.6-.45-.6-.449-.6-.3-.6-.3-.6-.3-.754-.3-.752-.3-.754-.3-.752-.3-.754-.3-.752-.3-.754-.3-.752-.15-.754-.15-.752-.15-.754-.15-.752-.15-.754-.15-.752-.15-.754-.15h-6.026l-.752.15-.754.15-.752.15-.754.15-.752.15-.754.15-.752.15-.754.3-.752.3-.754.3-.752.3-.754.3-.752.3-.9.9-.752.449-.754.449-.752.45-.754.449-.752.449-.754.449-.753.6-.754.6-.753.6-.754.6-.752.6-.754.6-.752.749-.754.749-.752.749-.3.3-.151-.15.752-1.049c12.052-20.373,5.272-37.9-8.437-46.889s-32.688-8.239-46.85,9.887l-.151.3-.15-.15.6-1.049.451-1.049.451-1.049.3-1.049.3-1.048.3-1.049.3-1.049.3-.9.3-.9.152-.9.151-.9.151-.9.15-.9.151-.9.15-.9V81.494l-.15-.9-.151-.749-.15-.749-.151-.749-.151-.749-.152-.749-.15-.749-.3-.749-.3-.749-.3-.749-.3-.749-.3-.749-.3-.749-.3-.749-.3-.6-.3-.6-.453-.6-.451-.6-.451-.6-.453-.6-.451-.6-.451-.6-.453-.6-.451-.6-.451-.6-.451-.6-.6-.6-.6-.449-.6-.449-.6-.449-.6-.449-.6-.449-1.053-.3-.6-.449-.6-.449-.6-.449-.6-.449-.6-.449-.6-.3-.6-.3-.754-.3-.752-.3-.754-.3-.753-.3-.754-.3-.752-.3-.754-.3-.752-.3-.754-.3-.753-.15-.754-.15-.752-.15-.754-.15-.752-.15-.754-.15-.752-.15-.754-.15-.753-.15h-6.026l-.754.15-.752.15-.754.15-.752.15-.754.15-.752.15-.754.15-.753.15-.754.3-.753.3-.754.3-.753.3-.754.3-.752.3-.754.3-.752.3-.754.449-.752.449-.754.449-.752.449-.754.449-.752.449-.754.449-.6.6-.754.6-.6.6-.6.6v.749l-.6.6-.6.749-.6.749-.6.749-.6.749-.6.749-.6.749-.6.749-.6.9-.6.9-.6.9-.6.9-.151.15-.453-.15.453-.9.3-1.049.3-1.049.151-1.049.15-1.049.151-1.049.152-1.049.15-1.049.151-1.049.151-1.048V56.327l-.151-.9-.151-.9-.15-.9-.152-.9-.151-.9-.15-.749-.151-.749-.151-.749-.3-.749-.3-.749-.3-.749-.3-.749-.3-.749-.3-.749-.3-.749-.3-.749-.451-.6-.451-.6-.451-.6-.453-.6-.451-.6-.451-.6-.453-.6-.451-.6-.451-.6-.453-.6-.451-.6-.6-.6-.6-.449-.6-.449-.6-.449-.6-.449-.6-.449-.6-.449-.6-.449-.6-.449-.6-.449-.6-.449-.6-.449-.6-.3-.754-.3-.752-.3-.754-.3-.752-.3-.754-.3-.752-.3-.754-.3-.752-.3-.754-.3-.752-.15-.754-.15-.752-.15-.754-.15-.752-.15-.754-.15-.752-.15-.754-.15-.752-.15h-6.628c-.453,0-1.055.15-1.506.15l-.754.15-.752.15-.754.15-.752.15-.754.15-.752.15-.754.15-.752.3-.754.3-.752.3-.754.3-.752.3-.6.3-.752.3-.754.449a6.08,6.08,0,0,1-1.356.749l-.752.449c-.451.3-.754.6-1.206.9l-.15.15-.15.15h-.151l-.151.15-.15.15-.6.449-.6.6c-.453.3-.754.749-1.206,1.049l-.6.6-.6.6-.6.6-.6.6-.6.6A8.161,8.161,0,0,1,676.374,40l-.451.749-.451.749v.15l-.453.749v.15l-.451.749v.15l-.451.749v.15l-.451.749v.15l-.453.749v.15l-.451.749v.15l-.451.749v.15l-.453.9v.15l-.3.9-1.055-.3.3-.9.15-1.049.151-1.049.151-1.049V38.35l-.151-.9-.151-.9-.15-.9-.15-.9-.152-.9-.15-.9-.15-.9-.3-.9-.3-.9-.3-.749-.3-.749-.3-.749-.3-.749-.3-.749-.3-.749-.3-.749-.451-.749-.451-.749-.451-.6-.453-.6-.451-.6-.451-.6-.453-.6-.451-.6-.451-.6-.453-.6-.6-.6-.6-.6-.6-.449-.6-.449-.6-.449-.6-.449-.6-.449-.6-.449-.6-.449-.6-.449-.6-.449-.6-.449-.6-.3-.6-.3-.754-.3-.752-.3-.754-.3-.752-.3-.754-.3-.752-.3-1.506.449-.754-.3-.752-.3-.754-.15-.752-.15-.754-.15-.752-.15-.754-.15-.752-.15-.754-.15-.752-.15-.754-.15h-6.778l-.754.15-.752.15-1.055.15-.752.15-.754.15-.752.15-.754.15-.752.15h-.3l-.6.15-.752.3-.754.3a15.5,15.5,0,0,1-1.506.6l-.752.3-.754.3c-.451.3-.9.449-1.356.749l-.6.449-.6.449-1.354.9-.9.749-.151.15a4.058,4.058,0,0,0-1.206,1.049l-.6.6-.6.449-.6.6-.6.6-.6.6-.6.6-.6.6-.6.6-.451.6-.152.15v.3a9.1,9.1,0,0,1-1.053,1.5l-.453.749-.451.749-.451.9-.451.749-.453.9a9.146,9.146,0,0,0-.752,1.8l-1.205,2.247v.15l-.3.9-.3.9v.15l-.3,1.049-.3,1.049-.3.9-.9-.15.152-1.049c-.152-23.669-15.367-35.2-32.088-35.8H565.2L564.146.3l-.752.15L562.64.6h-.752l-.754.3-.752.15-.754.15-.752.15-.754.3-.752.3-.754.15-.752.3-.754.3-.752.3-.754.3-.451.3-.6.3-.752.3-.6.449-.6.449-.6.449-.9.449-.6.449-.151.15-.6.449-.6.449-.6.449-.6.6-.151.15-1.205,1.2-.151.15-.15.15-.151.15-.15.15v.15l-.453.449v.15l-.451.6-.151.15-.151.15-.15.15-.15.15-.151.15-.15.15-.3.3-.15.15-.151.15-.15.15-.151.15-.15.15-.15.15-.151.15-.15.15-.152.15-.151.15-.15.15-.15.15-.151.3-.151.15-.15.15-.15.15-.15.15-.15.15-.152.15-.151.15-.15.15-.15.15-.151.15-.151.15-.15.15.451,1.648-.151.15-.151.15-.15.15-.15.15-.3.749-.3.6-.15.15-.3.9-.15.449-.15.15-.15.15-.151.3v.15l-.151.3-.152.15v.6l-.15.449-.3.9-.3.9-.3.9-.151.9-.151,1.048-.152,1.049-.15,1.049-.151,1.049h-.6v-.9l-.15-1.049-.15-1.049-.151-1.049-.3-1.048-.3-1.049-.3-1.049-.3-.9-.3-.9-.3-.9-.3-.9-.3-.9-.3-.9-.453-.9-.451-.9-.451-.749-.451-.749-.453-.749-.451-.749-.451-.749-.453-.749-.451-.749-.451-.749-.6-.6-.6-.6-.6-.6-.6-.6-.6-.6-.6-.6h-.3l-.6-.6-.6-.449-.6-.449-.6-.449-.6-.449-.6-.449-.9-.449-.752-.449-.754-.449-.752-.3-.754-.3-.752-.3-.754-.3-.752-.3-.754-.3-.752-.3-.754-.3-.752-.15-.754-.15-.752-.15L506.9.9l-.752-.15L505.7.6h-.752l-.754-.15L503.437.3h-6.778C479.184,1.947,464.12,14.381,464.571,37.451Z" transform="translate(2.272 2.714)" fill="#faa61a" fill-rule="evenodd"/>
  <path id="Path_3" data-name="Path 3" d="M47.571.956C59.322-.093,69.564,8.3,70.619,19.531S62.936,40.8,51.186,41.7c-11.749,1.049-21.993-7.34-23.048-18.576C27.233,11.891,35.971,1.854,47.571.956Z" transform="translate(451.962 14.193)" fill="#004fa3" fill-rule="evenodd"/>
  <path id="Path_4" data-name="Path 4" d="M54.187.861A20.61,20.61,0,0,1,73.921,22.284c-.6,11.235-10.545,19.924-21.995,19.475A20.61,20.61,0,0,1,32.192,20.336C32.8,9.1,42.737.412,54.187.861Z" transform="translate(517.805 13.837)" fill="#004fa3" fill-rule="evenodd"/>
  <path id="Path_5" data-name="Path 5" d="M60.97,1.746A20.349,20.349,0,0,1,77.39,25.715a20.9,20.9,0,0,1-24.4,16.329,20.348,20.348,0,0,1-16.42-23.969A20.978,20.978,0,0,1,60.97,1.746Z" transform="translate(582.126 22.54)" fill="#004fa3" fill-rule="evenodd"/>
  <path id="Path_6" data-name="Path 6" d="M67.351,3.519A20.355,20.355,0,0,1,80.307,29.435,20.87,20.87,0,0,1,54.094,42.318,20.355,20.355,0,0,1,41.139,16.4,20.806,20.806,0,0,1,67.351,3.519Z" transform="translate(644.889 39.643)" fill="#004fa3" fill-rule="evenodd"/>
  <path id="Path_7" data-name="Path 7" d="M73.231,6.077a20.49,20.49,0,1,1-27.417,9.288A20.461,20.461,0,0,1,73.231,6.077Z" transform="translate(703.483 64.349)" fill="#004fa3" fill-rule="evenodd"/>
  <path id="Path_8" data-name="Path 8" d="M79.049,9.362a20.358,20.358,0,0,1,5.422,28.313A20.823,20.823,0,0,1,56,43.368a20.358,20.358,0,0,1-5.422-28.313A20.85,20.85,0,0,1,79.049,9.362Z" transform="translate(757.471 96.568)" fill="#004fa3" fill-rule="evenodd"/>
  <path id="Path_9" data-name="Path 9" d="M84.241,13.49A20.3,20.3,0,0,1,85.9,42.253a20.585,20.585,0,0,1-28.925,1.8,20.291,20.291,0,0,1-1.657-28.762A20.721,20.721,0,0,1,84.241,13.49Z" transform="translate(806.961 135.583)" fill="#004fa3" fill-rule="evenodd"/>
  <path id="Path_10" data-name="Path 10" d="M88.942,18.2a20.341,20.341,0,0,1-2.26,28.762,20.715,20.715,0,0,1-28.923-1.947,20.339,20.339,0,0,1,2.26-28.762A20.714,20.714,0,0,1,88.942,18.2Z" transform="translate(850.618 180.763)" fill="#004fa3" fill-rule="evenodd"/>
  <path id="Path_11" data-name="Path 11" d="M92.819,23.539A20.3,20.3,0,0,1,86.794,51.7C77.3,57.845,64.5,55.3,58.472,46.01A20.524,20.524,0,0,1,92.819,23.539Z" transform="translate(888.016 231.297)" fill="#004fa3" fill-rule="evenodd"/>
  <path id="Path_12" data-name="Path 12" d="M96.058,29.355a20.529,20.529,0,1,1-27.417-9.439A20.579,20.579,0,0,1,96.058,29.355Z" transform="translate(918.22 286.302)" fill="#004fa3" fill-rule="evenodd"/>
  <path id="Path_13" data-name="Path 13" d="M98.592,35.548A20.319,20.319,0,0,1,85.335,61.165a20.617,20.617,0,0,1-25.91-13.032A20.319,20.319,0,0,1,72.682,22.516,20.617,20.617,0,0,1,98.592,35.548Z" transform="translate(940.692 344.823)" fill="#004fa3" fill-rule="evenodd"/>
  <path id="Path_14" data-name="Path 14" d="M100.181,42.021a20.593,20.593,0,0,1-40.523,7.341,20.593,20.593,0,0,1,40.523-7.341Z" transform="translate(955.374 405.763)" fill="#004fa3" fill-rule="evenodd"/>
  <path id="Path_15" data-name="Path 15" d="M100.893,48.571c.6,11.236-8.285,20.674-19.584,21.274A20.493,20.493,0,0,1,59.768,50.519c-.6-11.236,8.284-20.674,19.584-21.272C90.8,28.8,100.441,37.486,100.893,48.571Z" transform="translate(961.742 468.124)" fill="#004fa3" fill-rule="evenodd"/>
  <path id="Path_16" data-name="Path 16" d="M100.663,55.236a20.561,20.561,0,1,1-18.83-22.022A20.293,20.293,0,0,1,100.663,55.236Z" transform="translate(959.861 530.819)" fill="#004fa3" fill-rule="evenodd"/>
  <path id="Path_17" data-name="Path 17" d="M99.673,61.753A20.592,20.592,0,1,1,84.007,37.485,20.576,20.576,0,0,1,99.673,61.753Z" transform="translate(949.553 592.611)" fill="#004fa3" fill-rule="evenodd"/>
  <path id="Path_18" data-name="Path 18" d="M97.747,68.093A20.6,20.6,0,1,1,85.395,42.026,20.565,20.565,0,0,1,97.747,68.093Z" transform="translate(931.144 652.636)" fill="#004fa3" fill-rule="evenodd"/>
  <path id="Path_19" data-name="Path 19" d="M95,74.219a20.635,20.635,0,0,1-27.718,8.538,20.333,20.333,0,0,1-8.738-27.564,20.638,20.638,0,0,1,27.719-8.539A20.375,20.375,0,0,1,95,74.219Z" transform="translate(904.813 709.578)" fill="#004fa3" fill-rule="evenodd"/>
  <path id="Path_20" data-name="Path 20" d="M91.416,79.82a20.548,20.548,0,1,1-4.971-28.463A20.694,20.694,0,0,1,91.416,79.82Z" transform="translate(871.342 762.551)" fill="#004fa3" fill-rule="evenodd"/>
  <path id="Path_21" data-name="Path 21" d="M87.087,84.917a20.52,20.52,0,1,1-1.205-28.762A20.145,20.145,0,0,1,87.087,84.917Z" transform="translate(830.93 810.783)" fill="#004fa3" fill-rule="evenodd"/>
  <path id="Path_22" data-name="Path 22" d="M82.22,89.459a20.583,20.583,0,0,1-28.773-2.846,20.355,20.355,0,0,1,2.71-28.762A20.585,20.585,0,0,1,84.93,60.7,20.329,20.329,0,0,1,82.22,89.459Z" transform="translate(784.43 852.98)" fill="#004fa3" fill-rule="evenodd"/>
  <path id="Path_23" data-name="Path 23" d="M76.8,93.4a20.55,20.55,0,1,1,6.477-28.164A20.4,20.4,0,0,1,76.8,93.4Z" transform="translate(732.755 888.739)" fill="#004fa3" fill-rule="evenodd"/>
  <path id="Path_24" data-name="Path 24" d="M70.963,96.411A20.558,20.558,0,0,1,43.847,86.076,20.319,20.319,0,0,1,54.091,59.111,20.559,20.559,0,0,1,81.207,69.447,20.318,20.318,0,0,1,70.963,96.411Z" transform="translate(676.679 917.485)" fill="#004fa3" fill-rule="evenodd"/>
  <path id="Path_25" data-name="Path 25" d="M64.652,98.7A20.485,20.485,0,1,1,78.36,73.231,20.607,20.607,0,0,1,64.652,98.7Z" transform="translate(617.459 938.568)" fill="#004fa3" fill-rule="evenodd"/>
  <path id="Path_26" data-name="Path 26" d="M58.133,100.152a20.47,20.47,0,1,1,17.022-23.37A20.4,20.4,0,0,1,58.133,100.152Z" transform="translate(555.737 951.645)" fill="#004fa3" fill-rule="evenodd"/>
  <path id="Path_27" data-name="Path 27" d="M51.559,100.652A20.455,20.455,0,1,1,71.446,79.68,20.461,20.461,0,0,1,51.559,100.652Z" transform="translate(492.864 956.537)" fill="#004fa3" fill-rule="evenodd"/>
  <path id="Path_28" data-name="Path 28" d="M44.9,100.388A20.5,20.5,0,1,1,67.5,82.26,20.545,20.545,0,0,1,44.9,100.388Z" transform="translate(429.928 952.908)" fill="#004fa3" fill-rule="evenodd"/>
  <path id="Path_29" data-name="Path 29" d="M38.374,99.081A20.444,20.444,0,1,1,63.079,84.1,20.484,20.484,0,0,1,38.374,99.081Z" transform="translate(368.061 941.181)" fill="#004fa3" fill-rule="evenodd"/>
  <path id="Path_30" data-name="Path 30" d="M32.053,97.049A20.463,20.463,0,1,1,58.567,85.513,20.406,20.406,0,0,1,32.053,97.049Z" transform="translate(308.25 921.343)" fill="#004fa3" fill-rule="evenodd"/>
  <path id="Path_31" data-name="Path 31" d="M26.094,94.094a20.449,20.449,0,1,1,27.87-7.939A20.766,20.766,0,0,1,26.094,94.094Z" transform="translate(251.693 893.885)" fill="#004fa3" fill-rule="evenodd"/>
  <path id="Path_32" data-name="Path 32" d="M20.545,90.486a20.49,20.49,0,1,1,28.622-4.195A20.4,20.4,0,0,1,20.545,90.486Z" transform="translate(199.245 858.995)" fill="#004fa3" fill-rule="evenodd"/>
  <path id="Path_33" data-name="Path 33" d="M15.5,86.022a20.263,20.263,0,0,1-.151-28.762,20.543,20.543,0,0,1,28.923-.449,20.264,20.264,0,0,1,.15,28.762A20.54,20.54,0,0,1,15.5,86.022Z" transform="translate(151.869 817.768)" fill="#004fa3" fill-rule="evenodd"/>
  <path id="Path_34" data-name="Path 34" d="M11.147,81.056a20.385,20.385,0,0,1,3.615-28.613,20.63,20.63,0,0,1,28.773,3.445A20.385,20.385,0,0,1,39.919,84.5,20.63,20.63,0,0,1,11.147,81.056Z" transform="translate(110.424 770.453)" fill="#004fa3" fill-rule="evenodd"/>
  <path id="Path_35" data-name="Path 35" d="M7.505,75.546a20.314,20.314,0,0,1,7.382-27.865c9.792-5.691,22.446-2.546,28.019,7.191a20.5,20.5,0,0,1-35.4,20.673Z" transform="translate(75.651 718.137)" fill="#004fa3" fill-rule="evenodd"/>
  <path id="Path_36" data-name="Path 36" d="M4.586,69.6A20.506,20.506,0,1,1,31.4,80.383C21.006,84.727,8.8,79.932,4.586,69.6Z" transform="translate(48.292 661.768)" fill="#004fa3" fill-rule="evenodd"/>
  <path id="Path_37" data-name="Path 37" d="M2.5,63.355A20.531,20.531,0,1,1,27.658,77.586,20.49,20.49,0,0,1,2.5,63.355Z" transform="translate(28.534 602.096)" fill="#004fa3" fill-rule="evenodd"/>
  <path id="Path_38" data-name="Path 38" d="M1.238,56.712a20.39,20.39,0,0,1,17.776-22.77,20.322,20.322,0,1,1,5.273,40.3A20.435,20.435,0,0,1,1.238,56.712Z" transform="translate(16.992 540.576)" fill="#004fa3" fill-rule="evenodd"/>
  <path id="Path_39" data-name="Path 39" d="M.846,50.074A20.359,20.359,0,0,1,21.484,29.85a20.3,20.3,0,1,1-.151,40.6A20.452,20.452,0,0,1,.846,50.074Z" transform="translate(13.618 478.006)" fill="#004fa3" fill-rule="evenodd"/>
  <path id="Path_40" data-name="Path 40" d="M1.344,43.506a20.526,20.526,0,1,1,17.625,22.92C7.821,64.778-.163,54.591,1.344,43.506Z" transform="translate(18.694 415.514)" fill="#004fa3" fill-rule="evenodd"/>
  <path id="Path_41" data-name="Path 41" d="M5,30.811A20.64,20.64,0,0,1,31.965,20.026a20.394,20.394,0,0,1,11,26.666A20.641,20.641,0,0,1,16,57.477,20.147,20.147,0,0,1,5,30.811Z" transform="translate(53.602 295.181)" fill="#004fa3" fill-rule="evenodd"/>
  <path id="Path_42" data-name="Path 42" d="M7.946,24.889a20.462,20.462,0,0,1,28.019-7.04,20.276,20.276,0,1,1-20.638,34.9A20.28,20.28,0,0,1,7.946,24.889Z" transform="translate(82.743 239.533)" fill="#004fa3" fill-rule="evenodd"/>
  <path id="Path_43" data-name="Path 43" d="M11.727,19.485A20.556,20.556,0,0,1,44.116,44.8a20.477,20.477,0,0,1-28.773,3.3A20.284,20.284,0,0,1,11.727,19.485Z" transform="translate(119.033 188.313)" fill="#004fa3" fill-rule="evenodd"/>
  <path id="Path_44" data-name="Path 44" d="M16.132,14.6a20.544,20.544,0,0,1,28.925.449,20.262,20.262,0,0,1-.3,28.762A20.448,20.448,0,0,1,16.132,14.6Z" transform="translate(161.779 142.262)" fill="#004fa3" fill-rule="evenodd"/>
  <path id="Path_45" data-name="Path 45" d="M21.231,10.377A20.551,20.551,0,1,1,17.165,38.99,20.425,20.425,0,0,1,21.231,10.377Z" transform="translate(210.307 102.144)" fill="#004fa3" fill-rule="evenodd"/>
  <path id="Path_46" data-name="Path 46" d="M27.224,6.789a21.535,21.535,0,0,1,28.622,8.089,20.116,20.116,0,0,1-8.134,27.714A21.535,21.535,0,0,1,19.09,34.5C13.365,24.766,17.132,12.332,27.224,6.789Z" transform="translate(264.121 68.88)" fill="#004fa3" fill-rule="evenodd"/>
  <path id="Path_47" data-name="Path 47" d="M33.385,3.945A20.925,20.925,0,0,1,60.2,15.78,20.338,20.338,0,0,1,48.3,42.146,20.926,20.926,0,0,1,21.484,30.311,20.462,20.462,0,0,1,33.385,3.945Z" transform="translate(324.092 41.912)" fill="#004fa3" fill-rule="evenodd"/>
  <path id="Path_48" data-name="Path 48" d="M40.2,2.021C51.5-.526,62.948,6.215,65.66,17.3c2.712,10.936-4.369,22.021-15.666,24.568s-22.747-4.195-25.459-15.28C21.823,15.653,28.9,4.568,40.2,2.021Z" transform="translate(385.668 24.063)" fill="#004fa3" fill-rule="evenodd"/>
  <path id="Path_49" data-name="Path 49" d="M2.672,37.073A20.531,20.531,0,1,1,17.134,62.089,20.609,20.609,0,0,1,2.672,37.073Z" transform="translate(32.129 354.086)" fill="#004fa3" fill-rule="evenodd"/>
  <path id="Path_50" data-name="Path 50" d="M86.314,187.409h39.167c31.936,0,53.327-13.482,53.327-60.82,0-44.642-17.776-51.532-59.052-51.532H86.314ZM13.1,407.923V17.981H162.538c70.048,0,91.441,56.176,91.441,110.7,0,33.258-8.888,70.708-36.607,92.58-23.048,18.126-53.778,23.969-82.1,23.369H86.163V407.923Z" transform="translate(210.906 288.088)" fill="#004fa3" fill-rule="evenodd"/>
  <path id="Path_51" data-name="Path 51" d="M123.316,77.557c0-11.235-8.134-18.725-16.27-19.024S91.38,63.027,91.38,74.411c0,11.236,8.435,22.921,12.954,32.658C113.524,99.878,123.316,90.142,123.316,77.557Zm-32.54,85.989c-8.435,3.3-26.061,21.272-22.747,42.993,2.561,17.827,13.708,37.152,32.54,37.152,11.751,0,21.09-5.843,29.525-13.333Zm62.668,26.065a176.451,176.451,0,0,0,7.532-44.343h36c0,28.764-6.78,56.477-21.393,81.5L204.814,275.3H156.006l-8.738-16.179C130.4,275.3,113.223,280.094,90.476,280.094c-37.358,0-64.927-31.609-64.927-72.954,0-35.8,18.228-56.627,46.1-76.251-9.492-16.179-19.132-33.256-19.132-52.282,0-38.05,29.224-52.282,56.189-52.282,25.609,0,51.369,18.727,51.369,50.335,0,26.514-14.914,46.889-37.057,60.371Z" transform="translate(411.316 421.609)" fill="#004fa3" fill-rule="evenodd"/>
  <path id="Path_52" data-name="Path 52" d="M195.483,144.937c.451-34.755-2.561-69.06-42.784-69.06-24.554,0-40.221,9.886-40.221,36.4,0,29.662,18.83,41.046,41.878,55.578,24.1,15.13,68.543,44.192,88.879,63.966,25.007,24.419,32.991,47.788,32.991,81.645,0,73.854-49.109,112.352-120.815,112.352-87.824,0-119.159-48.836-119.159-118.494V278.713h73.213v22.92c-1.506,37.9,9.941,65.464,45.945,65.464,30.883,0,45.494-16.178,45.494-45.69,0-22.92-10.395-38.5-29.224-51.383C133.569,240.362,85.965,219.09,56.137,180.14a107.562,107.562,0,0,1-18.829-59.773c0-66.513,37.661-102.915,114.94-102.915,116.6,0,113.434,89.433,113.885,127.933Z" transform="translate(583.643 279.628)" fill="#004fa3" fill-rule="evenodd"/>
  <path id="Path_53" data-name="Path 53" d="M44.006,75.5l4.971,4.045c4.068,3.3,8.286,3.746,13.106-2.4,4.67-5.691,3.013-8.388-2.26-12.583L55.6,61.118ZM11.92,96.172,52.14,46.138l19.132,15.28c9.039,7.191,5.875,16.628.3,23.52-3.464,4.193-8.437,8.089-14.31,8.089-4.822,0-9.341-2.4-12.956-5.394L37.981,82.54,21.109,103.513Z" transform="translate(191.903 738.707)" fill="#004fa3" fill-rule="evenodd"/>
  <path id="Path_54" data-name="Path 54" d="M14.281,101.249l35.25-53.481L77.852,66.043l-5.123,7.941L54.5,62.15,45.615,75.632,62.336,86.567l-5.123,7.79L40.342,83.422,29.5,100.05l18.378,11.835-5.272,7.79Z" transform="translate(229.913 764.79)" fill="#004fa3" fill-rule="evenodd"/>
  <path id="Path_55" data-name="Path 55" d="M44.184,78.566l8.435,4.345c3.616,1.5,7.532.748,10.545-4.945,3.314-6.441,1.206-8.837-2.712-10.935l-7.984-4.045Zm-4.218,8.388L27.311,111.523l-10.7-5.543L46.142,49.054,66.328,59.54c9.189,4.793,14.613,11.536,9.189,22.022C72.353,87.854,67.383,93.4,59.55,90.85L59.4,91c5.875,4.045,5.723,9.138,2.862,14.532-1.205,2.4-8.738,16.179-7.081,19.175l-.6,1.047-11.75-5.992c.6-4.345,4.519-11.235,6.327-14.981,1.807-3.595,4.369-8.239,1.206-11.235a34.2,34.2,0,0,0-8.738-5.394Z" transform="translate(267.498 785.376)" fill="#004fa3" fill-rule="evenodd"/>
  <path id="Path_56" data-name="Path 56" d="M19.558,109.972,43.209,50.349,74.694,62.633,71.23,71.471,50.892,63.532,45.017,78.513,63.7,85.853l-3.466,8.687L41.553,87.351l-7.382,18.276,20.338,7.939-3.466,8.839Z" transform="translate(314.87 806.103)" fill="#004fa3" fill-rule="evenodd"/>
  <path id="Path_57" data-name="Path 57" d="M43.823,80.423l9.039,2.547c3.917.748,7.532-.75,9.341-7.041,1.958-6.892-.6-8.839-4.972-10.187l-8.585-2.4Zm-2.56,9.138-7.532,26.516-11.6-3.146,17.325-61.72L61.3,57.354C71.391,60.2,78.019,65.742,74.705,77.128,72.747,83.869,69.131,90.461,61,89.412v.15c6.628,2.846,7.382,7.79,5.725,13.632-.754,2.547-5.273,17.528-3.013,20.225l-.3,1.2-12.8-3.595c-.3-4.345,2.108-11.835,3.163-16.03,1.055-3.744,2.561-8.988-1.055-11.235-2.862-1.8-6.327-2.7-9.641-3.595Z" transform="translate(356.286 819.921)" fill="#004fa3" fill-rule="evenodd"/>
  <path id="Path_58" data-name="Path 58" d="M47.057,90.407l10.094,1.649L57,73.629a89.692,89.692,0,0,1,.3-8.988,42.135,42.135,0,0,0,.3-4.345h-.15A34.511,34.511,0,0,0,56.4,64.491a62.262,62.262,0,0,1-2.71,8.539ZM25.064,112.728l25.76-60.67,15.967,2.7,3.767,65.613-12.655-2.1-.451-16.479L43.593,99.547l-5.875,15.429Z" transform="translate(403.516 833.455)" fill="#004fa3" fill-rule="evenodd"/>
  <path id="Path_59" data-name="Path 59" d="M47.794,90.971l10.244.15L55.026,72.845a87.934,87.934,0,0,1-1.055-8.839,39.41,39.41,0,0,0-.3-4.345h-.15c-.15,1.348-.3,2.847-.453,4.345-.451,3-.752,5.843-1.354,8.839ZM29.416,116.288l16.27-63.816,16.268.3,13.708,64.267-12.954-.151-2.862-16.327-14.009-.3-3.466,16.179Z" transform="translate(473.581 840.083)" fill="#004fa3" fill-rule="evenodd"/>
  <path id="Path_60" data-name="Path 60" d="M61.317,53.31l11.9-1.049,6.026,63.816-12.5,1.2L55.292,95.4a215.427,215.427,0,0,1-11-24.569h-.152c.9,5.244,2.11,11.685,3.013,18.126.9,6.293,1.809,12.734,2.261,17.827l1.055,11.984L38.42,119.823,32.394,56.007l12.352-1.2L56.194,77.129a209.047,209.047,0,0,1,11,24.567h.151c-.9-5.693-1.96-11.985-2.862-17.977-.9-6.142-1.807-12.134-2.26-17.827Z" transform="translate(521.521 836.698)" fill="#004fa3" fill-rule="evenodd"/>
  <path id="Path_61" data-name="Path 61" d="M63.49,107.253c10.543-2.248,10.092-7.79,6.176-26.067C66.5,66.356,63.791,60.813,56.71,62.311l-7.683,1.648,9.34,44.341ZM48.576,119.985,35.319,57.217l24.554-5.093a14.9,14.9,0,0,1,13.708,4.494C77.2,60.364,79.457,67.1,81.565,77.591,84.127,90.024,87.14,104.257,78.7,111.9c-2.26,2.1-5.424,2.847-8.437,3.445Z" transform="translate(568.609 830.244)" fill="#004fa3" fill-rule="evenodd"/>
  <path id="Path_62" data-name="Path 62" d="M66.675,69.544c-1.958-5.394-4.369-10.486-10.545-8.239-3.765,1.347-5.573,3.744-4.066,7.939,1.657,4.494,5.272,5.242,9.64,6.142,4.519.9,13.106,2.846,17.323,4.793,5.273,2.248,7.835,5.543,9.793,10.636,4.218,11.386-1.055,20.073-12.051,24.119-13.558,5.094-21.241-.748-25.158-11.384l-1.657-4.345,11.3-4.195,1.356,3.595c1.958,5.843,5.272,9.439,10.846,7.49,4.82-1.8,6.026-5.093,4.369-9.587a10.072,10.072,0,0,0-7.532-6.291c-7.683-2.4-16.119-3-23.05-7.191a17.6,17.6,0,0,1-6.327-8.089C37,64.75,40.765,56.961,52.666,52.466c17.927-6.742,22.6,7.189,24.855,13.182Z" transform="translate(634.718 811.176)" fill="#004fa3" fill-rule="evenodd"/>
  <path id="Path_63" data-name="Path 63" d="M66.023,95.284c2.411,4.793,6.628,12.284,14.009,8.539,7.682-3.9,3.767-11.685,1.055-17.229L73.705,71.914C71.446,67.27,66.474,57.084,58.49,60.978c-8.435,4.195-2.712,13.931-.451,18.276ZM48.1,87.345C41.167,72.514,36.949,61.128,54.122,52.59s23.8,1.648,31.635,16.028l4.068,8.24c7.683,15.28,12.2,26.965-5.424,35.8s-24.4-1.8-32.086-17.077Z" transform="translate(677.099 792.027)" fill="#004fa3" fill-rule="evenodd"/>
  <path id="Path_64" data-name="Path 64" d="M68.417,54.217l10.092-6.591,35.252,53.631L103.215,108,82.878,94.066a235.96,235.96,0,0,1-21.24-16.628l-.15.15c3.314,4.195,7.231,9.288,11.148,14.53,3.765,5.094,7.532,10.337,10.393,14.681l6.629,10.038-10.094,6.591L44.314,69.948l10.395-6.742L75.346,77.588A218.569,218.569,0,0,1,96.586,94.216l.152-.15c-3.616-4.644-7.382-9.589-11-14.532S78.509,69.5,75.346,64.7Z" transform="translate(713.421 762.535)" fill="#004fa3" fill-rule="evenodd"/>
  <path id="Path_65" data-name="Path 65" d="M74.233,63.309c-3.616-4.494-7.532-8.539-12.655-4.345-3.163,2.547-4.066,5.392-1.354,8.839,3.163,3.744,6.628,3.3,11.147,2.7,4.67-.6,13.407-1.5,17.927-1.047,5.725.449,9.189,2.7,12.8,6.89,7.683,9.439,5.574,19.325-3.615,26.815-11.149,9.138-20.338,6.142-27.567-2.7l-3.013-3.595,9.34-7.64,2.409,2.846c3.767,4.943,8.136,7.341,12.655,3.595,3.916-3.146,4.066-6.74,1.053-10.486-2.409-2.846-5.422-3.744-9.189-3.445-7.984.15-16.268,2.4-24.1.6a17.725,17.725,0,0,1-8.586-5.691c-6.93-8.39-6.026-16.929,3.765-25.018,14.763-12.134,23.8-.449,27.87,4.494Z" transform="translate(756.262 741.161)" fill="#004fa3" fill-rule="evenodd"/>
</svg>
