<svg width="27" height="24" viewBox="0 0 27 24" fill="none" xmlns="http://www.w3.org/2000/svg">
<path fill-rule="evenodd" clip-rule="evenodd" d="M8.74658 5.65141C7.75997 5.60689 3.88134 5.40206 2.63456 5.65141C1.38779 5.90076 3.80609 3.43335 3 4.41663C2.1939 5.39991 2.17094 6.32581 2.17094 7.59727C2.17094 11.3725 6.40299 14.7185 9.5 17.5058C11.0183 18.8722 11.7987 19.6457 12.443 20.944C13.0147 21.3289 13.1524 21.6273 13.4828 21.8284C13.4886 21.8319 13.4771 20.9405 13.4828 20.944C13.4885 20.9405 13.9483 20.881 13.4828 21.8284C9.5 16.7348 6.02913 14.7348 6.02913 14.371C3.87336 12.02 4 12.3725 3.5 11.3725C1.69993 8.22223 2.20334 9.80804 2.20334 6.01831C0.956723 4.53661 23.1687 7.07822 22.3626 6.09494C21.5565 5.11166 22.7778 6.37253 21.7716 6.22492C20.4213 6.25465 18.7778 6.37253 16.5569 6.09494C15.6205 6.04194 16.0559 6.06688 15.214 6.01831L14.557 5.9796L13.0114 5.88758C11.5 5.79891 10 5.7153 8.74658 5.65141ZM13.5 3C12.8448 2.12646 12.0021 1.40033 11.0251 0.880063C9.49472 0.0651476 7.72928 -0.194373 6.02913 0.145656C4.32898 0.485686 2.79915 1.40426 1.69993 2.7451C0.600712 4.08593 0 5.7662 0 7.50001C0 12.2103 3.42804 16.3431 6.58103 19.1808C8.18778 20.6269 9.78996 21.796 10.9884 22.6029C11.5885 23.007 12.0898 23.3219 12.443 23.5369C12.6197 23.6444 12.7594 23.727 12.8562 23.7834C12.9046 23.8115 12.9422 23.8332 12.9683 23.8481L12.9988 23.8654L13.0073 23.8702L13.0099 23.8717C13.0099 23.8717 13.0114 23.8725 13.5 23L13.0114 23.8725C13.315 24.0425 13.685 24.0425 13.9886 23.8725L13.5 23C13.9886 23.8725 13.9886 23.8725 13.9886 23.8725L13.9901 23.8717L13.9927 23.8702L14.0012 23.8654L14.0317 23.8481C14.0578 23.8332 14.0954 23.8115 14.1438 23.7834C14.2406 23.727 14.3803 23.6444 14.557 23.5369C14.9102 23.3219 15.4115 23.007 16.0116 22.6029C17.21 21.796 18.8122 20.6269 20.419 19.1808C23.572 16.3431 27 12.2103 27 7.50001C27 5.7662 26.3993 4.08593 25.3001 2.7451C24.2008 1.40426 22.671 0.485686 20.9709 0.145656C19.2707 -0.194373 17.5053 0.0651475 15.9749 0.880063C14.9979 1.40033 14.1552 2.12646 13.5 3Z" fill="#FF0000"/>
</svg>
