<svg width="32" height="32" viewBox="0 0 32 32" fill="none" xmlns="http://www.w3.org/2000/svg">
<path fill-rule="evenodd" clip-rule="evenodd" d="M5.64136 2.18531C6.04567 2.14469 6.45276 2.22818 6.80844 2.42468L6.81355 2.4275L27.9215 14.25C27.9224 14.2505 27.9233 14.251 27.9242 14.2515C28.2356 14.4244 28.4952 14.6774 28.6761 14.9842C28.8576 15.292 28.9532 15.6427 28.9532 16C28.9532 16.3572 28.8576 16.708 28.6761 17.0157C28.4952 17.3226 28.2356 17.5756 27.9242 17.7485C27.9233 17.749 27.9224 17.7495 27.9215 17.75L6.80844 29.5753C6.45277 29.7718 6.04567 29.8553 5.64136 29.8147C5.23705 29.774 4.85471 29.6112 4.54524 29.3479C4.23576 29.0846 4.01384 28.7332 3.90901 28.3406C3.80431 27.9485 3.82138 27.5338 3.95794 27.1517C3.95797 27.1516 3.95791 27.1518 3.95794 27.1517C3.95807 27.1513 3.9583 27.1507 3.95844 27.1503L7.93294 16.0017C7.93314 16.0011 7.93334 16.0006 7.93355 16C7.93334 15.9994 7.93314 15.9989 7.93294 15.9983L3.95844 4.84968C3.95834 4.84941 3.95853 4.84994 3.95844 4.84968C3.82168 4.46735 3.80425 4.05166 3.90901 3.65933C4.01384 3.26675 4.23576 2.9154 4.54524 2.65208C4.85471 2.38875 5.23705 2.22594 5.64136 2.18531ZM27.4374 15.125L26.9487 15.9975L5.84131 4.17529L5.84181 4.17668L9.81106 15.3106C9.98371 15.7539 9.98371 16.246 9.81106 16.6894L5.84131 27.8247L26.9487 16.0025L26.9532 16L27.4374 15.125Z" fill="#131315"/>
<path fill-rule="evenodd" clip-rule="evenodd" d="M8 16C8 15.4477 8.44772 15 9 15H17C17.5523 15 18 15.4477 18 16C18 16.5523 17.5523 17 17 17H9C8.44772 17 8 16.5523 8 16Z" fill="#131315"/>
</svg>
